<?xml version="1.0" encoding="UTF-8" standalone="no"?>
<!-- Created with Inkscape (http://www.inkscape.org/) -->

<svg
   xmlns:dc="http://purl.org/dc/elements/1.1/"
   xmlns:cc="http://creativecommons.org/ns#"
   xmlns:rdf="http://www.w3.org/1999/02/22-rdf-syntax-ns#"
   xmlns:svg="http://www.w3.org/2000/svg"
   xmlns="http://www.w3.org/2000/svg"
   xmlns:sodipodi="http://sodipodi.sourceforge.net/DTD/sodipodi-0.dtd"
   xmlns:inkscape="http://www.inkscape.org/namespaces/inkscape"
   width="300mm"
   height="400mm"
   viewBox="0 0 300 400"
   version="1.1"
   id="svg8"
   inkscape:version="0.92.2 (5c3e80d, 2017-08-06)"
   sodipodi:docname="Lens Fitting - Laser cut Mk3.svg">
  <defs
     id="defs2" />
  <sodipodi:namedview
     id="base"
     pagecolor="#ffffff"
     bordercolor="#666666"
     borderopacity="1.0"
     inkscape:pageopacity="0.0"
     inkscape:pageshadow="2"
     inkscape:zoom="1.4142136"
     inkscape:cx="198.12902"
     inkscape:cy="1010.4864"
     inkscape:document-units="mm"
     inkscape:current-layer="layer1"
     showgrid="false"
     inkscape:window-width="1920"
     inkscape:window-height="976"
     inkscape:window-x="-8"
     inkscape:window-y="-8"
     inkscape:window-maximized="1"
     inkscape:snap-bbox="true"
     inkscape:snap-bbox-midpoints="true"
     inkscape:snap-object-midpoints="true"
     inkscape:snap-center="true"
     inkscape:snap-page="true"
     inkscape:snap-midpoints="true"
     inkscape:bbox-paths="true"
     inkscape:bbox-nodes="true"
     inkscape:snap-bbox-edge-midpoints="true"
     inkscape:object-paths="true"
     inkscape:snap-intersection-paths="true"
     inkscape:snap-smooth-nodes="true"
     inkscape:snap-text-baseline="true"
     inkscape:snap-global="true"
     showguides="true"
     inkscape:guide-bbox="true"
     inkscape:snap-nodes="true">
    <sodipodi:guide
       position="67.334389,199.26644"
       orientation="1,0"
       id="guide1167"
       inkscape:locked="false" />
    <sodipodi:guide
       position="111.36238,199.26644"
       orientation="1,0"
       id="guide1249"
       inkscape:locked="false" />
    <sodipodi:guide
       position="23.194656,199.26659"
       orientation="1,0"
       id="guide1420"
       inkscape:locked="false" />
    <sodipodi:guide
       position="19.194766,294.45141"
       orientation="1,0"
       id="guide2523"
       inkscape:locked="false" />
    <sodipodi:guide
       position="243.11438,284.95321"
       orientation="0,1"
       id="guide2603"
       inkscape:locked="false" />
    <sodipodi:guide
       position="23.194656,295.35306"
       orientation="0,1"
       id="guide2607"
       inkscape:locked="false" />
    <sodipodi:guide
       position="27.194546,292.90311"
       orientation="1,0"
       id="guide2613"
       inkscape:locked="false" />
    <sodipodi:guide
       position="96.285919,287.65534"
       orientation="0,1"
       id="guide2621"
       inkscape:locked="false"
       inkscape:label=""
       inkscape:color="rgb(0,0,255)" />
    <sodipodi:guide
       position="36.48229,304.95321"
       orientation="0,1"
       id="guide2932"
       inkscape:locked="false" />
    <sodipodi:guide
       position="126.47083,261.77248"
       orientation="0,1"
       id="guide2952"
       inkscape:locked="false" />
    <sodipodi:guide
       position="41.1949,274.55349"
       orientation="0,1"
       id="guide2972"
       inkscape:locked="false" />
    <sodipodi:guide
       position="30.367652,252.17233"
       orientation="0,1"
       id="guide2986"
       inkscape:locked="false" />
    <sodipodi:guide
       position="38.367653,231.37262"
       orientation="0,1"
       id="guide2990"
       inkscape:locked="false" />
    <sodipodi:guide
       position="69.284658,257.62239"
       orientation="0,1"
       id="guide858"
       inkscape:locked="false" />
    <sodipodi:guide
       position="69.284658,225.92251"
       orientation="0,1"
       id="guide860"
       inkscape:locked="false" />
  </sodipodi:namedview>
  <metadata
     id="metadata5">
    <rdf:RDF>
      <cc:Work
         rdf:about="">
        <dc:format>image/svg+xml</dc:format>
        <dc:type
           rdf:resource="http://purl.org/dc/dcmitype/StillImage" />
        <dc:title />
      </cc:Work>
    </rdf:RDF>
  </metadata>
  <g
     inkscape:label="Layer 1"
     inkscape:groupmode="layer"
     id="layer1"
     transform="translate(0,103)">
    <path
       style="fill:none;stroke:#000000;stroke-width:0;stroke-miterlimit:4;stroke-dasharray:none;stroke-opacity:1"
       d="M 12.074219 359.23242 L 12.074219 510.41211 L 163.25586 510.41211 L 163.25586 359.23242 L 12.074219 359.23242 z M 27.191406 370.75977 A 3.5905496 3.5905496 0 0 1 30.78125 374.34961 A 3.5905496 3.5905496 0 0 1 27.191406 377.94141 A 3.5905496 3.5905496 0 0 1 23.601562 374.34961 A 3.5905496 3.5905496 0 0 1 27.191406 370.75977 z M 148.13672 370.75977 A 3.5905496 3.5905496 0 0 1 151.72656 374.34961 A 3.5905496 3.5905496 0 0 1 148.13672 377.94141 A 3.5905496 3.5905496 0 0 1 144.54688 374.34961 A 3.5905496 3.5905496 0 0 1 148.13672 370.75977 z M 76.326172 386.25586 L 99.003906 386.25586 L 99.003906 389.6582 L 76.326172 389.6582 L 76.326172 386.25586 z M 148.13867 388.14453 L 154.18555 388.14453 L 154.18555 402.88672 L 148.13867 402.88672 L 148.13867 388.14453 z M 53.650391 389.84766 L 72.546875 389.84766 L 72.546875 401.18555 L 53.650391 401.18555 L 53.650391 389.84766 z M 102.7832 389.84766 L 121.67969 389.84766 L 121.67969 401.18555 L 102.7832 401.18555 L 102.7832 389.84766 z M 76.326172 401.375 L 99.003906 401.375 L 99.003906 404.77539 L 76.326172 404.77539 L 76.326172 401.375 z M 87.664062 408.36523 A 26.456691 26.456691 0 0 1 114.12109 434.82227 A 26.456691 26.456691 0 0 1 87.664062 461.2793 A 26.456691 26.456691 0 0 1 61.208984 434.82227 A 26.456691 26.456691 0 0 1 87.664062 408.36523 z M 76.326172 464.86914 L 99.003906 464.86914 L 99.003906 468.27148 L 76.326172 468.27148 L 76.326172 464.86914 z M 148.13867 466.75781 L 154.18555 466.75781 L 154.18555 481.5 L 148.13867 481.5 L 148.13867 466.75781 z M 53.650391 468.46094 L 72.546875 468.46094 L 72.546875 479.79883 L 53.650391 479.79883 L 53.650391 468.46094 z M 102.7832 468.46094 L 121.67969 468.46094 L 121.67969 479.79883 L 102.7832 479.79883 L 102.7832 468.46094 z M 76.326172 479.98828 L 99.003906 479.98828 L 99.003906 483.38867 L 76.326172 483.38867 L 76.326172 479.98828 z M 27.191406 491.70508 A 3.5905496 3.5905496 0 0 1 30.78125 495.29492 A 3.5905496 3.5905496 0 0 1 27.191406 498.88477 A 3.5905496 3.5905496 0 0 1 23.601562 495.29492 A 3.5905496 3.5905496 0 0 1 27.191406 491.70508 z M 148.13672 491.70508 A 3.5905496 3.5905496 0 0 1 151.72656 495.29492 A 3.5905496 3.5905496 0 0 1 148.13672 498.88477 A 3.5905496 3.5905496 0 0 1 144.54688 495.29492 A 3.5905496 3.5905496 0 0 1 148.13672 491.70508 z "
       transform="matrix(0.26458333,0,0,0.26458333,0,-103)"
       id="rect2529" />
    <path
       style="fill:none;stroke:#000000;stroke-width:0;stroke-miterlimit:4;stroke-dasharray:none;stroke-opacity:1"
       d="M 345.30664 522.43555 L 345.30664 673.61523 L 496.48633 673.61523 L 496.48633 522.43555 L 345.30664 522.43555 z M 420.89648 534.5293 A 3.5905493 3.5905493 0 0 1 424.48633 538.11914 A 3.5905493 3.5905493 0 0 1 420.89648 541.70898 A 3.5905493 3.5905493 0 0 1 417.30664 538.11914 A 3.5905493 3.5905493 0 0 1 420.89648 534.5293 z M 420.89648 654.33984 A 3.5905493 3.5905493 0 0 1 424.48633 657.92969 A 3.5905493 3.5905493 0 0 1 420.89648 661.51953 A 3.5905493 3.5905493 0 0 1 417.30664 657.92969 A 3.5905493 3.5905493 0 0 1 420.89648 654.33984 z "
       transform="matrix(0.26458333,0,0,0.26458333,0,-103)"
       id="path876" />
    <path
       style="fill:none;stroke:#000000;stroke-width:0;stroke-miterlimit:4;stroke-dasharray:none;stroke-opacity:1"
       d="m 95.362138,38.27768 a 0.94999957,0.94999957 0 0 1 0.949814,0.949811 0.94999957,0.94999957 0 0 1 -0.949814,0.950331 0.94999957,0.94999957 0 0 1 -0.949812,-0.950331 0.94999957,0.94999957 0 0 1 0.949812,-0.949811 z"
       id="path874" />
    <path
       style="fill:none;stroke:#000000;stroke-width:0;stroke-miterlimit:4;stroke-dasharray:none;stroke-opacity:1"
       d="m 127.36225,38.27768 a 0.94999957,0.94999957 0 0 1 0.94982,0.949811 0.94999957,0.94999957 0 0 1 -0.94982,0.950331 0.94999957,0.94999957 0 0 1 -0.94981,-0.950331 0.94999957,0.94999957 0 0 1 0.94981,-0.949811 z"
       id="path872" />
    <path
       style="fill:none;stroke:#000000;stroke-width:0;stroke-miterlimit:4;stroke-dasharray:none;stroke-opacity:1"
       d="m 111.3622,52.777568 a 2.4499995,2.4499995 0 0 1 2.44998,2.449981 2.4499995,2.4499995 0 0 1 -2.44998,2.449981 2.4499995,2.4499995 0 0 1 -2.44998,-2.449981 2.4499995,2.4499995 0 0 1 2.44998,-2.449981 z"
       id="path868" />
    <path
       style="fill:none;stroke:#000000;stroke-width:0;stroke-miterlimit:4;stroke-dasharray:none;stroke-opacity:1"
       d="m 95.362138,70.277792 a 0.94999957,0.94999957 0 0 1 0.949814,0.949815 0.94999957,0.94999957 0 0 1 -0.949814,0.949812 0.94999957,0.94999957 0 0 1 -0.949812,-0.949812 0.94999957,0.94999957 0 0 1 0.949812,-0.949815 z"
       id="path864" />
    <path
       style="fill:none;stroke:#000000;stroke-width:0;stroke-miterlimit:4;stroke-dasharray:none;stroke-opacity:1"
       d="m 127.36225,70.277792 a 0.94999957,0.94999957 0 0 1 0.94982,0.949815 0.94999957,0.94999957 0 0 1 -0.94982,0.949812 0.94999957,0.94999957 0 0 1 -0.94981,-0.949812 0.94999957,0.94999957 0 0 1 0.94981,-0.949815 z"
       id="rect2531" />
    <path
       style="fill:none;stroke:#000000;stroke-width:0;stroke-miterlimit:4;stroke-dasharray:none;stroke-opacity:1"
       d="M 47.334577,35.227738 V 75.227361 H 87.334719 V 35.227738 Z m 18.05006,1.999876 h 0.450104 3.000332 0.449586 v 4.299995 h -0.449586 v 1.799892 h 2.49959 v 3.000333 h -2.49959 v 4.131532 c 2.08229,0.655074 3.498927,2.585281 3.499528,4.768183 -0.0026,2.181188 -1.418868,4.108974 -3.499528,4.763535 v 4.13618 h 2.49959 v 3.000333 h -2.49959 v 1.799892 h 0.449586 v 4.299995 h -0.449586 -2.999816 -0.45062 v -4.299995 h 0.45062 c -6.1e-5,-0.602478 6e-5,-1.18839 0,-1.799892 h -2.500622 v -3.000333 h 2.500106 c -6.9e-5,-1.408456 -1.96e-4,-2.776198 0,-4.131013 -2.082681,-0.65495 -3.499607,-2.585469 -3.500046,-4.768702 0.0027,-2.181325 1.419185,-4.109159 3.500046,-4.763534 v -4.136181 h -2.500106 v -3.000333 h 2.500106 V 41.527609 H 65.384637 Z M 51.334849,38.27768 a 0.94999957,0.94999957 0 0 1 0.949815,0.949811 0.94999957,0.94999957 0 0 1 -0.949815,0.950331 0.94999957,0.94999957 0 0 1 -0.949812,-0.950331 0.94999957,0.94999957 0 0 1 0.949812,-0.949811 z m 32.000113,0 a 0.94999957,0.94999957 0 0 1 0.949815,0.949811 0.94999957,0.94999957 0 0 1 -0.949815,0.950331 0.94999957,0.94999957 0 0 1 -0.949812,-0.950331 0.94999957,0.94999957 0 0 1 0.949812,-0.949811 z M 51.334849,70.277792 a 0.94999957,0.94999957 0 0 1 0.949815,0.949815 0.94999957,0.94999957 0 0 1 -0.949815,0.949812 0.94999957,0.94999957 0 0 1 -0.949812,-0.949812 0.94999957,0.94999957 0 0 1 0.949812,-0.949815 z m 32.000113,0 a 0.94999957,0.94999957 0 0 1 0.949815,0.949815 0.94999957,0.94999957 0 0 1 -0.949815,0.949812 0.94999957,0.94999957 0 0 1 -0.949812,-0.949812 0.94999957,0.94999957 0 0 1 0.949812,-0.949815 z"
       id="rect2541"
       inkscape:connector-curvature="0" />
    <path
       style="fill:none;stroke:#000000;stroke-width:0;stroke-miterlimit:4;stroke-dasharray:none;stroke-opacity:1"
       d="M 3.1946372,35.227738 V 75.227361 H 43.194779 V 35.227738 Z M 7.1943928,38.27768 A 0.94999957,0.94999957 0 0 1 8.1442057,39.227491 0.94999957,0.94999957 0 0 1 7.1943928,40.177822 0.94999957,0.94999957 0 0 1 6.24458,39.227491 0.94999957,0.94999957 0 0 1 7.1943928,38.27768 Z m 32.0001142,0 a 0.94999957,0.94999957 0 0 1 0.949812,0.949811 0.94999957,0.94999957 0 0 1 -0.949812,0.950331 0.94999957,0.94999957 0 0 1 -0.949814,-0.950331 0.94999957,0.94999957 0 0 1 0.949814,-0.949811 z M 5.1945149,43.327501 H 19.194694 v 3.000333 H 5.1945149 Z m 22.0002071,0 h 5.000212 v 3.000333 H 27.194722 Z M 5.1945149,64.127264 H 19.194694 v 3.000333 H 5.1945149 Z m 22.0002071,0 h 5.000212 v 3.000333 H 27.194722 Z M 7.1943928,70.277792 A 0.94999957,0.94999957 0 0 1 8.1442057,71.227607 0.94999957,0.94999957 0 0 1 7.1943928,72.177419 0.94999957,0.94999957 0 0 1 6.24458,71.227607 0.94999957,0.94999957 0 0 1 7.1943928,70.277792 Z m 32.0001142,0 a 0.94999957,0.94999957 0 0 1 0.949812,0.949815 0.94999957,0.94999957 0 0 1 -0.949812,0.949812 0.94999957,0.94999957 0 0 1 -0.949814,-0.949812 0.94999957,0.94999957 0 0 1 0.949814,-0.949815 z"
       id="rect2783"
       inkscape:connector-curvature="0" />
    <path
       style="fill:none;stroke:#000000;stroke-width:0;stroke-miterlimit:4;stroke-dasharray:none;stroke-opacity:1"
       d="m 21.694799,37.227614 v 6.099887 h -2.500105 v 3.000333 h 2.500105 v 4.136181 c -2.080859,0.654375 -3.497344,2.582209 -3.500044,4.763534 4.4e-4,2.183233 1.417365,4.113752 3.500044,4.768702 -1.93e-4,1.354815 -6.7e-5,2.722557 0,4.131013 h -2.500105 v 3.000333 h 2.500622 c 2.08e-4,2.072405 2.3e-5,4.210674 0,6.099887 h 2.999817 v -6.099887 h 2.499589 v -3.000333 h -2.499589 v -4.13618 c 2.080661,-0.654561 3.496909,-2.582347 3.499528,-4.763535 -6e-4,-2.182902 -1.417238,-4.113109 -3.499528,-4.768183 v -4.131532 h 2.499589 v -3.000333 h -2.499589 v -6.099887 z m 1.500167,15.549954 a 2.4499995,2.4499995 0 0 1 2.44998,2.449981 2.4499995,2.4499995 0 0 1 -2.44998,2.449981 2.4499995,2.4499995 0 0 1 -2.449979,-2.449981 2.4499995,2.4499995 0 0 1 2.449979,-2.449981 z"
       id="path2787"
       inkscape:connector-curvature="0" />
    <path
       style="fill:none;stroke:#000000;stroke-width:0;stroke-miterlimit:4;stroke-dasharray:none;stroke-opacity:1"
       d="M 178.90234 359.23242 L 178.90234 510.41406 L 330.08203 510.41406 L 330.08203 477.91016 L 321.01172 477.91016 L 321.01172 481.5 L 314.96484 481.5 L 314.96484 477.91016 L 307.40625 477.91016 L 307.40625 479.79883 L 269.60938 479.79883 L 265.83008 479.79883 L 265.83008 483.38867 L 243.1543 483.38867 L 243.1543 479.79883 L 239.375 479.79883 L 239.375 483.57812 L 186.46094 483.57812 L 186.46094 464.68164 L 239.375 464.68164 L 239.375 468.46094 L 243.1543 468.46094 L 243.1543 464.86914 L 265.83008 464.86914 L 265.83008 468.46094 L 269.60938 468.46094 L 307.40625 468.46094 L 307.40625 470.34961 L 314.96484 470.34961 L 314.96484 466.75781 L 321.01172 466.75781 L 321.01172 470.34961 L 330.08203 470.34961 L 330.08203 399.29688 L 321.01172 399.29688 L 321.01172 402.88672 L 314.96484 402.88672 L 314.96484 399.29688 L 307.40625 399.29688 L 307.40625 401.18555 L 269.60938 401.18555 L 265.83008 401.18555 L 265.83008 404.77539 L 243.1543 404.77539 L 243.1543 401.18555 L 239.375 401.18555 L 239.375 404.96484 L 186.46094 404.96484 L 186.46094 386.06836 L 239.375 386.06836 L 239.375 389.84766 L 243.1543 389.84766 L 243.1543 386.25586 L 265.83008 386.25586 L 265.83008 389.84766 L 269.60938 389.84766 L 307.40625 389.84766 L 307.40625 391.73633 L 314.96484 391.73633 L 314.96484 388.14453 L 321.01172 388.14453 L 321.01172 391.73633 L 330.08203 391.73633 L 330.08203 359.23242 L 178.90234 359.23242 z M 194.01953 370.75977 A 3.5905496 3.5905496 0 0 1 197.60938 374.34961 A 3.5905496 3.5905496 0 0 1 194.01953 377.94141 A 3.5905496 3.5905496 0 0 1 190.42969 374.34961 A 3.5905496 3.5905496 0 0 1 194.01953 370.75977 z M 314.96484 370.75977 A 3.5905496 3.5905496 0 0 1 318.55469 374.34961 A 3.5905496 3.5905496 0 0 1 314.96484 377.94141 A 3.5905496 3.5905496 0 0 1 311.375 374.34961 A 3.5905496 3.5905496 0 0 1 314.96484 370.75977 z M 254.49219 408.36523 A 26.456691 26.456691 0 0 1 280.94922 434.82227 A 26.456691 26.456691 0 0 1 254.49219 461.2793 A 26.456691 26.456691 0 0 1 228.03516 434.82227 A 26.456691 26.456691 0 0 1 254.49219 408.36523 z M 194.01953 491.70508 A 3.5905496 3.5905496 0 0 1 197.60938 495.29492 A 3.5905496 3.5905496 0 0 1 194.01953 498.88477 A 3.5905496 3.5905496 0 0 1 190.42969 495.29492 A 3.5905496 3.5905496 0 0 1 194.01953 491.70508 z M 314.96484 491.70508 A 3.5905496 3.5905496 0 0 1 318.55469 495.29492 A 3.5905496 3.5905496 0 0 1 314.96484 498.88477 A 3.5905496 3.5905496 0 0 1 311.375 495.29492 A 3.5905496 3.5905496 0 0 1 314.96484 491.70508 z "
       transform="matrix(0.26458333,0,0,0.26458333,0,-103)"
       id="rect2795" />
    <path
       style="fill:none;stroke:#000000;stroke-width:0;stroke-miterlimit:4;stroke-dasharray:none;stroke-opacity:1"
       d="M 345.30664 359.23242 L 345.30664 510.41406 L 419.19727 510.41406 L 419.19727 502.85352 L 415.23047 502.85352 C 415.23054 496.82501 415.23113 489.95792 415.23047 483.38867 L 409.55859 483.38867 L 409.55859 479.79883 L 405.7793 479.79883 L 405.7793 481.87891 L 405.7793 483.58008 L 401.99805 483.58008 L 401.99805 483.57812 L 352.86523 483.57812 L 352.86523 479.79883 C 361.68197 479.79883 366.72161 479.80349 375.54102 479.80078 L 375.54102 476.01953 L 367.98242 476.01953 L 367.98242 472.24023 L 375.54102 472.24023 L 375.54102 468.46094 L 352.86523 468.46094 L 352.86523 464.68164 L 401.99805 464.68164 L 405.7793 464.68164 L 405.7793 466.38281 L 405.7793 468.46094 L 409.55859 468.46094 L 409.55859 464.87109 L 415.22852 464.87109 C 415.22845 460.78896 415.22795 456.78957 415.22852 452.8457 C 407.35697 450.3703 402.00166 443.07385 402 434.82227 C 402.0102 426.57789 407.36385 419.29159 415.22852 416.81836 L 415.22852 404.77539 L 409.55859 404.77539 L 409.55859 401.18555 L 405.7793 401.18555 L 405.7793 403.26562 L 405.7793 404.9668 L 401.99805 404.9668 L 401.99805 404.96484 L 352.86523 404.96484 L 352.86523 401.18555 C 361.68197 401.18555 366.72162 401.19021 375.54102 401.1875 L 375.54102 397.40625 L 367.98242 397.40625 L 367.98242 393.62695 L 375.54102 393.62695 L 375.54102 389.84766 L 352.86523 389.84766 L 352.86523 386.06836 L 401.99805 386.06836 L 405.7793 386.06836 L 405.7793 387.76953 L 405.7793 389.84766 L 409.55859 389.84766 L 409.55859 386.25781 L 415.22852 386.25781 L 415.22852 366.79102 L 419.19727 366.79102 L 419.19727 359.23242 L 345.30664 359.23242 z M 422.59766 359.23242 L 422.59766 366.79102 L 426.56836 366.79102 L 426.56836 386.25781 L 432.23633 386.25781 L 432.23633 389.84766 L 436.01367 389.84766 L 473.81055 389.84766 L 473.81055 401.18555 L 436.01367 401.18555 L 432.23633 401.18555 L 432.23633 404.77539 L 426.56836 404.77539 L 426.56836 416.80078 C 434.43843 419.27666 439.79265 426.57193 439.79492 434.82227 C 439.78502 443.06613 434.43227 450.35224 426.56836 452.82617 L 426.56836 464.87109 L 432.23633 464.87109 L 432.23633 468.46094 L 436.01367 468.46094 L 473.81055 468.46094 L 473.81055 479.79883 L 436.01367 479.79883 L 432.23633 479.79883 L 432.23633 483.38867 L 426.56836 483.38867 L 426.56836 502.85352 L 422.59766 502.85352 L 422.59766 510.41406 L 496.48828 510.41406 L 496.48828 359.23242 L 422.59766 359.23242 z M 360.42383 370.75977 A 3.5905496 3.5905496 0 0 1 364.01367 374.34961 A 3.5905496 3.5905496 0 0 1 360.42383 377.94141 A 3.5905496 3.5905496 0 0 1 356.83398 374.34961 A 3.5905496 3.5905496 0 0 1 360.42383 370.75977 z M 481.36914 370.75977 A 3.5905496 3.5905496 0 0 1 484.95898 374.34961 A 3.5905496 3.5905496 0 0 1 481.36914 377.94141 A 3.5905496 3.5905496 0 0 1 477.7793 374.34961 A 3.5905496 3.5905496 0 0 1 481.36914 370.75977 z M 481.37109 388.14453 L 487.41797 388.14453 L 487.41797 402.88672 L 481.37109 402.88672 L 481.37109 388.14453 z M 481.37109 466.75781 L 487.41797 466.75781 L 487.41797 481.5 L 481.37109 481.5 L 481.37109 466.75781 z M 360.42383 491.70508 A 3.5905496 3.5905496 0 0 1 364.01367 495.29492 A 3.5905496 3.5905496 0 0 1 360.42383 498.88477 A 3.5905496 3.5905496 0 0 1 356.83398 495.29492 A 3.5905496 3.5905496 0 0 1 360.42383 491.70508 z M 481.36914 491.70508 A 3.5905496 3.5905496 0 0 1 484.95898 495.29492 A 3.5905496 3.5905496 0 0 1 481.36914 498.88477 A 3.5905496 3.5905496 0 0 1 477.7793 495.29492 A 3.5905496 3.5905496 0 0 1 481.36914 491.70508 z "
       transform="matrix(0.26458333,0,0,0.26458333,0,-103)"
       id="rect2799" />
    <path
       sodipodi:nodetypes="cccccccccccccc"
       inkscape:connector-curvature="0"
       id="path2884"
       d="m 142.86472,22.886607 h -0.90021 -1.10019 v 5.99979 h -4.99969 v -5.99979 h -1.10019 -0.90021 v 6.99973 h 2.0004 4.99969 1.10019 0.90021 z"
       style="fill:none;stroke:#000000;stroke-width:0;stroke-miterlimit:4;stroke-dasharray:none;stroke-opacity:1" />
    <path
       style="fill:none;stroke:#000000;stroke-width:0;stroke-miterlimit:4;stroke-dasharray:none;stroke-opacity:1"
       d="m 133.86423,20.327802 h 2.99982 v 5.3e-4 1.49994 h 0.99994 v -1.49994 h 6.00015 v -1.00046 h -5.00021 V 7.3280916 h 5.00021 v -0.99994 h -6.00015 v -2.99988 h -0.99994 v 2.99988 5.3e-4 h -2.99982 v 0.99994 h 2.99982 v 5.5495304 h 0.44958 c 0.24861,-6e-5 0.45016,0.20149 0.4501,0.4501 6e-5,0.24861 -0.20149,0.45016 -0.4501,0.4501 h -0.44958 v 5.54953 h -2.99982 z"
       id="path2886"
       inkscape:connector-curvature="0"
       sodipodi:nodetypes="cccccccccccccccccccccccccccc" />
    <path
       inkscape:connector-curvature="0"
       id="path2888"
       d="M 139.92227,-7.9532093 V 2.2699405 h 0.99993 v -7.0000298 l 1.49924,-1 1.50058,1 v 7.0000298 h 0.99995 V -7.9532093 h -0.99995 v 1.22318 h -2.99982 v -1.22318 z"
       style="fill:none;stroke:#000000;stroke-width:0;stroke-miterlimit:4;stroke-dasharray:none;stroke-opacity:1"
       sodipodi:nodetypes="cccccccccccccc" />
    <path
       inkscape:connector-curvature="0"
       id="path2890"
       d="m 140.35064,22.886607 h -0.99995 -1.99986 -0.99995 v 0.99994 4.00027 h 0.99995 v -4.00027 h 1.99986 v 4.00027 h 0.99995 v -4.00027 z"
       style="fill:none;stroke:#000000;stroke-width:0;stroke-miterlimit:4;stroke-dasharray:none;stroke-opacity:1" />
    <path
       style="fill:none;stroke:#000000;stroke-width:0;stroke-miterlimit:4;stroke-dasharray:none;stroke-opacity:1"
       d="m 144.92248,8.386425 h -0.99993 c 0,2.33324 0,4.666491 0,6.999731 h -2.99988 c 0,-2.33324 0,-4.666491 0,-6.999731 h -0.99994 c 0,2.33324 0,4.666491 0,6.999731 v 1.99994 h 0.99994 2.99988 0.99993 v -1.99994 c 0,-2.33324 0,-4.666491 0,-6.999731 z"
       id="path2892"
       inkscape:connector-curvature="0"
       sodipodi:nodetypes="ccccccccccccc" />
    <path
       style="fill:none;stroke:#000000;stroke-width:0;stroke-miterlimit:4;stroke-dasharray:none;stroke-opacity:1"
       d="m 137.01408,-0.73006183 -0.49999,1.5 0.49999,1.50000003 h -1.30001 v -3.00000003 z"
       id="path2894"
       inkscape:connector-curvature="0"
       sodipodi:nodetypes="cccccc" />
    <path
       sodipodi:nodetypes="cccccccccccccc"
       style="fill:none;stroke:#000000;stroke-width:0;stroke-miterlimit:4;stroke-dasharray:none;stroke-opacity:1"
       d="m 133.86423,-7.9532118 v 10.22315 h 0.99993 v -7.00003 l 1.49924,-1 1.50058,1 v 7.00003 h 0.99995 v -10.22315 h -0.99995 v 1.22318 h -2.99982 v -1.22318 z"
       id="path2896"
       inkscape:connector-curvature="0" />
    <path
       sodipodi:nodetypes="cccccc"
       inkscape:connector-curvature="0"
       id="path2898"
       d="m 143.07212,-0.73005947 -0.49999,1.5 0.49999,1.49999997 h -1.30001 v -2.99999997 z"
       style="fill:none;stroke:#000000;stroke-width:0;stroke-miterlimit:4;stroke-dasharray:none;stroke-opacity:1" />
    <path
       style="fill:none;stroke:#000000;stroke-width:0;stroke-miterlimit:4;stroke-dasharray:none;stroke-opacity:1"
       d="m 142.86472,66.067338 h -0.90021 -1.10019 v 5.99979 h -4.99969 v -5.99979 h -1.10019 -0.90021 v 6.99973 h 2.0004 4.99969 1.10019 0.90021 z"
       id="path2936"
       inkscape:connector-curvature="0"
       sodipodi:nodetypes="cccccccccccccc" />
    <path
       sodipodi:nodetypes="cccccccccccccccccccccccccccc"
       inkscape:connector-curvature="0"
       id="path2938"
       d="m 133.86423,63.508533 h 2.99982 v 5.3e-4 1.49994 h 0.99994 v -1.49994 h 6.00015 v -1.00046 h -5.00021 V 50.508822 h 5.00021 v -0.99994 h -6.00015 v -2.99988 h -0.99994 v 2.99988 5.3e-4 h -2.99982 v 0.99994 h 2.99982 v 5.549531 h 0.44958 c 0.24861,-6e-5 0.45016,0.20149 0.4501,0.4501 6e-5,0.24861 -0.20149,0.45016 -0.4501,0.4501 h -0.44958 v 5.54953 h -2.99982 z"
       style="fill:none;stroke:#000000;stroke-width:0;stroke-miterlimit:4;stroke-dasharray:none;stroke-opacity:1" />
    <path
       sodipodi:nodetypes="cccccccccccccc"
       style="fill:none;stroke:#000000;stroke-width:0;stroke-miterlimit:4;stroke-dasharray:none;stroke-opacity:1"
       d="m 139.92227,35.227521 v 10.22315 h 0.99993 v -7.00003 l 1.49924,-1 1.50058,1 v 7.00003 h 0.99995 v -10.22315 h -0.99995 v 1.22318 h -2.99982 v -1.22318 z"
       id="path2940"
       inkscape:connector-curvature="0" />
    <path
       style="fill:none;stroke:#000000;stroke-width:0;stroke-miterlimit:4;stroke-dasharray:none;stroke-opacity:1"
       d="m 140.35064,66.067338 h -0.99995 -1.99986 -0.99995 v 0.99994 4.00027 h 0.99995 v -4.00027 h 1.99986 v 4.00027 h 0.99995 v -4.00027 z"
       id="path2942"
       inkscape:connector-curvature="0" />
    <path
       sodipodi:nodetypes="ccccccccccccc"
       inkscape:connector-curvature="0"
       id="path2944"
       d="m 144.92248,51.567156 h -0.99993 c 0,2.33324 0,4.666491 0,6.999731 h -2.99988 c 0,-2.33324 0,-4.666491 0,-6.999731 h -0.99994 c 0,2.33324 0,4.666491 0,6.999731 v 1.99994 h 0.99994 2.99988 0.99993 v -1.99994 c 0,-2.33324 0,-4.666491 0,-6.999731 z"
       style="fill:none;stroke:#000000;stroke-width:0;stroke-miterlimit:4;stroke-dasharray:none;stroke-opacity:1" />
    <path
       sodipodi:nodetypes="cccccc"
       inkscape:connector-curvature="0"
       id="path2946"
       d="m 137.01408,42.450669 -0.49999,1.5 0.49999,1.5 h -1.30001 v -3 z"
       style="fill:none;stroke:#000000;stroke-width:0;stroke-miterlimit:4;stroke-dasharray:none;stroke-opacity:1" />
    <path
       inkscape:connector-curvature="0"
       id="path2948"
       d="m 133.86423,35.227519 v 10.22315 h 0.99993 v -7.00003 l 1.49924,-1 1.50058,1 v 7.00003 h 0.99995 v -10.22315 h -0.99995 v 1.22318 h -2.99982 v -1.22318 z"
       style="fill:none;stroke:#000000;stroke-width:0;stroke-miterlimit:4;stroke-dasharray:none;stroke-opacity:1"
       sodipodi:nodetypes="cccccccccccccc" />
    <path
       style="fill:none;stroke:#000000;stroke-width:0;stroke-miterlimit:4;stroke-dasharray:none;stroke-opacity:1"
       d="m 143.07212,42.450671 -0.49999,1.5 0.49999,1.5 h -1.30001 v -3 z"
       id="path2950"
       inkscape:connector-curvature="0"
       sodipodi:nodetypes="cccccc" />
  </g>
</svg>
