  0
SECTION
  2
HEADER
  9
$ACADVER
  1
AC1014
  9
$HANDSEED
  5
FFFF
  9
$MEASUREMENT
 70
     1
  0
ENDSEC
  0
SECTION
  2
TABLES
  0
TABLE
  2
VPORT
  5
8
330
0
100
AcDbSymbolTable
 70
     4
  0
VPORT
  5
2E
330
8
100
AcDbSymbolTableRecord
100
AcDbViewportTableRecord
  2
*ACTIVE
 70
     0
 10
0.0
 20
0.0
 11
1.0
 21
1.0
 12
210.0
 22
148.5
 13
0.0
 23
0.0
 14
10.0
 24
10.0
 15
10.0
 25
10.0
 16
0.0
 26
0.0
 36
1.0
 17
0.0
 27
0.0
 37
0.0
 40
341.0
 41
1.24
 42
50.0
 43
0.0
 44
0.0
 50
0.0
 51
0.0
 71
     0
 72
   100
 73
     1
 74
     3
 75
     0
 76
     0
 77
     0
 78
     0
  0
ENDTAB
  0
TABLE
  2
LTYPE
  5
5
330
0
100
AcDbSymbolTable
 70
     1
  0
LTYPE
  5
14
330
5
100
AcDbSymbolTableRecord
100
AcDbLinetypeTableRecord
  2
BYBLOCK
 70
     0
  3

 72
    65
 73
     0
 40
0.0
  0
LTYPE
  5
15
330
5
100
AcDbSymbolTableRecord
100
AcDbLinetypeTableRecord
  2
BYLAYER
 70
     0
  3

 72
    65
 73
     0
 40
0.0
  0
LTYPE
  5
16
330
5
100
AcDbSymbolTableRecord
100
AcDbLinetypeTableRecord
  2
CONTINUOUS
 70
     0
  3
Solid line
 72
    65
 73
     0
 40
0.0
  0
ENDTAB
  0
TABLE
  2
LAYER
  5
2
100
AcDbSymbolTable
 70
2
  0
LAYER
  5
50
100
AcDbSymbolTableRecord
100
AcDbLayerTableRecord
  2
0
 70
0
  6
CONTINUOUS
  0
LAYER
  5
51
100
AcDbSymbolTableRecord
100
AcDbLayerTableRecord
  2
Layer_1
 70
0
  6
CONTINUOUS
  0
ENDTAB
  0
TABLE
  2
STYLE
  5
3
330
0
100
AcDbSymbolTable
 70
     1
  0
STYLE
  5
11
330
3
100
AcDbSymbolTableRecord
100
AcDbTextStyleTableRecord
  2
STANDARD
 70
     0
 40
0.0
 41
1.0
 50
0.0
 71
     0
 42
2.5
  3
txt
  4

  0
ENDTAB
  0
TABLE
  2
VIEW
  5
6
330
0
100
AcDbSymbolTable
 70
     0
  0
ENDTAB
  0
TABLE
  2
UCS
  5
7
330
0
100
AcDbSymbolTable
 70
     0
  0
ENDTAB
  0
TABLE
  2
APPID
  5
9
330
0
100
AcDbSymbolTable
 70
     2
  0
APPID
  5
12
330
9
100
AcDbSymbolTableRecord
100
AcDbRegAppTableRecord
  2
ACAD
 70
     0
  0
ENDTAB
  0
TABLE
  2
DIMSTYLE
  5
A
330
0
100
AcDbSymbolTable
 70
     1
  0
DIMSTYLE
105
27
330
A
100
AcDbSymbolTableRecord
100
AcDbDimStyleTableRecord
  2
ISO-25
 70
     0
  3

  4

  5

  6

  7

 40
1.0
 41
2.5
 42
0.625
 43
3.75
 44
1.25
 45
0.0
 46
0.0
 47
0.0
 48
0.0
140
2.5
141
2.5
142
0.0
143
0.03937007874016
144
1.0
145
0.0
146
1.0
147
0.625
 71
     0
 72
     0
 73
     0
 74
     0
 75
     0
 76
     0
 77
     1
 78
     8
170
     0
171
     3
172
     1
173
     0
174
     0
175
     0
176
     0
177
     0
178
     0
270
     2
271
     2
272
     2
273
     2
274
     3
340
11
275
     0
280
     0
281
     0
282
     0
283
     0
284
     8
285
     0
286
     0
287
     3
288
     0
  0
ENDTAB
  0
TABLE
  2
BLOCK_RECORD
  5
1
330
0
100
AcDbSymbolTable
 70
     1
  0
BLOCK_RECORD
  5
1F
330
1
100
AcDbSymbolTableRecord
100
AcDbBlockTableRecord
  2
*MODEL_SPACE
  0
BLOCK_RECORD
  5
1B
330
1
100
AcDbSymbolTableRecord
100
AcDbBlockTableRecord
  2
*PAPER_SPACE
  0
ENDTAB
  0
ENDSEC
  0
SECTION
  2
BLOCKS
  0
BLOCK
  5
20
330
1F
100
AcDbEntity
  8
0
100
AcDbBlockBegin
  2
*MODEL_SPACE
 70
     0
 10
0.0
 20
0.0
 30
0.0
  3
*MODEL_SPACE
  1

  0
ENDBLK
  5
21
330
1F
100
AcDbEntity
  8
0
100
AcDbBlockEnd
  0
BLOCK
  5
1C
330
1B
100
AcDbEntity
 67
     1
  8
0
100
AcDbBlockBegin
  2
*PAPER_SPACE
  1

  0
ENDBLK
  5
1D
330
1B
100
AcDbEntity
 67
     1
  8
0
100
AcDbBlockEnd
  0
ENDSEC
  0
SECTION
  2
ENTITIES
  0
LINE
  5
100
100
AcDbEntity
  8
Layer_1
 62
7
100
AcDbLine
 10
3.194637
 20
304.953090
 30
0.0
 11
3.194637
 21
264.953464
 31
0.0
  0
LINE
  5
101
100
AcDbEntity
  8
Layer_1
 62
7
100
AcDbLine
 10
3.194637
 20
264.953464
 30
0.0
 11
43.194779
 21
264.953464
 31
0.0
  0
LINE
  5
102
100
AcDbEntity
  8
Layer_1
 62
7
100
AcDbLine
 10
43.194779
 20
264.953464
 30
0.0
 11
43.194779
 21
304.953090
 31
0.0
  0
LINE
  5
103
100
AcDbEntity
  8
Layer_1
 62
7
100
AcDbLine
 10
43.194779
 20
304.953090
 30
0.0
 11
3.194637
 21
304.953090
 31
0.0
  0
LINE
  5
104
100
AcDbEntity
  8
Layer_1
 62
7
100
AcDbLine
 10
3.194637
 20
304.953090
 30
0.0
 11
3.194637
 21
304.953090
 31
0.0
  0
SPLINE
  5
105
100
AcDbEntity
  8
Layer_1
 62
7
100
AcDbSpline
 70
8
 71
3
 72
8
 73
4
 74
0
 40
0
 40
0
 40
0
 40
0
 40
1
 40
1
 40
1
 40
1
 10
7.194393
 20
301.903145
 30
0.0
 10
7.718917
 20
301.903042
 30
0.0
 10
8.144102
 20
301.477858
 30
0.0
 10
8.144206
 20
300.953334
 30
0.0
  0
SPLINE
  5
106
100
AcDbEntity
  8
Layer_1
 62
7
100
AcDbSpline
 70
8
 71
3
 72
8
 73
4
 74
0
 40
0
 40
0
 40
0
 40
0
 40
1
 40
1
 40
1
 40
1
 10
8.144206
 20
300.953334
 30
0.0
 10
8.144293
 20
300.701353
 30
0.0
 10
8.044269
 20
300.459660
 30
0.0
 10
7.866140
 20
300.281435
 30
0.0
  0
SPLINE
  5
107
100
AcDbEntity
  8
Layer_1
 62
7
100
AcDbSpline
 70
8
 71
3
 72
8
 73
4
 74
0
 40
0
 40
0
 40
0
 40
0
 40
1
 40
1
 40
1
 40
1
 10
7.866140
 20
300.281435
 30
0.0
 10
7.688012
 20
300.103209
 30
0.0
 10
7.446373
 20
300.003053
 30
0.0
 10
7.194393
 20
300.003003
 30
0.0
  0
SPLINE
  5
108
100
AcDbEntity
  8
Layer_1
 62
7
100
AcDbSpline
 70
8
 71
3
 72
8
 73
4
 74
0
 40
0
 40
0
 40
0
 40
0
 40
1
 40
1
 40
1
 40
1
 10
7.194393
 20
300.003003
 30
0.0
 10
6.942412
 20
300.003053
 30
0.0
 10
6.700774
 20
300.103209
 30
0.0
 10
6.522645
 20
300.281435
 30
0.0
  0
SPLINE
  5
109
100
AcDbEntity
  8
Layer_1
 62
7
100
AcDbSpline
 70
8
 71
3
 72
8
 73
4
 74
0
 40
0
 40
0
 40
0
 40
0
 40
1
 40
1
 40
1
 40
1
 10
6.522645
 20
300.281435
 30
0.0
 10
6.344517
 20
300.459660
 30
0.0
 10
6.244492
 20
300.701353
 30
0.0
 10
6.244580
 20
300.953334
 30
0.0
  0
SPLINE
  5
10a
100
AcDbEntity
  8
Layer_1
 62
7
100
AcDbSpline
 70
8
 71
3
 72
8
 73
4
 74
0
 40
0
 40
0
 40
0
 40
0
 40
1
 40
1
 40
1
 40
1
 10
6.244580
 20
300.953334
 30
0.0
 10
6.244684
 20
301.477858
 30
0.0
 10
6.669869
 20
301.903042
 30
0.0
 10
7.194393
 20
301.903145
 30
0.0
  0
LINE
  5
10b
100
AcDbEntity
  8
Layer_1
 62
7
100
AcDbLine
 10
7.194393
 20
301.903145
 30
0.0
 11
7.194393
 21
301.903145
 31
0.0
  0
SPLINE
  5
10c
100
AcDbEntity
  8
Layer_1
 62
7
100
AcDbSpline
 70
8
 71
3
 72
8
 73
4
 74
0
 40
0
 40
0
 40
0
 40
0
 40
1
 40
1
 40
1
 40
1
 10
39.194507
 20
301.903145
 30
0.0
 10
39.719030
 20
301.903042
 30
0.0
 10
40.144215
 20
301.477857
 30
0.0
 10
40.144318
 20
300.953334
 30
0.0
  0
SPLINE
  5
10d
100
AcDbEntity
  8
Layer_1
 62
7
100
AcDbSpline
 70
8
 71
3
 72
8
 73
4
 74
0
 40
0
 40
0
 40
0
 40
0
 40
1
 40
1
 40
1
 40
1
 10
40.144318
 20
300.953334
 30
0.0
 10
40.144406
 20
300.701353
 30
0.0
 10
40.044382
 20
300.459661
 30
0.0
 10
39.866253
 20
300.281435
 30
0.0
  0
SPLINE
  5
10e
100
AcDbEntity
  8
Layer_1
 62
7
100
AcDbSpline
 70
8
 71
3
 72
8
 73
4
 74
0
 40
0
 40
0
 40
0
 40
0
 40
1
 40
1
 40
1
 40
1
 10
39.866253
 20
300.281435
 30
0.0
 10
39.688125
 20
300.103209
 30
0.0
 10
39.446487
 20
300.003053
 30
0.0
 10
39.194507
 20
300.003003
 30
0.0
  0
SPLINE
  5
10f
100
AcDbEntity
  8
Layer_1
 62
7
100
AcDbSpline
 70
8
 71
3
 72
8
 73
4
 74
0
 40
0
 40
0
 40
0
 40
0
 40
1
 40
1
 40
1
 40
1
 10
39.194507
 20
300.003003
 30
0.0
 10
38.942526
 20
300.003053
 30
0.0
 10
38.700888
 20
300.103209
 30
0.0
 10
38.522760
 20
300.281435
 30
0.0
  0
SPLINE
  5
110
100
AcDbEntity
  8
Layer_1
 62
7
100
AcDbSpline
 70
8
 71
3
 72
8
 73
4
 74
0
 40
0
 40
0
 40
0
 40
0
 40
1
 40
1
 40
1
 40
1
 10
38.522760
 20
300.281435
 30
0.0
 10
38.344632
 20
300.459661
 30
0.0
 10
38.244607
 20
300.701353
 30
0.0
 10
38.244695
 20
300.953334
 30
0.0
  0
SPLINE
  5
111
100
AcDbEntity
  8
Layer_1
 62
7
100
AcDbSpline
 70
8
 71
3
 72
8
 73
4
 74
0
 40
0
 40
0
 40
0
 40
0
 40
1
 40
1
 40
1
 40
1
 10
38.244695
 20
300.953334
 30
0.0
 10
38.244799
 20
301.477857
 30
0.0
 10
38.669983
 20
301.903042
 30
0.0
 10
39.194507
 20
301.903145
 30
0.0
  0
LINE
  5
112
100
AcDbEntity
  8
Layer_1
 62
7
100
AcDbLine
 10
39.194507
 20
301.903145
 30
0.0
 11
39.194507
 21
301.903145
 31
0.0
  0
LINE
  5
113
100
AcDbEntity
  8
Layer_1
 62
7
100
AcDbLine
 10
20.194633
 20
297.803138
 30
0.0
 11
26.194783
 21
297.803138
 31
0.0
  0
LINE
  5
114
100
AcDbEntity
  8
Layer_1
 62
7
100
AcDbLine
 10
26.194783
 20
297.803138
 30
0.0
 11
26.194783
 21
296.902936
 31
0.0
  0
LINE
  5
115
100
AcDbEntity
  8
Layer_1
 62
7
100
AcDbLine
 10
26.194783
 20
296.902936
 30
0.0
 11
20.194633
 21
296.902936
 31
0.0
  0
LINE
  5
116
100
AcDbEntity
  8
Layer_1
 62
7
100
AcDbLine
 10
20.194633
 20
296.902936
 30
0.0
 11
20.194633
 21
297.803138
 31
0.0
  0
LINE
  5
117
100
AcDbEntity
  8
Layer_1
 62
7
100
AcDbLine
 10
20.194633
 20
297.803138
 30
0.0
 11
20.194633
 21
297.803138
 31
0.0
  0
LINE
  5
118
100
AcDbEntity
  8
Layer_1
 62
7
100
AcDbLine
 10
39.195023
 20
297.303428
 30
0.0
 11
40.794926
 21
297.303428
 31
0.0
  0
LINE
  5
119
100
AcDbEntity
  8
Layer_1
 62
7
100
AcDbLine
 10
40.794926
 20
297.303428
 30
0.0
 11
40.794926
 21
293.402890
 31
0.0
  0
LINE
  5
11a
100
AcDbEntity
  8
Layer_1
 62
7
100
AcDbLine
 10
40.794926
 20
293.402890
 30
0.0
 11
39.195023
 21
293.402890
 31
0.0
  0
LINE
  5
11b
100
AcDbEntity
  8
Layer_1
 62
7
100
AcDbLine
 10
39.195023
 20
293.402890
 30
0.0
 11
39.195023
 21
297.303428
 31
0.0
  0
LINE
  5
11c
100
AcDbEntity
  8
Layer_1
 62
7
100
AcDbLine
 10
39.195023
 20
297.303428
 30
0.0
 11
39.195023
 21
297.303428
 31
0.0
  0
LINE
  5
11d
100
AcDbEntity
  8
Layer_1
 62
7
100
AcDbLine
 10
14.194999
 20
296.852808
 30
0.0
 11
19.194694
 21
296.852808
 31
0.0
  0
LINE
  5
11e
100
AcDbEntity
  8
Layer_1
 62
7
100
AcDbLine
 10
19.194694
 20
296.852808
 30
0.0
 11
19.194694
 21
293.852991
 31
0.0
  0
LINE
  5
11f
100
AcDbEntity
  8
Layer_1
 62
7
100
AcDbLine
 10
19.194694
 20
293.852991
 30
0.0
 11
14.194999
 21
293.852991
 31
0.0
  0
LINE
  5
120
100
AcDbEntity
  8
Layer_1
 62
7
100
AcDbLine
 10
14.194999
 20
293.852991
 30
0.0
 11
14.194999
 21
296.852808
 31
0.0
  0
LINE
  5
121
100
AcDbEntity
  8
Layer_1
 62
7
100
AcDbLine
 10
14.194999
 20
296.852808
 30
0.0
 11
14.194999
 21
296.852808
 31
0.0
  0
LINE
  5
122
100
AcDbEntity
  8
Layer_1
 62
7
100
AcDbLine
 10
27.194721
 20
296.852808
 30
0.0
 11
32.194418
 21
296.852808
 31
0.0
  0
LINE
  5
123
100
AcDbEntity
  8
Layer_1
 62
7
100
AcDbLine
 10
32.194418
 20
296.852808
 30
0.0
 11
32.194418
 21
293.852991
 31
0.0
  0
LINE
  5
124
100
AcDbEntity
  8
Layer_1
 62
7
100
AcDbLine
 10
32.194418
 20
293.852991
 30
0.0
 11
27.194721
 21
293.852991
 31
0.0
  0
LINE
  5
125
100
AcDbEntity
  8
Layer_1
 62
7
100
AcDbLine
 10
27.194721
 20
293.852991
 30
0.0
 11
27.194721
 21
296.852808
 31
0.0
  0
LINE
  5
126
100
AcDbEntity
  8
Layer_1
 62
7
100
AcDbLine
 10
27.194721
 20
296.852808
 30
0.0
 11
27.194721
 21
296.852808
 31
0.0
  0
LINE
  5
127
100
AcDbEntity
  8
Layer_1
 62
7
100
AcDbLine
 10
20.194633
 20
293.802866
 30
0.0
 11
26.194783
 21
293.802866
 31
0.0
  0
LINE
  5
128
100
AcDbEntity
  8
Layer_1
 62
7
100
AcDbLine
 10
26.194783
 20
293.802866
 30
0.0
 11
26.194783
 21
292.903179
 31
0.0
  0
LINE
  5
129
100
AcDbEntity
  8
Layer_1
 62
7
100
AcDbLine
 10
26.194783
 20
292.903179
 30
0.0
 11
20.194633
 21
292.903179
 31
0.0
  0
LINE
  5
12a
100
AcDbEntity
  8
Layer_1
 62
7
100
AcDbLine
 10
20.194633
 20
292.903179
 30
0.0
 11
20.194633
 21
293.802866
 31
0.0
  0
LINE
  5
12b
100
AcDbEntity
  8
Layer_1
 62
7
100
AcDbLine
 10
20.194633
 20
293.802866
 30
0.0
 11
20.194633
 21
293.802866
 31
0.0
  0
SPLINE
  5
12c
100
AcDbEntity
  8
Layer_1
 62
7
100
AcDbSpline
 70
8
 71
3
 72
8
 73
4
 74
0
 40
0
 40
0
 40
0
 40
0
 40
1
 40
1
 40
1
 40
1
 10
23.194449
 20
291.953368
 30
0.0
 10
25.050996
 20
291.953391
 30
0.0
 10
26.831510
 20
291.215891
 30
0.0
 10
28.144287
 20
289.903114
 30
0.0
  0
SPLINE
  5
12d
100
AcDbEntity
  8
Layer_1
 62
7
100
AcDbSpline
 70
8
 71
3
 72
8
 73
4
 74
0
 40
0
 40
0
 40
0
 40
0
 40
1
 40
1
 40
1
 40
1
 10
28.144287
 20
289.903114
 30
0.0
 10
29.457063
 20
288.590337
 30
0.0
 10
30.194563
 20
286.809823
 30
0.0
 10
30.194538
 20
284.953276
 30
0.0
  0
SPLINE
  5
12e
100
AcDbEntity
  8
Layer_1
 62
7
100
AcDbSpline
 70
8
 71
3
 72
8
 73
4
 74
0
 40
0
 40
0
 40
0
 40
0
 40
1
 40
1
 40
1
 40
1
 10
30.194538
 20
284.953276
 30
0.0
 10
30.194562
 20
283.096730
 30
0.0
 10
29.457062
 20
281.316216
 30
0.0
 10
28.144286
 20
280.003439
 30
0.0
  0
SPLINE
  5
12f
100
AcDbEntity
  8
Layer_1
 62
7
100
AcDbSpline
 70
8
 71
3
 72
8
 73
4
 74
0
 40
0
 40
0
 40
0
 40
0
 40
1
 40
1
 40
1
 40
1
 10
28.144286
 20
280.003439
 30
0.0
 10
26.831509
 20
278.690663
 30
0.0
 10
25.050996
 20
277.953163
 30
0.0
 10
23.194449
 20
277.953187
 30
0.0
  0
SPLINE
  5
130
100
AcDbEntity
  8
Layer_1
 62
7
100
AcDbSpline
 70
8
 71
3
 72
8
 73
4
 74
0
 40
0
 40
0
 40
0
 40
0
 40
1
 40
1
 40
1
 40
1
 10
23.194449
 20
277.953187
 30
0.0
 10
19.328588
 20
277.953422
 30
0.0
 10
16.194827
 20
281.087415
 30
0.0
 10
16.194877
 20
284.953276
 30
0.0
  0
SPLINE
  5
131
100
AcDbEntity
  8
Layer_1
 62
7
100
AcDbSpline
 70
8
 71
3
 72
8
 73
4
 74
0
 40
0
 40
0
 40
0
 40
0
 40
1
 40
1
 40
1
 40
1
 10
16.194877
 20
284.953276
 30
0.0
 10
16.194826
 20
288.819138
 30
0.0
 10
19.328587
 20
291.953132
 30
0.0
 10
23.194449
 20
291.953368
 30
0.0
  0
LINE
  5
132
100
AcDbEntity
  8
Layer_1
 62
7
100
AcDbLine
 10
23.194449
 20
291.953368
 30
0.0
 11
23.194449
 21
291.953368
 31
0.0
  0
LINE
  5
133
100
AcDbEntity
  8
Layer_1
 62
7
100
AcDbLine
 10
20.194633
 20
277.003375
 30
0.0
 11
26.194783
 21
277.003375
 31
0.0
  0
LINE
  5
134
100
AcDbEntity
  8
Layer_1
 62
7
100
AcDbLine
 10
26.194783
 20
277.003375
 30
0.0
 11
26.194783
 21
276.103172
 31
0.0
  0
LINE
  5
135
100
AcDbEntity
  8
Layer_1
 62
7
100
AcDbLine
 10
26.194783
 20
276.103172
 30
0.0
 11
20.194633
 21
276.103172
 31
0.0
  0
LINE
  5
136
100
AcDbEntity
  8
Layer_1
 62
7
100
AcDbLine
 10
20.194633
 20
276.103172
 30
0.0
 11
20.194633
 21
277.003375
 31
0.0
  0
LINE
  5
137
100
AcDbEntity
  8
Layer_1
 62
7
100
AcDbLine
 10
20.194633
 20
277.003375
 30
0.0
 11
20.194633
 21
277.003375
 31
0.0
  0
LINE
  5
138
100
AcDbEntity
  8
Layer_1
 62
7
100
AcDbLine
 10
39.195023
 20
276.503664
 30
0.0
 11
40.794926
 21
276.503664
 31
0.0
  0
LINE
  5
139
100
AcDbEntity
  8
Layer_1
 62
7
100
AcDbLine
 10
40.794926
 20
276.503664
 30
0.0
 11
40.794926
 21
272.603127
 31
0.0
  0
LINE
  5
13a
100
AcDbEntity
  8
Layer_1
 62
7
100
AcDbLine
 10
40.794926
 20
272.603127
 30
0.0
 11
39.195023
 21
272.603127
 31
0.0
  0
LINE
  5
13b
100
AcDbEntity
  8
Layer_1
 62
7
100
AcDbLine
 10
39.195023
 20
272.603127
 30
0.0
 11
39.195023
 21
276.503664
 31
0.0
  0
LINE
  5
13c
100
AcDbEntity
  8
Layer_1
 62
7
100
AcDbLine
 10
39.195023
 20
276.503664
 30
0.0
 11
39.195023
 21
276.503664
 31
0.0
  0
LINE
  5
13d
100
AcDbEntity
  8
Layer_1
 62
7
100
AcDbLine
 10
14.194999
 20
276.053045
 30
0.0
 11
19.194694
 21
276.053045
 31
0.0
  0
LINE
  5
13e
100
AcDbEntity
  8
Layer_1
 62
7
100
AcDbLine
 10
19.194694
 20
276.053045
 30
0.0
 11
19.194694
 21
273.053228
 31
0.0
  0
LINE
  5
13f
100
AcDbEntity
  8
Layer_1
 62
7
100
AcDbLine
 10
19.194694
 20
273.053228
 30
0.0
 11
14.194999
 21
273.053228
 31
0.0
  0
LINE
  5
140
100
AcDbEntity
  8
Layer_1
 62
7
100
AcDbLine
 10
14.194999
 20
273.053228
 30
0.0
 11
14.194999
 21
276.053045
 31
0.0
  0
LINE
  5
141
100
AcDbEntity
  8
Layer_1
 62
7
100
AcDbLine
 10
14.194999
 20
276.053045
 30
0.0
 11
14.194999
 21
276.053045
 31
0.0
  0
LINE
  5
142
100
AcDbEntity
  8
Layer_1
 62
7
100
AcDbLine
 10
27.194721
 20
276.053045
 30
0.0
 11
32.194418
 21
276.053045
 31
0.0
  0
LINE
  5
143
100
AcDbEntity
  8
Layer_1
 62
7
100
AcDbLine
 10
32.194418
 20
276.053045
 30
0.0
 11
32.194418
 21
273.053228
 31
0.0
  0
LINE
  5
144
100
AcDbEntity
  8
Layer_1
 62
7
100
AcDbLine
 10
32.194418
 20
273.053228
 30
0.0
 11
27.194721
 21
273.053228
 31
0.0
  0
LINE
  5
145
100
AcDbEntity
  8
Layer_1
 62
7
100
AcDbLine
 10
27.194721
 20
273.053228
 30
0.0
 11
27.194721
 21
276.053045
 31
0.0
  0
LINE
  5
146
100
AcDbEntity
  8
Layer_1
 62
7
100
AcDbLine
 10
27.194721
 20
276.053045
 30
0.0
 11
27.194721
 21
276.053045
 31
0.0
  0
LINE
  5
147
100
AcDbEntity
  8
Layer_1
 62
7
100
AcDbLine
 10
20.194633
 20
273.003103
 30
0.0
 11
26.194783
 21
273.003103
 31
0.0
  0
LINE
  5
148
100
AcDbEntity
  8
Layer_1
 62
7
100
AcDbLine
 10
26.194783
 20
273.003103
 30
0.0
 11
26.194783
 21
272.103416
 31
0.0
  0
LINE
  5
149
100
AcDbEntity
  8
Layer_1
 62
7
100
AcDbLine
 10
26.194783
 20
272.103416
 30
0.0
 11
20.194633
 21
272.103416
 31
0.0
  0
LINE
  5
14a
100
AcDbEntity
  8
Layer_1
 62
7
100
AcDbLine
 10
20.194633
 20
272.103416
 30
0.0
 11
20.194633
 21
273.003103
 31
0.0
  0
LINE
  5
14b
100
AcDbEntity
  8
Layer_1
 62
7
100
AcDbLine
 10
20.194633
 20
273.003103
 30
0.0
 11
20.194633
 21
273.003103
 31
0.0
  0
SPLINE
  5
14c
100
AcDbEntity
  8
Layer_1
 62
7
100
AcDbSpline
 70
8
 71
3
 72
8
 73
4
 74
0
 40
0
 40
0
 40
0
 40
0
 40
1
 40
1
 40
1
 40
1
 10
7.194393
 20
269.903033
 30
0.0
 10
7.718917
 20
269.902929
 30
0.0
 10
8.144102
 20
269.477745
 30
0.0
 10
8.144206
 20
268.953221
 30
0.0
  0
SPLINE
  5
14d
100
AcDbEntity
  8
Layer_1
 62
7
100
AcDbSpline
 70
8
 71
3
 72
8
 73
4
 74
0
 40
0
 40
0
 40
0
 40
0
 40
1
 40
1
 40
1
 40
1
 10
8.144206
 20
268.953221
 30
0.0
 10
8.144103
 20
268.428696
 30
0.0
 10
7.718918
 20
268.003509
 30
0.0
 10
7.194393
 20
268.003406
 30
0.0
  0
SPLINE
  5
14e
100
AcDbEntity
  8
Layer_1
 62
7
100
AcDbSpline
 70
8
 71
3
 72
8
 73
4
 74
0
 40
0
 40
0
 40
0
 40
0
 40
1
 40
1
 40
1
 40
1
 10
7.194393
 20
268.003406
 30
0.0
 10
6.669868
 20
268.003509
 30
0.0
 10
6.244682
 20
268.428696
 30
0.0
 10
6.244580
 20
268.953221
 30
0.0
  0
SPLINE
  5
14f
100
AcDbEntity
  8
Layer_1
 62
7
100
AcDbSpline
 70
8
 71
3
 72
8
 73
4
 74
0
 40
0
 40
0
 40
0
 40
0
 40
1
 40
1
 40
1
 40
1
 10
6.244580
 20
268.953221
 30
0.0
 10
6.244684
 20
269.477745
 30
0.0
 10
6.669869
 20
269.902929
 30
0.0
 10
7.194393
 20
269.903033
 30
0.0
  0
LINE
  5
150
100
AcDbEntity
  8
Layer_1
 62
7
100
AcDbLine
 10
7.194393
 20
269.903033
 30
0.0
 11
7.194393
 21
269.903033
 31
0.0
  0
SPLINE
  5
151
100
AcDbEntity
  8
Layer_1
 62
7
100
AcDbSpline
 70
8
 71
3
 72
8
 73
4
 74
0
 40
0
 40
0
 40
0
 40
0
 40
1
 40
1
 40
1
 40
1
 10
39.194507
 20
269.903033
 30
0.0
 10
39.719030
 20
269.902929
 30
0.0
 10
40.144215
 20
269.477744
 30
0.0
 10
40.144318
 20
268.953221
 30
0.0
  0
SPLINE
  5
152
100
AcDbEntity
  8
Layer_1
 62
7
100
AcDbSpline
 70
8
 71
3
 72
8
 73
4
 74
0
 40
0
 40
0
 40
0
 40
0
 40
1
 40
1
 40
1
 40
1
 10
40.144318
 20
268.953221
 30
0.0
 10
40.144216
 20
268.428696
 30
0.0
 10
39.719031
 20
268.003510
 30
0.0
 10
39.194507
 20
268.003406
 30
0.0
  0
SPLINE
  5
153
100
AcDbEntity
  8
Layer_1
 62
7
100
AcDbSpline
 70
8
 71
3
 72
8
 73
4
 74
0
 40
0
 40
0
 40
0
 40
0
 40
1
 40
1
 40
1
 40
1
 10
39.194507
 20
268.003406
 30
0.0
 10
38.669982
 20
268.003510
 30
0.0
 10
38.244797
 20
268.428696
 30
0.0
 10
38.244695
 20
268.953221
 30
0.0
  0
SPLINE
  5
154
100
AcDbEntity
  8
Layer_1
 62
7
100
AcDbSpline
 70
8
 71
3
 72
8
 73
4
 74
0
 40
0
 40
0
 40
0
 40
0
 40
1
 40
1
 40
1
 40
1
 10
38.244695
 20
268.953221
 30
0.0
 10
38.244799
 20
269.477744
 30
0.0
 10
38.669983
 20
269.902929
 30
0.0
 10
39.194507
 20
269.903033
 30
0.0
  0
LINE
  5
155
100
AcDbEntity
  8
Layer_1
 62
7
100
AcDbLine
 10
39.194507
 20
269.903033
 30
0.0
 11
39.194507
 21
269.903033
 31
0.0
  0
LINE
  5
156
100
AcDbEntity
  8
Layer_1
 62
7
100
AcDbLine
 10
91.362381
 20
261.772262
 30
0.0
 11
91.362381
 21
221.772639
 31
0.0
  0
LINE
  5
157
100
AcDbEntity
  8
Layer_1
 62
7
100
AcDbLine
 10
91.362381
 20
221.772639
 30
0.0
 11
131.362006
 21
221.772639
 31
0.0
  0
LINE
  5
158
100
AcDbEntity
  8
Layer_1
 62
7
100
AcDbLine
 10
131.362006
 20
221.772639
 30
0.0
 11
131.362006
 21
261.772262
 31
0.0
  0
LINE
  5
159
100
AcDbEntity
  8
Layer_1
 62
7
100
AcDbLine
 10
131.362006
 20
261.772262
 30
0.0
 11
91.362381
 21
261.772262
 31
0.0
  0
LINE
  5
15a
100
AcDbEntity
  8
Layer_1
 62
7
100
AcDbLine
 10
91.362381
 20
261.772262
 30
0.0
 11
91.362381
 21
261.772262
 31
0.0
  0
SPLINE
  5
15b
100
AcDbEntity
  8
Layer_1
 62
7
100
AcDbSpline
 70
8
 71
3
 72
8
 73
4
 74
0
 40
0
 40
0
 40
0
 40
0
 40
1
 40
1
 40
1
 40
1
 10
111.362192
 20
258.572458
 30
0.0
 10
111.886717
 20
258.572356
 30
0.0
 10
112.311903
 20
258.147171
 30
0.0
 10
112.312007
 20
257.622646
 30
0.0
  0
SPLINE
  5
15c
100
AcDbEntity
  8
Layer_1
 62
7
100
AcDbSpline
 70
8
 71
3
 72
8
 73
4
 74
0
 40
0
 40
0
 40
0
 40
0
 40
1
 40
1
 40
1
 40
1
 10
112.312007
 20
257.622646
 30
0.0
 10
112.311903
 20
257.098121
 30
0.0
 10
111.886717
 20
256.672936
 30
0.0
 10
111.362192
 20
256.672834
 30
0.0
  0
SPLINE
  5
15d
100
AcDbEntity
  8
Layer_1
 62
7
100
AcDbSpline
 70
8
 71
3
 72
8
 73
4
 74
0
 40
0
 40
0
 40
0
 40
0
 40
1
 40
1
 40
1
 40
1
 10
111.362192
 20
256.672834
 30
0.0
 10
110.837669
 20
256.672938
 30
0.0
 10
110.412484
 20
257.098122
 30
0.0
 10
110.412380
 20
257.622646
 30
0.0
  0
SPLINE
  5
15e
100
AcDbEntity
  8
Layer_1
 62
7
100
AcDbSpline
 70
8
 71
3
 72
8
 73
4
 74
0
 40
0
 40
0
 40
0
 40
0
 40
1
 40
1
 40
1
 40
1
 10
110.412380
 20
257.622646
 30
0.0
 10
110.412484
 20
258.147170
 30
0.0
 10
110.837669
 20
258.572354
 30
0.0
 10
111.362192
 20
258.572458
 30
0.0
  0
LINE
  5
15f
100
AcDbEntity
  8
Layer_1
 62
7
100
AcDbLine
 10
111.362192
 20
258.572458
 30
0.0
 11
111.362192
 21
258.572458
 31
0.0
  0
SPLINE
  5
160
100
AcDbEntity
  8
Layer_1
 62
7
100
AcDbSpline
 70
8
 71
3
 72
8
 73
4
 74
0
 40
0
 40
0
 40
0
 40
0
 40
1
 40
1
 40
1
 40
1
 10
111.362192
 20
226.872586
 30
0.0
 10
111.886718
 20
226.872484
 30
0.0
 10
112.311905
 20
226.447297
 30
0.0
 10
112.312007
 20
225.922772
 30
0.0
  0
SPLINE
  5
161
100
AcDbEntity
  8
Layer_1
 62
7
100
AcDbSpline
 70
8
 71
3
 72
8
 73
4
 74
0
 40
0
 40
0
 40
0
 40
0
 40
1
 40
1
 40
1
 40
1
 10
112.312007
 20
225.922772
 30
0.0
 10
112.311903
 20
225.398247
 30
0.0
 10
111.886717
 20
224.973062
 30
0.0
 10
111.362192
 20
224.972960
 30
0.0
  0
SPLINE
  5
162
100
AcDbEntity
  8
Layer_1
 62
7
100
AcDbSpline
 70
8
 71
3
 72
8
 73
4
 74
0
 40
0
 40
0
 40
0
 40
0
 40
1
 40
1
 40
1
 40
1
 10
111.362192
 20
224.972960
 30
0.0
 10
110.837669
 20
224.973064
 30
0.0
 10
110.412484
 20
225.398248
 30
0.0
 10
110.412380
 20
225.922772
 30
0.0
  0
SPLINE
  5
163
100
AcDbEntity
  8
Layer_1
 62
7
100
AcDbSpline
 70
8
 71
3
 72
8
 73
4
 74
0
 40
0
 40
0
 40
0
 40
0
 40
1
 40
1
 40
1
 40
1
 10
110.412380
 20
225.922772
 30
0.0
 10
110.412483
 20
226.447296
 30
0.0
 10
110.837668
 20
226.872483
 30
0.0
 10
111.362192
 20
226.872586
 30
0.0
  0
LINE
  5
164
100
AcDbEntity
  8
Layer_1
 62
7
100
AcDbLine
 10
111.362192
 20
226.872586
 30
0.0
 11
111.362192
 21
226.872586
 31
0.0
  0
SPLINE
  5
165
100
AcDbEntity
  8
Layer_1
 62
7
100
AcDbSpline
 70
8
 71
3
 72
8
 73
4
 74
0
 40
0
 40
0
 40
0
 40
0
 40
1
 40
1
 40
1
 40
1
 10
95.362138
 20
258.722320
 30
0.0
 10
95.886662
 20
258.722218
 30
0.0
 10
96.311848
 20
258.297033
 30
0.0
 10
96.311952
 20
257.772509
 30
0.0
  0
SPLINE
  5
166
100
AcDbEntity
  8
Layer_1
 62
7
100
AcDbSpline
 70
8
 71
3
 72
8
 73
4
 74
0
 40
0
 40
0
 40
0
 40
0
 40
1
 40
1
 40
1
 40
1
 10
96.311952
 20
257.772509
 30
0.0
 10
96.312040
 20
257.520528
 30
0.0
 10
96.212015
 20
257.278835
 30
0.0
 10
96.033886
 20
257.100609
 30
0.0
  0
SPLINE
  5
167
100
AcDbEntity
  8
Layer_1
 62
7
100
AcDbSpline
 70
8
 71
3
 72
8
 73
4
 74
0
 40
0
 40
0
 40
0
 40
0
 40
1
 40
1
 40
1
 40
1
 10
96.033886
 20
257.100609
 30
0.0
 10
95.855758
 20
256.922383
 30
0.0
 10
95.614119
 20
256.822227
 30
0.0
 10
95.362138
 20
256.822178
 30
0.0
  0
SPLINE
  5
168
100
AcDbEntity
  8
Layer_1
 62
7
100
AcDbSpline
 70
8
 71
3
 72
8
 73
4
 74
0
 40
0
 40
0
 40
0
 40
0
 40
1
 40
1
 40
1
 40
1
 10
95.362138
 20
256.822178
 30
0.0
 10
95.110158
 20
256.822228
 30
0.0
 10
94.868519
 20
256.922384
 30
0.0
 10
94.690391
 20
257.100610
 30
0.0
  0
SPLINE
  5
169
100
AcDbEntity
  8
Layer_1
 62
7
100
AcDbSpline
 70
8
 71
3
 72
8
 73
4
 74
0
 40
0
 40
0
 40
0
 40
0
 40
1
 40
1
 40
1
 40
1
 10
94.690391
 20
257.100610
 30
0.0
 10
94.512262
 20
257.278836
 30
0.0
 10
94.412238
 20
257.520529
 30
0.0
 10
94.412326
 20
257.772509
 30
0.0
  0
SPLINE
  5
16a
100
AcDbEntity
  8
Layer_1
 62
7
100
AcDbSpline
 70
8
 71
3
 72
8
 73
4
 74
0
 40
0
 40
0
 40
0
 40
0
 40
1
 40
1
 40
1
 40
1
 10
94.412326
 20
257.772509
 30
0.0
 10
94.412430
 20
258.297032
 30
0.0
 10
94.837615
 20
258.722216
 30
0.0
 10
95.362138
 20
258.722320
 30
0.0
  0
LINE
  5
16b
100
AcDbEntity
  8
Layer_1
 62
7
100
AcDbLine
 10
95.362138
 20
258.722320
 30
0.0
 11
95.362138
 21
258.722320
 31
0.0
  0
SPLINE
  5
16c
100
AcDbEntity
  8
Layer_1
 62
7
100
AcDbSpline
 70
8
 71
3
 72
8
 73
4
 74
0
 40
0
 40
0
 40
0
 40
0
 40
1
 40
1
 40
1
 40
1
 10
127.362250
 20
258.722320
 30
0.0
 10
127.886777
 20
258.722221
 30
0.0
 10
128.311966
 20
258.297036
 30
0.0
 10
128.312070
 20
257.772509
 30
0.0
  0
SPLINE
  5
16d
100
AcDbEntity
  8
Layer_1
 62
7
100
AcDbSpline
 70
8
 71
3
 72
8
 73
4
 74
0
 40
0
 40
0
 40
0
 40
0
 40
1
 40
1
 40
1
 40
1
 10
128.312070
 20
257.772509
 30
0.0
 10
128.312158
 20
257.520527
 30
0.0
 10
128.212132
 20
257.278833
 30
0.0
 10
128.034002
 20
257.100607
 30
0.0
  0
SPLINE
  5
16e
100
AcDbEntity
  8
Layer_1
 62
7
100
AcDbSpline
 70
8
 71
3
 72
8
 73
4
 74
0
 40
0
 40
0
 40
0
 40
0
 40
1
 40
1
 40
1
 40
1
 10
128.034002
 20
257.100607
 30
0.0
 10
127.855872
 20
256.922381
 30
0.0
 10
127.614232
 20
256.822226
 30
0.0
 10
127.362250
 20
256.822178
 30
0.0
  0
SPLINE
  5
16f
100
AcDbEntity
  8
Layer_1
 62
7
100
AcDbSpline
 70
8
 71
3
 72
8
 73
4
 74
0
 40
0
 40
0
 40
0
 40
0
 40
1
 40
1
 40
1
 40
1
 10
127.362250
 20
256.822178
 30
0.0
 10
127.110270
 20
256.822228
 30
0.0
 10
126.868632
 20
256.922385
 30
0.0
 10
126.690504
 20
257.100611
 30
0.0
  0
SPLINE
  5
170
100
AcDbEntity
  8
Layer_1
 62
7
100
AcDbSpline
 70
8
 71
3
 72
8
 73
4
 74
0
 40
0
 40
0
 40
0
 40
0
 40
1
 40
1
 40
1
 40
1
 10
126.690504
 20
257.100611
 30
0.0
 10
126.512376
 20
257.278836
 30
0.0
 10
126.412352
 20
257.520529
 30
0.0
 10
126.412440
 20
257.772509
 30
0.0
  0
SPLINE
  5
171
100
AcDbEntity
  8
Layer_1
 62
7
100
AcDbSpline
 70
8
 71
3
 72
8
 73
4
 74
0
 40
0
 40
0
 40
0
 40
0
 40
1
 40
1
 40
1
 40
1
 10
126.412440
 20
257.772509
 30
0.0
 10
126.412544
 20
258.297032
 30
0.0
 10
126.837727
 20
258.722215
 30
0.0
 10
127.362250
 20
258.722320
 30
0.0
  0
LINE
  5
172
100
AcDbEntity
  8
Layer_1
 62
7
100
AcDbLine
 10
127.362250
 20
258.722320
 30
0.0
 11
127.362250
 21
258.722320
 31
0.0
  0
SPLINE
  5
173
100
AcDbEntity
  8
Layer_1
 62
7
100
AcDbSpline
 70
8
 71
3
 72
8
 73
4
 74
0
 40
0
 40
0
 40
0
 40
0
 40
1
 40
1
 40
1
 40
1
 10
111.362200
 20
244.222432
 30
0.0
 10
112.715283
 20
244.222421
 30
0.0
 10
113.812170
 20
243.125534
 30
0.0
 10
113.812180
 20
241.772451
 30
0.0
  0
SPLINE
  5
174
100
AcDbEntity
  8
Layer_1
 62
7
100
AcDbSpline
 70
8
 71
3
 72
8
 73
4
 74
0
 40
0
 40
0
 40
0
 40
0
 40
1
 40
1
 40
1
 40
1
 10
113.812180
 20
241.772451
 30
0.0
 10
113.812170
 20
240.419368
 30
0.0
 10
112.715283
 20
239.322481
 30
0.0
 10
111.362200
 20
239.322470
 30
0.0
  0
SPLINE
  5
175
100
AcDbEntity
  8
Layer_1
 62
7
100
AcDbSpline
 70
8
 71
3
 72
8
 73
4
 74
0
 40
0
 40
0
 40
0
 40
0
 40
1
 40
1
 40
1
 40
1
 10
111.362200
 20
239.322470
 30
0.0
 10
110.009117
 20
239.322481
 30
0.0
 10
108.912230
 20
240.419368
 30
0.0
 10
108.912220
 20
241.772451
 30
0.0
  0
SPLINE
  5
176
100
AcDbEntity
  8
Layer_1
 62
7
100
AcDbSpline
 70
8
 71
3
 72
8
 73
4
 74
0
 40
0
 40
0
 40
0
 40
0
 40
1
 40
1
 40
1
 40
1
 10
108.912220
 20
241.772451
 30
0.0
 10
108.912230
 20
243.125534
 30
0.0
 10
110.009117
 20
244.222421
 30
0.0
 10
111.362200
 20
244.222432
 30
0.0
  0
LINE
  5
177
100
AcDbEntity
  8
Layer_1
 62
7
100
AcDbLine
 10
111.362200
 20
244.222432
 30
0.0
 11
111.362200
 21
244.222432
 31
0.0
  0
SPLINE
  5
178
100
AcDbEntity
  8
Layer_1
 62
7
100
AcDbSpline
 70
8
 71
3
 72
8
 73
4
 74
0
 40
0
 40
0
 40
0
 40
0
 40
1
 40
1
 40
1
 40
1
 10
95.362138
 20
226.722208
 30
0.0
 10
95.886664
 20
226.722106
 30
0.0
 10
96.311850
 20
226.296919
 30
0.0
 10
96.311952
 20
225.772393
 30
0.0
  0
SPLINE
  5
179
100
AcDbEntity
  8
Layer_1
 62
7
100
AcDbSpline
 70
8
 71
3
 72
8
 73
4
 74
0
 40
0
 40
0
 40
0
 40
0
 40
1
 40
1
 40
1
 40
1
 10
96.311952
 20
225.772393
 30
0.0
 10
96.311848
 20
225.247868
 30
0.0
 10
95.886663
 20
224.822683
 30
0.0
 10
95.362138
 20
224.822581
 30
0.0
  0
SPLINE
  5
17a
100
AcDbEntity
  8
Layer_1
 62
7
100
AcDbSpline
 70
8
 71
3
 72
8
 73
4
 74
0
 40
0
 40
0
 40
0
 40
0
 40
1
 40
1
 40
1
 40
1
 10
95.362138
 20
224.822581
 30
0.0
 10
94.837614
 20
224.822685
 30
0.0
 10
94.412430
 20
225.247869
 30
0.0
 10
94.412326
 20
225.772393
 30
0.0
  0
SPLINE
  5
17b
100
AcDbEntity
  8
Layer_1
 62
7
100
AcDbSpline
 70
8
 71
3
 72
8
 73
4
 74
0
 40
0
 40
0
 40
0
 40
0
 40
1
 40
1
 40
1
 40
1
 10
94.412326
 20
225.772393
 30
0.0
 10
94.412428
 20
226.296918
 30
0.0
 10
94.837613
 20
226.722104
 30
0.0
 10
95.362138
 20
226.722208
 30
0.0
  0
LINE
  5
17c
100
AcDbEntity
  8
Layer_1
 62
7
100
AcDbLine
 10
95.362138
 20
226.722208
 30
0.0
 11
95.362138
 21
226.722208
 31
0.0
  0
SPLINE
  5
17d
100
AcDbEntity
  8
Layer_1
 62
7
100
AcDbSpline
 70
8
 71
3
 72
8
 73
4
 74
0
 40
0
 40
0
 40
0
 40
0
 40
1
 40
1
 40
1
 40
1
 10
127.362250
 20
226.722208
 30
0.0
 10
127.886778
 20
226.722109
 30
0.0
 10
128.311968
 20
226.296921
 30
0.0
 10
128.312070
 20
225.772393
 30
0.0
  0
SPLINE
  5
17e
100
AcDbEntity
  8
Layer_1
 62
7
100
AcDbSpline
 70
8
 71
3
 72
8
 73
4
 74
0
 40
0
 40
0
 40
0
 40
0
 40
1
 40
1
 40
1
 40
1
 10
128.312070
 20
225.772393
 30
0.0
 10
128.311966
 20
225.247866
 30
0.0
 10
127.886777
 20
224.822680
 30
0.0
 10
127.362250
 20
224.822581
 30
0.0
  0
SPLINE
  5
17f
100
AcDbEntity
  8
Layer_1
 62
7
100
AcDbSpline
 70
8
 71
3
 72
8
 73
4
 74
0
 40
0
 40
0
 40
0
 40
0
 40
1
 40
1
 40
1
 40
1
 10
127.362250
 20
224.822581
 30
0.0
 10
126.837727
 20
224.822686
 30
0.0
 10
126.412544
 20
225.247870
 30
0.0
 10
126.412440
 20
225.772393
 30
0.0
  0
SPLINE
  5
180
100
AcDbEntity
  8
Layer_1
 62
7
100
AcDbSpline
 70
8
 71
3
 72
8
 73
4
 74
0
 40
0
 40
0
 40
0
 40
0
 40
1
 40
1
 40
1
 40
1
 10
126.412440
 20
225.772393
 30
0.0
 10
126.412542
 20
226.296917
 30
0.0
 10
126.837726
 20
226.722103
 30
0.0
 10
127.362250
 20
226.722208
 30
0.0
  0
LINE
  5
181
100
AcDbEntity
  8
Layer_1
 62
7
100
AcDbLine
 10
127.362250
 20
226.722208
 30
0.0
 11
127.362250
 21
226.722208
 31
0.0
  0
LINE
  5
182
100
AcDbEntity
  8
Layer_1
 62
7
100
AcDbLine
 10
47.334577
 20
261.772262
 30
0.0
 11
47.334577
 21
221.772639
 31
0.0
  0
LINE
  5
183
100
AcDbEntity
  8
Layer_1
 62
7
100
AcDbLine
 10
47.334577
 20
221.772639
 30
0.0
 11
87.334719
 21
221.772639
 31
0.0
  0
LINE
  5
184
100
AcDbEntity
  8
Layer_1
 62
7
100
AcDbLine
 10
87.334719
 20
221.772639
 30
0.0
 11
87.334719
 21
261.772262
 31
0.0
  0
LINE
  5
185
100
AcDbEntity
  8
Layer_1
 62
7
100
AcDbLine
 10
87.334719
 20
261.772262
 30
0.0
 11
47.334577
 21
261.772262
 31
0.0
  0
LINE
  5
186
100
AcDbEntity
  8
Layer_1
 62
7
100
AcDbLine
 10
65.384637
 20
259.772386
 30
0.0
 11
65.834741
 21
259.772386
 31
0.0
  0
LINE
  5
187
100
AcDbEntity
  8
Layer_1
 62
7
100
AcDbLine
 10
65.834741
 20
259.772386
 30
0.0
 11
68.835073
 21
259.772386
 31
0.0
  0
LINE
  5
188
100
AcDbEntity
  8
Layer_1
 62
7
100
AcDbLine
 10
68.835073
 20
259.772386
 30
0.0
 11
69.284659
 21
259.772386
 31
0.0
  0
LINE
  5
189
100
AcDbEntity
  8
Layer_1
 62
7
100
AcDbLine
 10
69.284659
 20
259.772386
 30
0.0
 11
69.284659
 21
255.472391
 31
0.0
  0
LINE
  5
18a
100
AcDbEntity
  8
Layer_1
 62
7
100
AcDbLine
 10
69.284659
 20
255.472391
 30
0.0
 11
68.835073
 21
255.472391
 31
0.0
  0
LINE
  5
18b
100
AcDbEntity
  8
Layer_1
 62
7
100
AcDbLine
 10
68.835073
 20
255.472391
 30
0.0
 11
68.835073
 21
253.672499
 31
0.0
  0
LINE
  5
18c
100
AcDbEntity
  8
Layer_1
 62
7
100
AcDbLine
 10
68.835073
 20
253.672499
 30
0.0
 11
71.334663
 21
253.672499
 31
0.0
  0
LINE
  5
18d
100
AcDbEntity
  8
Layer_1
 62
7
100
AcDbLine
 10
71.334663
 20
253.672499
 30
0.0
 11
71.334663
 21
250.672166
 31
0.0
  0
LINE
  5
18e
100
AcDbEntity
  8
Layer_1
 62
7
100
AcDbLine
 10
71.334663
 20
250.672166
 30
0.0
 11
68.835073
 21
250.672166
 31
0.0
  0
LINE
  5
18f
100
AcDbEntity
  8
Layer_1
 62
7
100
AcDbLine
 10
68.835073
 20
250.672166
 30
0.0
 11
68.835073
 21
246.540634
 31
0.0
  0
SPLINE
  5
190
100
AcDbEntity
  8
Layer_1
 62
7
100
AcDbSpline
 70
8
 71
3
 72
8
 73
4
 74
0
 40
0
 40
0
 40
0
 40
0
 40
1
 40
1
 40
1
 40
1
 10
68.835073
 20
246.540634
 30
0.0
 10
70.917363
 20
245.885560
 30
0.0
 10
72.334000
 20
243.955353
 30
0.0
 10
72.334601
 20
241.772451
 30
0.0
  0
SPLINE
  5
191
100
AcDbEntity
  8
Layer_1
 62
7
100
AcDbSpline
 70
8
 71
3
 72
8
 73
4
 74
0
 40
0
 40
0
 40
0
 40
0
 40
1
 40
1
 40
1
 40
1
 10
72.334601
 20
241.772451
 30
0.0
 10
72.332001
 20
239.591263
 30
0.0
 10
70.915733
 20
237.663477
 30
0.0
 10
68.835073
 20
237.008916
 30
0.0
  0
LINE
  5
192
100
AcDbEntity
  8
Layer_1
 62
7
100
AcDbLine
 10
68.835073
 20
237.008916
 30
0.0
 11
68.835073
 21
232.872736
 31
0.0
  0
LINE
  5
193
100
AcDbEntity
  8
Layer_1
 62
7
100
AcDbLine
 10
68.835073
 20
232.872736
 30
0.0
 11
71.334663
 21
232.872736
 31
0.0
  0
LINE
  5
194
100
AcDbEntity
  8
Layer_1
 62
7
100
AcDbLine
 10
71.334663
 20
232.872736
 30
0.0
 11
71.334663
 21
229.872403
 31
0.0
  0
LINE
  5
195
100
AcDbEntity
  8
Layer_1
 62
7
100
AcDbLine
 10
71.334663
 20
229.872403
 30
0.0
 11
68.835073
 21
229.872403
 31
0.0
  0
LINE
  5
196
100
AcDbEntity
  8
Layer_1
 62
7
100
AcDbLine
 10
68.835073
 20
229.872403
 30
0.0
 11
68.835073
 21
228.072511
 31
0.0
  0
LINE
  5
197
100
AcDbEntity
  8
Layer_1
 62
7
100
AcDbLine
 10
68.835073
 20
228.072511
 30
0.0
 11
69.284659
 21
228.072511
 31
0.0
  0
LINE
  5
198
100
AcDbEntity
  8
Layer_1
 62
7
100
AcDbLine
 10
69.284659
 20
228.072511
 30
0.0
 11
69.284659
 21
223.772516
 31
0.0
  0
LINE
  5
199
100
AcDbEntity
  8
Layer_1
 62
7
100
AcDbLine
 10
69.284659
 20
223.772516
 30
0.0
 11
68.835073
 21
223.772516
 31
0.0
  0
LINE
  5
19a
100
AcDbEntity
  8
Layer_1
 62
7
100
AcDbLine
 10
68.835073
 20
223.772516
 30
0.0
 11
65.835257
 21
223.772516
 31
0.0
  0
LINE
  5
19b
100
AcDbEntity
  8
Layer_1
 62
7
100
AcDbLine
 10
65.835257
 20
223.772516
 30
0.0
 11
65.384637
 21
223.772516
 31
0.0
  0
LINE
  5
19c
100
AcDbEntity
  8
Layer_1
 62
7
100
AcDbLine
 10
65.384637
 20
223.772516
 30
0.0
 11
65.384637
 21
228.072511
 31
0.0
  0
LINE
  5
19d
100
AcDbEntity
  8
Layer_1
 62
7
100
AcDbLine
 10
65.384637
 20
228.072511
 30
0.0
 11
65.835257
 21
228.072511
 31
0.0
  0
SPLINE
  5
19e
100
AcDbEntity
  8
Layer_1
 62
7
100
AcDbSpline
 70
8
 71
3
 72
8
 73
4
 74
0
 40
0
 40
0
 40
0
 40
0
 40
1
 40
1
 40
1
 40
1
 10
65.835257
 20
228.072511
 30
0.0
 10
65.835196
 20
228.674989
 30
0.0
 10
65.835317
 20
229.260901
 30
0.0
 10
65.835257
 20
229.872403
 30
0.0
  0
LINE
  5
19f
100
AcDbEntity
  8
Layer_1
 62
7
100
AcDbLine
 10
65.835257
 20
229.872403
 30
0.0
 11
63.334635
 21
229.872403
 31
0.0
  0
LINE
  5
1a0
100
AcDbEntity
  8
Layer_1
 62
7
100
AcDbLine
 10
63.334635
 20
229.872403
 30
0.0
 11
63.334635
 21
232.872736
 31
0.0
  0
LINE
  5
1a1
100
AcDbEntity
  8
Layer_1
 62
7
100
AcDbLine
 10
63.334635
 20
232.872736
 30
0.0
 11
65.834741
 21
232.872736
 31
0.0
  0
SPLINE
  5
1a2
100
AcDbEntity
  8
Layer_1
 62
7
100
AcDbSpline
 70
8
 71
3
 72
8
 73
4
 74
0
 40
0
 40
0
 40
0
 40
0
 40
1
 40
1
 40
1
 40
1
 10
65.834741
 20
232.872736
 30
0.0
 10
65.834672
 20
234.281192
 30
0.0
 10
65.834545
 20
235.648934
 30
0.0
 10
65.834741
 20
237.003749
 30
0.0
  0
SPLINE
  5
1a3
100
AcDbEntity
  8
Layer_1
 62
7
100
AcDbSpline
 70
8
 71
3
 72
8
 73
4
 74
0
 40
0
 40
0
 40
0
 40
0
 40
1
 40
1
 40
1
 40
1
 10
65.834741
 20
237.003749
 30
0.0
 10
63.752060
 20
237.658699
 30
0.0
 10
62.335134
 20
239.589218
 30
0.0
 10
62.334695
 20
241.772451
 30
0.0
  0
SPLINE
  5
1a4
100
AcDbEntity
  8
Layer_1
 62
7
100
AcDbSpline
 70
8
 71
3
 72
8
 73
4
 74
0
 40
0
 40
0
 40
0
 40
0
 40
1
 40
1
 40
1
 40
1
 10
62.334695
 20
241.772451
 30
0.0
 10
62.337395
 20
243.953776
 30
0.0
 10
63.753880
 20
245.881610
 30
0.0
 10
65.834741
 20
246.535985
 30
0.0
  0
LINE
  5
1a5
100
AcDbEntity
  8
Layer_1
 62
7
100
AcDbLine
 10
65.834741
 20
246.535985
 30
0.0
 11
65.834741
 21
250.672166
 31
0.0
  0
LINE
  5
1a6
100
AcDbEntity
  8
Layer_1
 62
7
100
AcDbLine
 10
65.834741
 20
250.672166
 30
0.0
 11
63.334635
 21
250.672166
 31
0.0
  0
LINE
  5
1a7
100
AcDbEntity
  8
Layer_1
 62
7
100
AcDbLine
 10
63.334635
 20
250.672166
 30
0.0
 11
63.334635
 21
253.672499
 31
0.0
  0
LINE
  5
1a8
100
AcDbEntity
  8
Layer_1
 62
7
100
AcDbLine
 10
63.334635
 20
253.672499
 30
0.0
 11
65.834741
 21
253.672499
 31
0.0
  0
LINE
  5
1a9
100
AcDbEntity
  8
Layer_1
 62
7
100
AcDbLine
 10
65.834741
 20
253.672499
 30
0.0
 11
65.834741
 21
255.472391
 31
0.0
  0
LINE
  5
1aa
100
AcDbEntity
  8
Layer_1
 62
7
100
AcDbLine
 10
65.834741
 20
255.472391
 30
0.0
 11
65.384637
 21
255.472391
 31
0.0
  0
LINE
  5
1ab
100
AcDbEntity
  8
Layer_1
 62
7
100
AcDbLine
 10
65.384637
 20
255.472391
 30
0.0
 11
65.384637
 21
259.772386
 31
0.0
  0
SPLINE
  5
1ac
100
AcDbEntity
  8
Layer_1
 62
7
100
AcDbSpline
 70
8
 71
3
 72
8
 73
4
 74
0
 40
0
 40
0
 40
0
 40
0
 40
1
 40
1
 40
1
 40
1
 10
51.334849
 20
258.722320
 30
0.0
 10
51.859374
 20
258.722218
 30
0.0
 10
52.284560
 20
258.297034
 30
0.0
 10
52.284664
 20
257.772509
 30
0.0
  0
SPLINE
  5
1ad
100
AcDbEntity
  8
Layer_1
 62
7
100
AcDbSpline
 70
8
 71
3
 72
8
 73
4
 74
0
 40
0
 40
0
 40
0
 40
0
 40
1
 40
1
 40
1
 40
1
 10
52.284664
 20
257.772509
 30
0.0
 10
52.284752
 20
257.520528
 30
0.0
 10
52.184727
 20
257.278835
 30
0.0
 10
52.006598
 20
257.100609
 30
0.0
  0
SPLINE
  5
1ae
100
AcDbEntity
  8
Layer_1
 62
7
100
AcDbSpline
 70
8
 71
3
 72
8
 73
4
 74
0
 40
0
 40
0
 40
0
 40
0
 40
1
 40
1
 40
1
 40
1
 10
52.006598
 20
257.100609
 30
0.0
 10
51.828469
 20
256.922383
 30
0.0
 10
51.586830
 20
256.822227
 30
0.0
 10
51.334849
 20
256.822178
 30
0.0
  0
SPLINE
  5
1af
100
AcDbEntity
  8
Layer_1
 62
7
100
AcDbSpline
 70
8
 71
3
 72
8
 73
4
 74
0
 40
0
 40
0
 40
0
 40
0
 40
1
 40
1
 40
1
 40
1
 10
51.334849
 20
256.822178
 30
0.0
 10
51.082869
 20
256.822228
 30
0.0
 10
50.841230
 20
256.922384
 30
0.0
 10
50.663102
 20
257.100610
 30
0.0
  0
SPLINE
  5
1b0
100
AcDbEntity
  8
Layer_1
 62
7
100
AcDbSpline
 70
8
 71
3
 72
8
 73
4
 74
0
 40
0
 40
0
 40
0
 40
0
 40
1
 40
1
 40
1
 40
1
 10
50.663102
 20
257.100610
 30
0.0
 10
50.484973
 20
257.278836
 30
0.0
 10
50.384949
 20
257.520529
 30
0.0
 10
50.385037
 20
257.772509
 30
0.0
  0
SPLINE
  5
1b1
100
AcDbEntity
  8
Layer_1
 62
7
100
AcDbSpline
 70
8
 71
3
 72
8
 73
4
 74
0
 40
0
 40
0
 40
0
 40
0
 40
1
 40
1
 40
1
 40
1
 10
50.385037
 20
257.772509
 30
0.0
 10
50.385141
 20
258.297032
 30
0.0
 10
50.810326
 20
258.722216
 30
0.0
 10
51.334849
 20
258.722320
 30
0.0
  0
LINE
  5
1b2
100
AcDbEntity
  8
Layer_1
 62
7
100
AcDbLine
 10
51.334849
 20
258.722320
 30
0.0
 11
51.334849
 21
258.722320
 31
0.0
  0
SPLINE
  5
1b3
100
AcDbEntity
  8
Layer_1
 62
7
100
AcDbSpline
 70
8
 71
3
 72
8
 73
4
 74
0
 40
0
 40
0
 40
0
 40
0
 40
1
 40
1
 40
1
 40
1
 10
83.334962
 20
258.722320
 30
0.0
 10
83.859487
 20
258.722218
 30
0.0
 10
84.284673
 20
258.297034
 30
0.0
 10
84.284777
 20
257.772509
 30
0.0
  0
SPLINE
  5
1b4
100
AcDbEntity
  8
Layer_1
 62
7
100
AcDbSpline
 70
8
 71
3
 72
8
 73
4
 74
0
 40
0
 40
0
 40
0
 40
0
 40
1
 40
1
 40
1
 40
1
 10
84.284777
 20
257.772509
 30
0.0
 10
84.284865
 20
257.520528
 30
0.0
 10
84.184840
 20
257.278835
 30
0.0
 10
84.006711
 20
257.100609
 30
0.0
  0
SPLINE
  5
1b5
100
AcDbEntity
  8
Layer_1
 62
7
100
AcDbSpline
 70
8
 71
3
 72
8
 73
4
 74
0
 40
0
 40
0
 40
0
 40
0
 40
1
 40
1
 40
1
 40
1
 10
84.006711
 20
257.100609
 30
0.0
 10
83.828582
 20
256.922383
 30
0.0
 10
83.586943
 20
256.822227
 30
0.0
 10
83.334962
 20
256.822178
 30
0.0
  0
SPLINE
  5
1b6
100
AcDbEntity
  8
Layer_1
 62
7
100
AcDbSpline
 70
8
 71
3
 72
8
 73
4
 74
0
 40
0
 40
0
 40
0
 40
0
 40
1
 40
1
 40
1
 40
1
 10
83.334962
 20
256.822178
 30
0.0
 10
83.082982
 20
256.822228
 30
0.0
 10
82.841343
 20
256.922384
 30
0.0
 10
82.663215
 20
257.100610
 30
0.0
  0
SPLINE
  5
1b7
100
AcDbEntity
  8
Layer_1
 62
7
100
AcDbSpline
 70
8
 71
3
 72
8
 73
4
 74
0
 40
0
 40
0
 40
0
 40
0
 40
1
 40
1
 40
1
 40
1
 10
82.663215
 20
257.100610
 30
0.0
 10
82.485086
 20
257.278836
 30
0.0
 10
82.385062
 20
257.520529
 30
0.0
 10
82.385150
 20
257.772509
 30
0.0
  0
SPLINE
  5
1b8
100
AcDbEntity
  8
Layer_1
 62
7
100
AcDbSpline
 70
8
 71
3
 72
8
 73
4
 74
0
 40
0
 40
0
 40
0
 40
0
 40
1
 40
1
 40
1
 40
1
 10
82.385150
 20
257.772509
 30
0.0
 10
82.385254
 20
258.297032
 30
0.0
 10
82.810439
 20
258.722216
 30
0.0
 10
83.334962
 20
258.722320
 30
0.0
  0
LINE
  5
1b9
100
AcDbEntity
  8
Layer_1
 62
7
100
AcDbLine
 10
83.334962
 20
258.722320
 30
0.0
 11
83.334962
 21
258.722320
 31
0.0
  0
SPLINE
  5
1ba
100
AcDbEntity
  8
Layer_1
 62
7
100
AcDbSpline
 70
8
 71
3
 72
8
 73
4
 74
0
 40
0
 40
0
 40
0
 40
0
 40
1
 40
1
 40
1
 40
1
 10
51.334849
 20
226.722208
 30
0.0
 10
51.859375
 20
226.722106
 30
0.0
 10
52.284562
 20
226.296919
 30
0.0
 10
52.284664
 20
225.772393
 30
0.0
  0
SPLINE
  5
1bb
100
AcDbEntity
  8
Layer_1
 62
7
100
AcDbSpline
 70
8
 71
3
 72
8
 73
4
 74
0
 40
0
 40
0
 40
0
 40
0
 40
1
 40
1
 40
1
 40
1
 10
52.284664
 20
225.772393
 30
0.0
 10
52.284560
 20
225.247868
 30
0.0
 10
51.859374
 20
224.822683
 30
0.0
 10
51.334849
 20
224.822581
 30
0.0
  0
SPLINE
  5
1bc
100
AcDbEntity
  8
Layer_1
 62
7
100
AcDbSpline
 70
8
 71
3
 72
8
 73
4
 74
0
 40
0
 40
0
 40
0
 40
0
 40
1
 40
1
 40
1
 40
1
 10
51.334849
 20
224.822581
 30
0.0
 10
50.810325
 20
224.822685
 30
0.0
 10
50.385141
 20
225.247869
 30
0.0
 10
50.385037
 20
225.772393
 30
0.0
  0
SPLINE
  5
1bd
100
AcDbEntity
  8
Layer_1
 62
7
100
AcDbSpline
 70
8
 71
3
 72
8
 73
4
 74
0
 40
0
 40
0
 40
0
 40
0
 40
1
 40
1
 40
1
 40
1
 10
50.385037
 20
225.772393
 30
0.0
 10
50.385139
 20
226.296918
 30
0.0
 10
50.810324
 20
226.722104
 30
0.0
 10
51.334849
 20
226.722208
 30
0.0
  0
LINE
  5
1be
100
AcDbEntity
  8
Layer_1
 62
7
100
AcDbLine
 10
51.334849
 20
226.722208
 30
0.0
 11
51.334849
 21
226.722208
 31
0.0
  0
SPLINE
  5
1bf
100
AcDbEntity
  8
Layer_1
 62
7
100
AcDbSpline
 70
8
 71
3
 72
8
 73
4
 74
0
 40
0
 40
0
 40
0
 40
0
 40
1
 40
1
 40
1
 40
1
 10
83.334962
 20
226.722208
 30
0.0
 10
83.859488
 20
226.722106
 30
0.0
 10
84.284675
 20
226.296919
 30
0.0
 10
84.284777
 20
225.772393
 30
0.0
  0
SPLINE
  5
1c0
100
AcDbEntity
  8
Layer_1
 62
7
100
AcDbSpline
 70
8
 71
3
 72
8
 73
4
 74
0
 40
0
 40
0
 40
0
 40
0
 40
1
 40
1
 40
1
 40
1
 10
84.284777
 20
225.772393
 30
0.0
 10
84.284673
 20
225.247868
 30
0.0
 10
83.859487
 20
224.822683
 30
0.0
 10
83.334962
 20
224.822581
 30
0.0
  0
SPLINE
  5
1c1
100
AcDbEntity
  8
Layer_1
 62
7
100
AcDbSpline
 70
8
 71
3
 72
8
 73
4
 74
0
 40
0
 40
0
 40
0
 40
0
 40
1
 40
1
 40
1
 40
1
 10
83.334962
 20
224.822581
 30
0.0
 10
82.810438
 20
224.822685
 30
0.0
 10
82.385254
 20
225.247869
 30
0.0
 10
82.385150
 20
225.772393
 30
0.0
  0
SPLINE
  5
1c2
100
AcDbEntity
  8
Layer_1
 62
7
100
AcDbSpline
 70
8
 71
3
 72
8
 73
4
 74
0
 40
0
 40
0
 40
0
 40
0
 40
1
 40
1
 40
1
 40
1
 10
82.385150
 20
225.772393
 30
0.0
 10
82.385252
 20
226.296918
 30
0.0
 10
82.810437
 20
226.722104
 30
0.0
 10
83.334962
 20
226.722208
 30
0.0
  0
LINE
  5
1c3
100
AcDbEntity
  8
Layer_1
 62
7
100
AcDbLine
 10
83.334962
 20
226.722208
 30
0.0
 11
83.334962
 21
226.722208
 31
0.0
  0
LINE
  5
1c4
100
AcDbEntity
  8
Layer_1
 62
7
100
AcDbLine
 10
3.194637
 20
261.772262
 30
0.0
 11
3.194637
 21
221.772639
 31
0.0
  0
LINE
  5
1c5
100
AcDbEntity
  8
Layer_1
 62
7
100
AcDbLine
 10
3.194637
 20
221.772639
 30
0.0
 11
43.194779
 21
221.772639
 31
0.0
  0
LINE
  5
1c6
100
AcDbEntity
  8
Layer_1
 62
7
100
AcDbLine
 10
43.194779
 20
221.772639
 30
0.0
 11
43.194779
 21
261.772262
 31
0.0
  0
LINE
  5
1c7
100
AcDbEntity
  8
Layer_1
 62
7
100
AcDbLine
 10
43.194779
 20
261.772262
 30
0.0
 11
3.194637
 21
261.772262
 31
0.0
  0
SPLINE
  5
1c8
100
AcDbEntity
  8
Layer_1
 62
7
100
AcDbSpline
 70
8
 71
3
 72
8
 73
4
 74
0
 40
0
 40
0
 40
0
 40
0
 40
1
 40
1
 40
1
 40
1
 10
7.194393
 20
258.722320
 30
0.0
 10
7.718917
 20
258.722217
 30
0.0
 10
8.144102
 20
258.297033
 30
0.0
 10
8.144206
 20
257.772509
 30
0.0
  0
SPLINE
  5
1c9
100
AcDbEntity
  8
Layer_1
 62
7
100
AcDbSpline
 70
8
 71
3
 72
8
 73
4
 74
0
 40
0
 40
0
 40
0
 40
0
 40
1
 40
1
 40
1
 40
1
 10
8.144206
 20
257.772509
 30
0.0
 10
8.144294
 20
257.520528
 30
0.0
 10
8.044269
 20
257.278835
 30
0.0
 10
7.866140
 20
257.100610
 30
0.0
  0
SPLINE
  5
1ca
100
AcDbEntity
  8
Layer_1
 62
7
100
AcDbSpline
 70
8
 71
3
 72
8
 73
4
 74
0
 40
0
 40
0
 40
0
 40
0
 40
1
 40
1
 40
1
 40
1
 10
7.866140
 20
257.100610
 30
0.0
 10
7.688012
 20
256.922384
 30
0.0
 10
7.446373
 20
256.822228
 30
0.0
 10
7.194393
 20
256.822178
 30
0.0
  0
SPLINE
  5
1cb
100
AcDbEntity
  8
Layer_1
 62
7
100
AcDbSpline
 70
8
 71
3
 72
8
 73
4
 74
0
 40
0
 40
0
 40
0
 40
0
 40
1
 40
1
 40
1
 40
1
 10
7.194393
 20
256.822178
 30
0.0
 10
6.942412
 20
256.822228
 30
0.0
 10
6.700774
 20
256.922384
 30
0.0
 10
6.522645
 20
257.100610
 30
0.0
  0
SPLINE
  5
1cc
100
AcDbEntity
  8
Layer_1
 62
7
100
AcDbSpline
 70
8
 71
3
 72
8
 73
4
 74
0
 40
0
 40
0
 40
0
 40
0
 40
1
 40
1
 40
1
 40
1
 10
6.522645
 20
257.100610
 30
0.0
 10
6.344517
 20
257.278835
 30
0.0
 10
6.244492
 20
257.520528
 30
0.0
 10
6.244580
 20
257.772509
 30
0.0
  0
SPLINE
  5
1cd
100
AcDbEntity
  8
Layer_1
 62
7
100
AcDbSpline
 70
8
 71
3
 72
8
 73
4
 74
0
 40
0
 40
0
 40
0
 40
0
 40
1
 40
1
 40
1
 40
1
 10
6.244580
 20
257.772509
 30
0.0
 10
6.244684
 20
258.297033
 30
0.0
 10
6.669869
 20
258.722217
 30
0.0
 10
7.194393
 20
258.722320
 30
0.0
  0
LINE
  5
1ce
100
AcDbEntity
  8
Layer_1
 62
7
100
AcDbLine
 10
7.194393
 20
258.722320
 30
0.0
 11
7.194393
 21
258.722320
 31
0.0
  0
SPLINE
  5
1cf
100
AcDbEntity
  8
Layer_1
 62
7
100
AcDbSpline
 70
8
 71
3
 72
8
 73
4
 74
0
 40
0
 40
0
 40
0
 40
0
 40
1
 40
1
 40
1
 40
1
 10
39.194507
 20
258.722320
 30
0.0
 10
39.719030
 20
258.722216
 30
0.0
 10
40.144215
 20
258.297032
 30
0.0
 10
40.144319
 20
257.772509
 30
0.0
  0
SPLINE
  5
1d0
100
AcDbEntity
  8
Layer_1
 62
7
100
AcDbSpline
 70
8
 71
3
 72
8
 73
4
 74
0
 40
0
 40
0
 40
0
 40
0
 40
1
 40
1
 40
1
 40
1
 10
40.144319
 20
257.772509
 30
0.0
 10
40.144407
 20
257.520529
 30
0.0
 10
40.044383
 20
257.278836
 30
0.0
 10
39.866254
 20
257.100610
 30
0.0
  0
SPLINE
  5
1d1
100
AcDbEntity
  8
Layer_1
 62
7
100
AcDbSpline
 70
8
 71
3
 72
8
 73
4
 74
0
 40
0
 40
0
 40
0
 40
0
 40
1
 40
1
 40
1
 40
1
 10
39.866254
 20
257.100610
 30
0.0
 10
39.688126
 20
256.922384
 30
0.0
 10
39.446487
 20
256.822228
 30
0.0
 10
39.194507
 20
256.822178
 30
0.0
  0
SPLINE
  5
1d2
100
AcDbEntity
  8
Layer_1
 62
7
100
AcDbSpline
 70
8
 71
3
 72
8
 73
4
 74
0
 40
0
 40
0
 40
0
 40
0
 40
1
 40
1
 40
1
 40
1
 10
39.194507
 20
256.822178
 30
0.0
 10
38.942526
 20
256.822227
 30
0.0
 10
38.700887
 20
256.922383
 30
0.0
 10
38.522759
 20
257.100609
 30
0.0
  0
SPLINE
  5
1d3
100
AcDbEntity
  8
Layer_1
 62
7
100
AcDbSpline
 70
8
 71
3
 72
8
 73
4
 74
0
 40
0
 40
0
 40
0
 40
0
 40
1
 40
1
 40
1
 40
1
 10
38.522759
 20
257.100609
 30
0.0
 10
38.344630
 20
257.278835
 30
0.0
 10
38.244605
 20
257.520528
 30
0.0
 10
38.244693
 20
257.772509
 30
0.0
  0
SPLINE
  5
1d4
100
AcDbEntity
  8
Layer_1
 62
7
100
AcDbSpline
 70
8
 71
3
 72
8
 73
4
 74
0
 40
0
 40
0
 40
0
 40
0
 40
1
 40
1
 40
1
 40
1
 10
38.244693
 20
257.772509
 30
0.0
 10
38.244797
 20
258.297033
 30
0.0
 10
38.669983
 20
258.722218
 30
0.0
 10
39.194507
 20
258.722320
 30
0.0
  0
LINE
  5
1d5
100
AcDbEntity
  8
Layer_1
 62
7
100
AcDbLine
 10
39.194507
 20
258.722320
 30
0.0
 11
39.194507
 21
258.722320
 31
0.0
  0
LINE
  5
1d6
100
AcDbEntity
  8
Layer_1
 62
7
100
AcDbLine
 10
5.194515
 20
253.672499
 30
0.0
 11
19.194694
 21
253.672499
 31
0.0
  0
LINE
  5
1d7
100
AcDbEntity
  8
Layer_1
 62
7
100
AcDbLine
 10
19.194694
 20
253.672499
 30
0.0
 11
19.194694
 21
250.672166
 31
0.0
  0
LINE
  5
1d8
100
AcDbEntity
  8
Layer_1
 62
7
100
AcDbLine
 10
19.194694
 20
250.672166
 30
0.0
 11
5.194515
 21
250.672166
 31
0.0
  0
LINE
  5
1d9
100
AcDbEntity
  8
Layer_1
 62
7
100
AcDbLine
 10
5.194515
 20
250.672166
 30
0.0
 11
5.194515
 21
253.672499
 31
0.0
  0
LINE
  5
1da
100
AcDbEntity
  8
Layer_1
 62
7
100
AcDbLine
 10
27.194722
 20
253.672499
 30
0.0
 11
32.194934
 21
253.672499
 31
0.0
  0
LINE
  5
1db
100
AcDbEntity
  8
Layer_1
 62
7
100
AcDbLine
 10
32.194934
 20
253.672499
 30
0.0
 11
32.194934
 21
250.672166
 31
0.0
  0
LINE
  5
1dc
100
AcDbEntity
  8
Layer_1
 62
7
100
AcDbLine
 10
32.194934
 20
250.672166
 30
0.0
 11
27.194722
 21
250.672166
 31
0.0
  0
LINE
  5
1dd
100
AcDbEntity
  8
Layer_1
 62
7
100
AcDbLine
 10
27.194722
 20
250.672166
 30
0.0
 11
27.194722
 21
253.672499
 31
0.0
  0
LINE
  5
1de
100
AcDbEntity
  8
Layer_1
 62
7
100
AcDbLine
 10
5.194515
 20
232.872736
 30
0.0
 11
19.194694
 21
232.872736
 31
0.0
  0
LINE
  5
1df
100
AcDbEntity
  8
Layer_1
 62
7
100
AcDbLine
 10
19.194694
 20
232.872736
 30
0.0
 11
19.194694
 21
229.872403
 31
0.0
  0
LINE
  5
1e0
100
AcDbEntity
  8
Layer_1
 62
7
100
AcDbLine
 10
19.194694
 20
229.872403
 30
0.0
 11
5.194515
 21
229.872403
 31
0.0
  0
LINE
  5
1e1
100
AcDbEntity
  8
Layer_1
 62
7
100
AcDbLine
 10
5.194515
 20
229.872403
 30
0.0
 11
5.194515
 21
232.872736
 31
0.0
  0
LINE
  5
1e2
100
AcDbEntity
  8
Layer_1
 62
7
100
AcDbLine
 10
27.194722
 20
232.872736
 30
0.0
 11
32.194934
 21
232.872736
 31
0.0
  0
LINE
  5
1e3
100
AcDbEntity
  8
Layer_1
 62
7
100
AcDbLine
 10
32.194934
 20
232.872736
 30
0.0
 11
32.194934
 21
229.872403
 31
0.0
  0
LINE
  5
1e4
100
AcDbEntity
  8
Layer_1
 62
7
100
AcDbLine
 10
32.194934
 20
229.872403
 30
0.0
 11
27.194722
 21
229.872403
 31
0.0
  0
LINE
  5
1e5
100
AcDbEntity
  8
Layer_1
 62
7
100
AcDbLine
 10
27.194722
 20
229.872403
 30
0.0
 11
27.194722
 21
232.872736
 31
0.0
  0
SPLINE
  5
1e6
100
AcDbEntity
  8
Layer_1
 62
7
100
AcDbSpline
 70
8
 71
3
 72
8
 73
4
 74
0
 40
0
 40
0
 40
0
 40
0
 40
1
 40
1
 40
1
 40
1
 10
7.194393
 20
226.722208
 30
0.0
 10
7.718918
 20
226.722105
 30
0.0
 10
8.144104
 20
226.296918
 30
0.0
 10
8.144206
 20
225.772393
 30
0.0
  0
SPLINE
  5
1e7
100
AcDbEntity
  8
Layer_1
 62
7
100
AcDbSpline
 70
8
 71
3
 72
8
 73
4
 74
0
 40
0
 40
0
 40
0
 40
0
 40
1
 40
1
 40
1
 40
1
 10
8.144206
 20
225.772393
 30
0.0
 10
8.144102
 20
225.247869
 30
0.0
 10
7.718917
 20
224.822684
 30
0.0
 10
7.194393
 20
224.822581
 30
0.0
  0
SPLINE
  5
1e8
100
AcDbEntity
  8
Layer_1
 62
7
100
AcDbSpline
 70
8
 71
3
 72
8
 73
4
 74
0
 40
0
 40
0
 40
0
 40
0
 40
1
 40
1
 40
1
 40
1
 10
7.194393
 20
224.822581
 30
0.0
 10
6.669869
 20
224.822684
 30
0.0
 10
6.244684
 20
225.247869
 30
0.0
 10
6.244580
 20
225.772393
 30
0.0
  0
SPLINE
  5
1e9
100
AcDbEntity
  8
Layer_1
 62
7
100
AcDbSpline
 70
8
 71
3
 72
8
 73
4
 74
0
 40
0
 40
0
 40
0
 40
0
 40
1
 40
1
 40
1
 40
1
 10
6.244580
 20
225.772393
 30
0.0
 10
6.244682
 20
226.296918
 30
0.0
 10
6.669868
 20
226.722105
 30
0.0
 10
7.194393
 20
226.722208
 30
0.0
  0
LINE
  5
1ea
100
AcDbEntity
  8
Layer_1
 62
7
100
AcDbLine
 10
7.194393
 20
226.722208
 30
0.0
 11
7.194393
 21
226.722208
 31
0.0
  0
SPLINE
  5
1eb
100
AcDbEntity
  8
Layer_1
 62
7
100
AcDbSpline
 70
8
 71
3
 72
8
 73
4
 74
0
 40
0
 40
0
 40
0
 40
0
 40
1
 40
1
 40
1
 40
1
 10
39.194507
 20
226.722208
 30
0.0
 10
39.719032
 20
226.722104
 30
0.0
 10
40.144217
 20
226.296918
 30
0.0
 10
40.144319
 20
225.772393
 30
0.0
  0
SPLINE
  5
1ec
100
AcDbEntity
  8
Layer_1
 62
7
100
AcDbSpline
 70
8
 71
3
 72
8
 73
4
 74
0
 40
0
 40
0
 40
0
 40
0
 40
1
 40
1
 40
1
 40
1
 10
40.144319
 20
225.772393
 30
0.0
 10
40.144215
 20
225.247869
 30
0.0
 10
39.719031
 20
224.822685
 30
0.0
 10
39.194507
 20
224.822581
 30
0.0
  0
SPLINE
  5
1ed
100
AcDbEntity
  8
Layer_1
 62
7
100
AcDbSpline
 70
8
 71
3
 72
8
 73
4
 74
0
 40
0
 40
0
 40
0
 40
0
 40
1
 40
1
 40
1
 40
1
 10
39.194507
 20
224.822581
 30
0.0
 10
38.669982
 20
224.822683
 30
0.0
 10
38.244797
 20
225.247868
 30
0.0
 10
38.244693
 20
225.772393
 30
0.0
  0
SPLINE
  5
1ee
100
AcDbEntity
  8
Layer_1
 62
7
100
AcDbSpline
 70
8
 71
3
 72
8
 73
4
 74
0
 40
0
 40
0
 40
0
 40
0
 40
1
 40
1
 40
1
 40
1
 10
38.244693
 20
225.772393
 30
0.0
 10
38.244795
 20
226.296919
 30
0.0
 10
38.669981
 20
226.722106
 30
0.0
 10
39.194507
 20
226.722208
 30
0.0
  0
LINE
  5
1ef
100
AcDbEntity
  8
Layer_1
 62
7
100
AcDbLine
 10
39.194507
 20
226.722208
 30
0.0
 11
39.194507
 21
226.722208
 31
0.0
  0
LINE
  5
1f0
100
AcDbEntity
  8
Layer_1
 62
7
100
AcDbLine
 10
21.694799
 20
259.772386
 30
0.0
 11
21.694799
 21
253.672499
 31
0.0
  0
LINE
  5
1f1
100
AcDbEntity
  8
Layer_1
 62
7
100
AcDbLine
 10
21.694799
 20
253.672499
 30
0.0
 11
19.194694
 21
253.672499
 31
0.0
  0
LINE
  5
1f2
100
AcDbEntity
  8
Layer_1
 62
7
100
AcDbLine
 10
19.194694
 20
253.672499
 30
0.0
 11
19.194694
 21
250.672166
 31
0.0
  0
LINE
  5
1f3
100
AcDbEntity
  8
Layer_1
 62
7
100
AcDbLine
 10
19.194694
 20
250.672166
 30
0.0
 11
21.694799
 21
250.672166
 31
0.0
  0
LINE
  5
1f4
100
AcDbEntity
  8
Layer_1
 62
7
100
AcDbLine
 10
21.694799
 20
250.672166
 30
0.0
 11
21.694799
 21
246.535985
 31
0.0
  0
SPLINE
  5
1f5
100
AcDbEntity
  8
Layer_1
 62
7
100
AcDbSpline
 70
8
 71
3
 72
8
 73
4
 74
0
 40
0
 40
0
 40
0
 40
0
 40
1
 40
1
 40
1
 40
1
 10
21.694799
 20
246.535985
 30
0.0
 10
19.613940
 20
245.881610
 30
0.0
 10
18.197455
 20
243.953776
 30
0.0
 10
18.194755
 20
241.772451
 30
0.0
  0
SPLINE
  5
1f6
100
AcDbEntity
  8
Layer_1
 62
7
100
AcDbSpline
 70
8
 71
3
 72
8
 73
4
 74
0
 40
0
 40
0
 40
0
 40
0
 40
1
 40
1
 40
1
 40
1
 10
18.194755
 20
241.772451
 30
0.0
 10
18.195195
 20
239.589218
 30
0.0
 10
19.612120
 20
237.658699
 30
0.0
 10
21.694799
 20
237.003749
 30
0.0
  0
SPLINE
  5
1f7
100
AcDbEntity
  8
Layer_1
 62
7
100
AcDbSpline
 70
8
 71
3
 72
8
 73
4
 74
0
 40
0
 40
0
 40
0
 40
0
 40
1
 40
1
 40
1
 40
1
 10
21.694799
 20
237.003749
 30
0.0
 10
21.694606
 20
235.648934
 30
0.0
 10
21.694732
 20
234.281192
 30
0.0
 10
21.694799
 20
232.872736
 30
0.0
  0
LINE
  5
1f8
100
AcDbEntity
  8
Layer_1
 62
7
100
AcDbLine
 10
21.694799
 20
232.872736
 30
0.0
 11
19.194694
 21
232.872736
 31
0.0
  0
LINE
  5
1f9
100
AcDbEntity
  8
Layer_1
 62
7
100
AcDbLine
 10
19.194694
 20
232.872736
 30
0.0
 11
19.194694
 21
229.872403
 31
0.0
  0
LINE
  5
1fa
100
AcDbEntity
  8
Layer_1
 62
7
100
AcDbLine
 10
19.194694
 20
229.872403
 30
0.0
 11
21.695316
 21
229.872403
 31
0.0
  0
SPLINE
  5
1fb
100
AcDbEntity
  8
Layer_1
 62
7
100
AcDbSpline
 70
8
 71
3
 72
8
 73
4
 74
0
 40
0
 40
0
 40
0
 40
0
 40
1
 40
1
 40
1
 40
1
 10
21.695316
 20
229.872403
 30
0.0
 10
21.695524
 20
227.799998
 30
0.0
 10
21.695339
 20
225.661729
 30
0.0
 10
21.695316
 20
223.772516
 30
0.0
  0
LINE
  5
1fc
100
AcDbEntity
  8
Layer_1
 62
7
100
AcDbLine
 10
21.695316
 20
223.772516
 30
0.0
 11
24.695133
 21
223.772516
 31
0.0
  0
LINE
  5
1fd
100
AcDbEntity
  8
Layer_1
 62
7
100
AcDbLine
 10
24.695133
 20
223.772516
 30
0.0
 11
24.695133
 21
229.872403
 31
0.0
  0
LINE
  5
1fe
100
AcDbEntity
  8
Layer_1
 62
7
100
AcDbLine
 10
24.695133
 20
229.872403
 30
0.0
 11
27.194722
 21
229.872403
 31
0.0
  0
LINE
  5
1ff
100
AcDbEntity
  8
Layer_1
 62
7
100
AcDbLine
 10
27.194722
 20
229.872403
 30
0.0
 11
27.194722
 21
232.872736
 31
0.0
  0
LINE
  5
200
100
AcDbEntity
  8
Layer_1
 62
7
100
AcDbLine
 10
27.194722
 20
232.872736
 30
0.0
 11
24.695133
 21
232.872736
 31
0.0
  0
LINE
  5
201
100
AcDbEntity
  8
Layer_1
 62
7
100
AcDbLine
 10
24.695133
 20
232.872736
 30
0.0
 11
24.695133
 21
237.008916
 31
0.0
  0
SPLINE
  5
202
100
AcDbEntity
  8
Layer_1
 62
7
100
AcDbSpline
 70
8
 71
3
 72
8
 73
4
 74
0
 40
0
 40
0
 40
0
 40
0
 40
1
 40
1
 40
1
 40
1
 10
24.695133
 20
237.008916
 30
0.0
 10
26.775794
 20
237.663477
 30
0.0
 10
28.192042
 20
239.591263
 30
0.0
 10
28.194661
 20
241.772451
 30
0.0
  0
SPLINE
  5
203
100
AcDbEntity
  8
Layer_1
 62
7
100
AcDbSpline
 70
8
 71
3
 72
8
 73
4
 74
0
 40
0
 40
0
 40
0
 40
0
 40
1
 40
1
 40
1
 40
1
 10
28.194661
 20
241.772451
 30
0.0
 10
28.194061
 20
243.955353
 30
0.0
 10
26.777423
 20
245.885560
 30
0.0
 10
24.695133
 20
246.540634
 30
0.0
  0
LINE
  5
204
100
AcDbEntity
  8
Layer_1
 62
7
100
AcDbLine
 10
24.695133
 20
246.540634
 30
0.0
 11
24.695133
 21
250.672166
 31
0.0
  0
LINE
  5
205
100
AcDbEntity
  8
Layer_1
 62
7
100
AcDbLine
 10
24.695133
 20
250.672166
 30
0.0
 11
27.194722
 21
250.672166
 31
0.0
  0
LINE
  5
206
100
AcDbEntity
  8
Layer_1
 62
7
100
AcDbLine
 10
27.194722
 20
250.672166
 30
0.0
 11
27.194722
 21
253.672499
 31
0.0
  0
LINE
  5
207
100
AcDbEntity
  8
Layer_1
 62
7
100
AcDbLine
 10
27.194722
 20
253.672499
 30
0.0
 11
24.695133
 21
253.672499
 31
0.0
  0
LINE
  5
208
100
AcDbEntity
  8
Layer_1
 62
7
100
AcDbLine
 10
24.695133
 20
253.672499
 30
0.0
 11
24.695133
 21
259.772386
 31
0.0
  0
LINE
  5
209
100
AcDbEntity
  8
Layer_1
 62
7
100
AcDbLine
 10
24.695133
 20
259.772386
 30
0.0
 11
21.694799
 21
259.772386
 31
0.0
  0
SPLINE
  5
20a
100
AcDbEntity
  8
Layer_1
 62
7
100
AcDbSpline
 70
8
 71
3
 72
8
 73
4
 74
0
 40
0
 40
0
 40
0
 40
0
 40
1
 40
1
 40
1
 40
1
 10
23.194966
 20
244.222432
 30
0.0
 10
24.548049
 20
244.222421
 30
0.0
 10
25.644936
 20
243.125534
 30
0.0
 10
25.644946
 20
241.772451
 30
0.0
  0
SPLINE
  5
20b
100
AcDbEntity
  8
Layer_1
 62
7
100
AcDbSpline
 70
8
 71
3
 72
8
 73
4
 74
0
 40
0
 40
0
 40
0
 40
0
 40
1
 40
1
 40
1
 40
1
 10
25.644946
 20
241.772451
 30
0.0
 10
25.644936
 20
240.419368
 30
0.0
 10
24.548049
 20
239.322481
 30
0.0
 10
23.194966
 20
239.322470
 30
0.0
  0
SPLINE
  5
20c
100
AcDbEntity
  8
Layer_1
 62
7
100
AcDbSpline
 70
8
 71
3
 72
8
 73
4
 74
0
 40
0
 40
0
 40
0
 40
0
 40
1
 40
1
 40
1
 40
1
 10
23.194966
 20
239.322470
 30
0.0
 10
21.841884
 20
239.322481
 30
0.0
 10
20.744997
 20
240.419369
 30
0.0
 10
20.744987
 20
241.772451
 30
0.0
  0
SPLINE
  5
20d
100
AcDbEntity
  8
Layer_1
 62
7
100
AcDbSpline
 70
8
 71
3
 72
8
 73
4
 74
0
 40
0
 40
0
 40
0
 40
0
 40
1
 40
1
 40
1
 40
1
 10
20.744987
 20
241.772451
 30
0.0
 10
20.744997
 20
243.125533
 30
0.0
 10
21.841884
 20
244.222421
 30
0.0
 10
23.194966
 20
244.222432
 30
0.0
  0
LINE
  5
20e
100
AcDbEntity
  8
Layer_1
 62
7
100
AcDbLine
 10
23.194966
 20
244.222432
 30
0.0
 11
23.194966
 21
244.222432
 31
0.0
  0
LINE
  5
20f
100
AcDbEntity
  8
Layer_1
 62
7
100
AcDbLine
 10
47.334577
 20
304.953090
 30
0.0
 11
47.334577
 21
264.952948
 31
0.0
  0
LINE
  5
210
100
AcDbEntity
  8
Layer_1
 62
7
100
AcDbLine
 10
47.334577
 20
264.952948
 30
0.0
 11
87.334203
 21
264.952948
 31
0.0
  0
LINE
  5
211
100
AcDbEntity
  8
Layer_1
 62
7
100
AcDbLine
 10
87.334203
 20
264.952948
 30
0.0
 11
87.334203
 21
273.552938
 31
0.0
  0
LINE
  5
212
100
AcDbEntity
  8
Layer_1
 62
7
100
AcDbLine
 10
87.334203
 20
273.552938
 30
0.0
 11
84.934350
 21
273.552938
 31
0.0
  0
LINE
  5
213
100
AcDbEntity
  8
Layer_1
 62
7
100
AcDbLine
 10
84.934350
 20
273.552938
 30
0.0
 11
84.934350
 21
272.603127
 31
0.0
  0
LINE
  5
214
100
AcDbEntity
  8
Layer_1
 62
7
100
AcDbLine
 10
84.934350
 20
272.603127
 30
0.0
 11
83.334446
 21
272.603127
 31
0.0
  0
LINE
  5
215
100
AcDbEntity
  8
Layer_1
 62
7
100
AcDbLine
 10
83.334446
 20
272.603127
 30
0.0
 11
83.334446
 21
273.552938
 31
0.0
  0
LINE
  5
216
100
AcDbEntity
  8
Layer_1
 62
7
100
AcDbLine
 10
83.334446
 20
273.552938
 30
0.0
 11
81.334569
 21
273.552938
 31
0.0
  0
LINE
  5
217
100
AcDbEntity
  8
Layer_1
 62
7
100
AcDbLine
 10
81.334569
 20
273.552938
 30
0.0
 11
81.334569
 21
273.053228
 31
0.0
  0
LINE
  5
218
100
AcDbEntity
  8
Layer_1
 62
7
100
AcDbLine
 10
81.334569
 20
273.053228
 30
0.0
 11
71.334148
 21
273.053228
 31
0.0
  0
LINE
  5
219
100
AcDbEntity
  8
Layer_1
 62
7
100
AcDbLine
 10
71.334148
 20
273.053228
 30
0.0
 11
70.334208
 21
273.053228
 31
0.0
  0
LINE
  5
21a
100
AcDbEntity
  8
Layer_1
 62
7
100
AcDbLine
 10
70.334208
 20
273.053228
 30
0.0
 11
70.334208
 21
272.103416
 31
0.0
  0
LINE
  5
21b
100
AcDbEntity
  8
Layer_1
 62
7
100
AcDbLine
 10
70.334208
 20
272.103416
 30
0.0
 11
64.334574
 21
272.103416
 31
0.0
  0
LINE
  5
21c
100
AcDbEntity
  8
Layer_1
 62
7
100
AcDbLine
 10
64.334574
 20
272.103416
 30
0.0
 11
64.334574
 21
273.053228
 31
0.0
  0
LINE
  5
21d
100
AcDbEntity
  8
Layer_1
 62
7
100
AcDbLine
 10
64.334574
 20
273.053228
 30
0.0
 11
63.334635
 21
273.053228
 31
0.0
  0
LINE
  5
21e
100
AcDbEntity
  8
Layer_1
 62
7
100
AcDbLine
 10
63.334635
 20
273.053228
 30
0.0
 11
63.334635
 21
272.053291
 31
0.0
  0
LINE
  5
21f
100
AcDbEntity
  8
Layer_1
 62
7
100
AcDbLine
 10
63.334635
 20
272.053291
 30
0.0
 11
49.334456
 21
272.053291
 31
0.0
  0
LINE
  5
220
100
AcDbEntity
  8
Layer_1
 62
7
100
AcDbLine
 10
49.334456
 20
272.053291
 30
0.0
 11
49.334456
 21
277.052984
 31
0.0
  0
LINE
  5
221
100
AcDbEntity
  8
Layer_1
 62
7
100
AcDbLine
 10
49.334456
 20
277.052984
 30
0.0
 11
63.334635
 21
277.052984
 31
0.0
  0
LINE
  5
222
100
AcDbEntity
  8
Layer_1
 62
7
100
AcDbLine
 10
63.334635
 20
277.052984
 30
0.0
 11
63.334635
 21
276.053045
 31
0.0
  0
LINE
  5
223
100
AcDbEntity
  8
Layer_1
 62
7
100
AcDbLine
 10
63.334635
 20
276.053045
 30
0.0
 11
64.334574
 21
276.053045
 31
0.0
  0
LINE
  5
224
100
AcDbEntity
  8
Layer_1
 62
7
100
AcDbLine
 10
64.334574
 20
276.053045
 30
0.0
 11
64.334574
 21
277.003375
 31
0.0
  0
LINE
  5
225
100
AcDbEntity
  8
Layer_1
 62
7
100
AcDbLine
 10
64.334574
 20
277.003375
 30
0.0
 11
70.334208
 21
277.003375
 31
0.0
  0
LINE
  5
226
100
AcDbEntity
  8
Layer_1
 62
7
100
AcDbLine
 10
70.334208
 20
277.003375
 30
0.0
 11
70.334208
 21
276.053045
 31
0.0
  0
LINE
  5
227
100
AcDbEntity
  8
Layer_1
 62
7
100
AcDbLine
 10
70.334208
 20
276.053045
 30
0.0
 11
71.334148
 21
276.053045
 31
0.0
  0
LINE
  5
228
100
AcDbEntity
  8
Layer_1
 62
7
100
AcDbLine
 10
71.334148
 20
276.053045
 30
0.0
 11
81.334569
 21
276.053045
 31
0.0
  0
LINE
  5
229
100
AcDbEntity
  8
Layer_1
 62
7
100
AcDbLine
 10
81.334569
 20
276.053045
 30
0.0
 11
81.334569
 21
275.553334
 31
0.0
  0
LINE
  5
22a
100
AcDbEntity
  8
Layer_1
 62
7
100
AcDbLine
 10
81.334569
 20
275.553334
 30
0.0
 11
83.334446
 21
275.553334
 31
0.0
  0
LINE
  5
22b
100
AcDbEntity
  8
Layer_1
 62
7
100
AcDbLine
 10
83.334446
 20
275.553334
 30
0.0
 11
83.334446
 21
276.503664
 31
0.0
  0
LINE
  5
22c
100
AcDbEntity
  8
Layer_1
 62
7
100
AcDbLine
 10
83.334446
 20
276.503664
 30
0.0
 11
84.934350
 21
276.503664
 31
0.0
  0
LINE
  5
22d
100
AcDbEntity
  8
Layer_1
 62
7
100
AcDbLine
 10
84.934350
 20
276.503664
 30
0.0
 11
84.934350
 21
275.553334
 31
0.0
  0
LINE
  5
22e
100
AcDbEntity
  8
Layer_1
 62
7
100
AcDbLine
 10
84.934350
 20
275.553334
 30
0.0
 11
87.334203
 21
275.553334
 31
0.0
  0
LINE
  5
22f
100
AcDbEntity
  8
Layer_1
 62
7
100
AcDbLine
 10
87.334203
 20
275.553334
 30
0.0
 11
87.334203
 21
294.352702
 31
0.0
  0
LINE
  5
230
100
AcDbEntity
  8
Layer_1
 62
7
100
AcDbLine
 10
87.334203
 20
294.352702
 30
0.0
 11
84.934350
 21
294.352702
 31
0.0
  0
LINE
  5
231
100
AcDbEntity
  8
Layer_1
 62
7
100
AcDbLine
 10
84.934350
 20
294.352702
 30
0.0
 11
84.934350
 21
293.402890
 31
0.0
  0
LINE
  5
232
100
AcDbEntity
  8
Layer_1
 62
7
100
AcDbLine
 10
84.934350
 20
293.402890
 30
0.0
 11
83.334446
 21
293.402890
 31
0.0
  0
LINE
  5
233
100
AcDbEntity
  8
Layer_1
 62
7
100
AcDbLine
 10
83.334446
 20
293.402890
 30
0.0
 11
83.334446
 21
294.352702
 31
0.0
  0
LINE
  5
234
100
AcDbEntity
  8
Layer_1
 62
7
100
AcDbLine
 10
83.334446
 20
294.352702
 30
0.0
 11
81.334569
 21
294.352702
 31
0.0
  0
LINE
  5
235
100
AcDbEntity
  8
Layer_1
 62
7
100
AcDbLine
 10
81.334569
 20
294.352702
 30
0.0
 11
81.334569
 21
293.852991
 31
0.0
  0
LINE
  5
236
100
AcDbEntity
  8
Layer_1
 62
7
100
AcDbLine
 10
81.334569
 20
293.852991
 30
0.0
 11
71.334148
 21
293.852991
 31
0.0
  0
LINE
  5
237
100
AcDbEntity
  8
Layer_1
 62
7
100
AcDbLine
 10
71.334148
 20
293.852991
 30
0.0
 11
70.334208
 21
293.852991
 31
0.0
  0
LINE
  5
238
100
AcDbEntity
  8
Layer_1
 62
7
100
AcDbLine
 10
70.334208
 20
293.852991
 30
0.0
 11
70.334208
 21
292.903179
 31
0.0
  0
LINE
  5
239
100
AcDbEntity
  8
Layer_1
 62
7
100
AcDbLine
 10
70.334208
 20
292.903179
 30
0.0
 11
64.334574
 21
292.903179
 31
0.0
  0
LINE
  5
23a
100
AcDbEntity
  8
Layer_1
 62
7
100
AcDbLine
 10
64.334574
 20
292.903179
 30
0.0
 11
64.334574
 21
293.852991
 31
0.0
  0
LINE
  5
23b
100
AcDbEntity
  8
Layer_1
 62
7
100
AcDbLine
 10
64.334574
 20
293.852991
 30
0.0
 11
63.334635
 21
293.852991
 31
0.0
  0
LINE
  5
23c
100
AcDbEntity
  8
Layer_1
 62
7
100
AcDbLine
 10
63.334635
 20
293.852991
 30
0.0
 11
63.334635
 21
292.853054
 31
0.0
  0
LINE
  5
23d
100
AcDbEntity
  8
Layer_1
 62
7
100
AcDbLine
 10
63.334635
 20
292.853054
 30
0.0
 11
49.334456
 21
292.853054
 31
0.0
  0
LINE
  5
23e
100
AcDbEntity
  8
Layer_1
 62
7
100
AcDbLine
 10
49.334456
 20
292.853054
 30
0.0
 11
49.334456
 21
297.852748
 31
0.0
  0
LINE
  5
23f
100
AcDbEntity
  8
Layer_1
 62
7
100
AcDbLine
 10
49.334456
 20
297.852748
 30
0.0
 11
63.334635
 21
297.852748
 31
0.0
  0
LINE
  5
240
100
AcDbEntity
  8
Layer_1
 62
7
100
AcDbLine
 10
63.334635
 20
297.852748
 30
0.0
 11
63.334635
 21
296.852808
 31
0.0
  0
LINE
  5
241
100
AcDbEntity
  8
Layer_1
 62
7
100
AcDbLine
 10
63.334635
 20
296.852808
 30
0.0
 11
64.334574
 21
296.852808
 31
0.0
  0
LINE
  5
242
100
AcDbEntity
  8
Layer_1
 62
7
100
AcDbLine
 10
64.334574
 20
296.852808
 30
0.0
 11
64.334574
 21
297.803138
 31
0.0
  0
LINE
  5
243
100
AcDbEntity
  8
Layer_1
 62
7
100
AcDbLine
 10
64.334574
 20
297.803138
 30
0.0
 11
70.334208
 21
297.803138
 31
0.0
  0
LINE
  5
244
100
AcDbEntity
  8
Layer_1
 62
7
100
AcDbLine
 10
70.334208
 20
297.803138
 30
0.0
 11
70.334208
 21
296.852808
 31
0.0
  0
LINE
  5
245
100
AcDbEntity
  8
Layer_1
 62
7
100
AcDbLine
 10
70.334208
 20
296.852808
 30
0.0
 11
71.334148
 21
296.852808
 31
0.0
  0
LINE
  5
246
100
AcDbEntity
  8
Layer_1
 62
7
100
AcDbLine
 10
71.334148
 20
296.852808
 30
0.0
 11
81.334569
 21
296.852808
 31
0.0
  0
LINE
  5
247
100
AcDbEntity
  8
Layer_1
 62
7
100
AcDbLine
 10
81.334569
 20
296.852808
 30
0.0
 11
81.334569
 21
296.353097
 31
0.0
  0
LINE
  5
248
100
AcDbEntity
  8
Layer_1
 62
7
100
AcDbLine
 10
81.334569
 20
296.353097
 30
0.0
 11
83.334446
 21
296.353097
 31
0.0
  0
LINE
  5
249
100
AcDbEntity
  8
Layer_1
 62
7
100
AcDbLine
 10
83.334446
 20
296.353097
 30
0.0
 11
83.334446
 21
297.303428
 31
0.0
  0
LINE
  5
24a
100
AcDbEntity
  8
Layer_1
 62
7
100
AcDbLine
 10
83.334446
 20
297.303428
 30
0.0
 11
84.934350
 21
297.303428
 31
0.0
  0
LINE
  5
24b
100
AcDbEntity
  8
Layer_1
 62
7
100
AcDbLine
 10
84.934350
 20
297.303428
 30
0.0
 11
84.934350
 21
296.353097
 31
0.0
  0
LINE
  5
24c
100
AcDbEntity
  8
Layer_1
 62
7
100
AcDbLine
 10
84.934350
 20
296.353097
 30
0.0
 11
87.334203
 21
296.353097
 31
0.0
  0
LINE
  5
24d
100
AcDbEntity
  8
Layer_1
 62
7
100
AcDbLine
 10
87.334203
 20
296.353097
 30
0.0
 11
87.334203
 21
304.953090
 31
0.0
  0
LINE
  5
24e
100
AcDbEntity
  8
Layer_1
 62
7
100
AcDbLine
 10
87.334203
 20
304.953090
 30
0.0
 11
47.334577
 21
304.953090
 31
0.0
  0
LINE
  5
24f
100
AcDbEntity
  8
Layer_1
 62
7
100
AcDbLine
 10
47.334577
 20
304.953090
 30
0.0
 11
47.334577
 21
304.953090
 31
0.0
  0
SPLINE
  5
250
100
AcDbEntity
  8
Layer_1
 62
7
100
AcDbSpline
 70
8
 71
3
 72
8
 73
4
 74
0
 40
0
 40
0
 40
0
 40
0
 40
1
 40
1
 40
1
 40
1
 10
51.334333
 20
301.903145
 30
0.0
 10
51.858858
 20
301.903043
 30
0.0
 10
52.284044
 20
301.477858
 30
0.0
 10
52.284148
 20
300.953334
 30
0.0
  0
SPLINE
  5
251
100
AcDbEntity
  8
Layer_1
 62
7
100
AcDbSpline
 70
8
 71
3
 72
8
 73
4
 74
0
 40
0
 40
0
 40
0
 40
0
 40
1
 40
1
 40
1
 40
1
 10
52.284148
 20
300.953334
 30
0.0
 10
52.284236
 20
300.701353
 30
0.0
 10
52.184211
 20
300.459660
 30
0.0
 10
52.006082
 20
300.281434
 30
0.0
  0
SPLINE
  5
252
100
AcDbEntity
  8
Layer_1
 62
7
100
AcDbSpline
 70
8
 71
3
 72
8
 73
4
 74
0
 40
0
 40
0
 40
0
 40
0
 40
1
 40
1
 40
1
 40
1
 10
52.006082
 20
300.281434
 30
0.0
 10
51.827953
 20
300.103208
 30
0.0
 10
51.586314
 20
300.003052
 30
0.0
 10
51.334333
 20
300.003003
 30
0.0
  0
SPLINE
  5
253
100
AcDbEntity
  8
Layer_1
 62
7
100
AcDbSpline
 70
8
 71
3
 72
8
 73
4
 74
0
 40
0
 40
0
 40
0
 40
0
 40
1
 40
1
 40
1
 40
1
 10
51.334333
 20
300.003003
 30
0.0
 10
51.082353
 20
300.003053
 30
0.0
 10
50.840715
 20
300.103209
 30
0.0
 10
50.662587
 20
300.281435
 30
0.0
  0
SPLINE
  5
254
100
AcDbEntity
  8
Layer_1
 62
7
100
AcDbSpline
 70
8
 71
3
 72
8
 73
4
 74
0
 40
0
 40
0
 40
0
 40
0
 40
1
 40
1
 40
1
 40
1
 10
50.662587
 20
300.281435
 30
0.0
 10
50.484458
 20
300.459661
 30
0.0
 10
50.384434
 20
300.701353
 30
0.0
 10
50.384522
 20
300.953334
 30
0.0
  0
SPLINE
  5
255
100
AcDbEntity
  8
Layer_1
 62
7
100
AcDbSpline
 70
8
 71
3
 72
8
 73
4
 74
0
 40
0
 40
0
 40
0
 40
0
 40
1
 40
1
 40
1
 40
1
 10
50.384522
 20
300.953334
 30
0.0
 10
50.384625
 20
301.477857
 30
0.0
 10
50.809810
 20
301.903042
 30
0.0
 10
51.334333
 20
301.903145
 30
0.0
  0
LINE
  5
256
100
AcDbEntity
  8
Layer_1
 62
7
100
AcDbLine
 10
51.334333
 20
301.903145
 30
0.0
 11
51.334333
 21
301.903145
 31
0.0
  0
SPLINE
  5
257
100
AcDbEntity
  8
Layer_1
 62
7
100
AcDbSpline
 70
8
 71
3
 72
8
 73
4
 74
0
 40
0
 40
0
 40
0
 40
0
 40
1
 40
1
 40
1
 40
1
 10
83.334446
 20
301.903145
 30
0.0
 10
83.858971
 20
301.903043
 30
0.0
 10
84.284157
 20
301.477858
 30
0.0
 10
84.284261
 20
300.953334
 30
0.0
  0
SPLINE
  5
258
100
AcDbEntity
  8
Layer_1
 62
7
100
AcDbSpline
 70
8
 71
3
 72
8
 73
4
 74
0
 40
0
 40
0
 40
0
 40
0
 40
1
 40
1
 40
1
 40
1
 10
84.284261
 20
300.953334
 30
0.0
 10
84.284348
 20
300.701353
 30
0.0
 10
84.184324
 20
300.459660
 30
0.0
 10
84.006195
 20
300.281434
 30
0.0
  0
SPLINE
  5
259
100
AcDbEntity
  8
Layer_1
 62
7
100
AcDbSpline
 70
8
 71
3
 72
8
 73
4
 74
0
 40
0
 40
0
 40
0
 40
0
 40
1
 40
1
 40
1
 40
1
 10
84.006195
 20
300.281434
 30
0.0
 10
83.828066
 20
300.103208
 30
0.0
 10
83.586427
 20
300.003052
 30
0.0
 10
83.334446
 20
300.003003
 30
0.0
  0
SPLINE
  5
25a
100
AcDbEntity
  8
Layer_1
 62
7
100
AcDbSpline
 70
8
 71
3
 72
8
 73
4
 74
0
 40
0
 40
0
 40
0
 40
0
 40
1
 40
1
 40
1
 40
1
 10
83.334446
 20
300.003003
 30
0.0
 10
83.082466
 20
300.003053
 30
0.0
 10
82.840828
 20
300.103209
 30
0.0
 10
82.662699
 20
300.281435
 30
0.0
  0
SPLINE
  5
25b
100
AcDbEntity
  8
Layer_1
 62
7
100
AcDbSpline
 70
8
 71
3
 72
8
 73
4
 74
0
 40
0
 40
0
 40
0
 40
0
 40
1
 40
1
 40
1
 40
1
 10
82.662699
 20
300.281435
 30
0.0
 10
82.484571
 20
300.459661
 30
0.0
 10
82.384547
 20
300.701353
 30
0.0
 10
82.384634
 20
300.953334
 30
0.0
  0
SPLINE
  5
25c
100
AcDbEntity
  8
Layer_1
 62
7
100
AcDbSpline
 70
8
 71
3
 72
8
 73
4
 74
0
 40
0
 40
0
 40
0
 40
0
 40
1
 40
1
 40
1
 40
1
 10
82.384634
 20
300.953334
 30
0.0
 10
82.384738
 20
301.477857
 30
0.0
 10
82.809923
 20
301.903042
 30
0.0
 10
83.334446
 20
301.903145
 30
0.0
  0
LINE
  5
25d
100
AcDbEntity
  8
Layer_1
 62
7
100
AcDbLine
 10
83.334446
 20
301.903145
 30
0.0
 11
83.334446
 21
301.903145
 31
0.0
  0
SPLINE
  5
25e
100
AcDbEntity
  8
Layer_1
 62
7
100
AcDbSpline
 70
8
 71
3
 72
8
 73
4
 74
0
 40
0
 40
0
 40
0
 40
0
 40
1
 40
1
 40
1
 40
1
 10
67.334391
 20
291.953368
 30
0.0
 10
69.190938
 20
291.953391
 30
0.0
 10
70.971452
 20
291.215891
 30
0.0
 10
72.284229
 20
289.903114
 30
0.0
  0
SPLINE
  5
25f
100
AcDbEntity
  8
Layer_1
 62
7
100
AcDbSpline
 70
8
 71
3
 72
8
 73
4
 74
0
 40
0
 40
0
 40
0
 40
0
 40
1
 40
1
 40
1
 40
1
 10
72.284229
 20
289.903114
 30
0.0
 10
73.597005
 20
288.590337
 30
0.0
 10
74.334505
 20
286.809823
 30
0.0
 10
74.334480
 20
284.953276
 30
0.0
  0
SPLINE
  5
260
100
AcDbEntity
  8
Layer_1
 62
7
100
AcDbSpline
 70
8
 71
3
 72
8
 73
4
 74
0
 40
0
 40
0
 40
0
 40
0
 40
1
 40
1
 40
1
 40
1
 10
74.334480
 20
284.953276
 30
0.0
 10
74.334504
 20
283.096729
 30
0.0
 10
73.597004
 20
281.316216
 30
0.0
 10
72.284228
 20
280.003439
 30
0.0
  0
SPLINE
  5
261
100
AcDbEntity
  8
Layer_1
 62
7
100
AcDbSpline
 70
8
 71
3
 72
8
 73
4
 74
0
 40
0
 40
0
 40
0
 40
0
 40
1
 40
1
 40
1
 40
1
 10
72.284228
 20
280.003439
 30
0.0
 10
70.971451
 20
278.690663
 30
0.0
 10
69.190937
 20
277.953163
 30
0.0
 10
67.334391
 20
277.953187
 30
0.0
  0
SPLINE
  5
262
100
AcDbEntity
  8
Layer_1
 62
7
100
AcDbSpline
 70
8
 71
3
 72
8
 73
4
 74
0
 40
0
 40
0
 40
0
 40
0
 40
1
 40
1
 40
1
 40
1
 10
67.334391
 20
277.953187
 30
0.0
 10
65.477845
 20
277.953163
 30
0.0
 10
63.697331
 20
278.690663
 30
0.0
 10
62.384554
 20
280.003439
 30
0.0
  0
SPLINE
  5
263
100
AcDbEntity
  8
Layer_1
 62
7
100
AcDbSpline
 70
8
 71
3
 72
8
 73
4
 74
0
 40
0
 40
0
 40
0
 40
0
 40
1
 40
1
 40
1
 40
1
 10
62.384554
 20
280.003439
 30
0.0
 10
61.071778
 20
281.316216
 30
0.0
 10
60.334278
 20
283.096729
 30
0.0
 10
60.334302
 20
284.953276
 30
0.0
  0
SPLINE
  5
264
100
AcDbEntity
  8
Layer_1
 62
7
100
AcDbSpline
 70
8
 71
3
 72
8
 73
4
 74
0
 40
0
 40
0
 40
0
 40
0
 40
1
 40
1
 40
1
 40
1
 10
60.334302
 20
284.953276
 30
0.0
 10
60.334278
 20
286.809823
 30
0.0
 10
61.071777
 20
288.590337
 30
0.0
 10
62.384553
 20
289.903114
 30
0.0
  0
SPLINE
  5
265
100
AcDbEntity
  8
Layer_1
 62
7
100
AcDbSpline
 70
8
 71
3
 72
8
 73
4
 74
0
 40
0
 40
0
 40
0
 40
0
 40
1
 40
1
 40
1
 40
1
 10
62.384553
 20
289.903114
 30
0.0
 10
63.697330
 20
291.215891
 30
0.0
 10
65.477844
 20
291.953391
 30
0.0
 10
67.334391
 20
291.953368
 30
0.0
  0
LINE
  5
266
100
AcDbEntity
  8
Layer_1
 62
7
100
AcDbLine
 10
67.334391
 20
291.953368
 30
0.0
 11
67.334391
 21
291.953368
 31
0.0
  0
SPLINE
  5
267
100
AcDbEntity
  8
Layer_1
 62
7
100
AcDbSpline
 70
8
 71
3
 72
8
 73
4
 74
0
 40
0
 40
0
 40
0
 40
0
 40
1
 40
1
 40
1
 40
1
 10
51.334333
 20
269.903033
 30
0.0
 10
51.858858
 20
269.902930
 30
0.0
 10
52.284044
 20
269.477745
 30
0.0
 10
52.284148
 20
268.953221
 30
0.0
  0
SPLINE
  5
268
100
AcDbEntity
  8
Layer_1
 62
7
100
AcDbSpline
 70
8
 71
3
 72
8
 73
4
 74
0
 40
0
 40
0
 40
0
 40
0
 40
1
 40
1
 40
1
 40
1
 10
52.284148
 20
268.953221
 30
0.0
 10
52.284046
 20
268.428695
 30
0.0
 10
51.858859
 20
268.003508
 30
0.0
 10
51.334333
 20
268.003406
 30
0.0
  0
SPLINE
  5
269
100
AcDbEntity
  8
Layer_1
 62
7
100
AcDbSpline
 70
8
 71
3
 72
8
 73
4
 74
0
 40
0
 40
0
 40
0
 40
0
 40
1
 40
1
 40
1
 40
1
 10
51.334333
 20
268.003406
 30
0.0
 10
50.809809
 20
268.003510
 30
0.0
 10
50.384624
 20
268.428696
 30
0.0
 10
50.384522
 20
268.953221
 30
0.0
  0
SPLINE
  5
26a
100
AcDbEntity
  8
Layer_1
 62
7
100
AcDbSpline
 70
8
 71
3
 72
8
 73
4
 74
0
 40
0
 40
0
 40
0
 40
0
 40
1
 40
1
 40
1
 40
1
 10
50.384522
 20
268.953221
 30
0.0
 10
50.384625
 20
269.477744
 30
0.0
 10
50.809810
 20
269.902929
 30
0.0
 10
51.334333
 20
269.903033
 30
0.0
  0
LINE
  5
26b
100
AcDbEntity
  8
Layer_1
 62
7
100
AcDbLine
 10
51.334333
 20
269.903033
 30
0.0
 11
51.334333
 21
269.903033
 31
0.0
  0
SPLINE
  5
26c
100
AcDbEntity
  8
Layer_1
 62
7
100
AcDbSpline
 70
8
 71
3
 72
8
 73
4
 74
0
 40
0
 40
0
 40
0
 40
0
 40
1
 40
1
 40
1
 40
1
 10
83.334446
 20
269.903033
 30
0.0
 10
83.858971
 20
269.902930
 30
0.0
 10
84.284157
 20
269.477745
 30
0.0
 10
84.284261
 20
268.953221
 30
0.0
  0
SPLINE
  5
26d
100
AcDbEntity
  8
Layer_1
 62
7
100
AcDbSpline
 70
8
 71
3
 72
8
 73
4
 74
0
 40
0
 40
0
 40
0
 40
0
 40
1
 40
1
 40
1
 40
1
 10
84.284261
 20
268.953221
 30
0.0
 10
84.284158
 20
268.428695
 30
0.0
 10
83.858972
 20
268.003508
 30
0.0
 10
83.334446
 20
268.003406
 30
0.0
  0
SPLINE
  5
26e
100
AcDbEntity
  8
Layer_1
 62
7
100
AcDbSpline
 70
8
 71
3
 72
8
 73
4
 74
0
 40
0
 40
0
 40
0
 40
0
 40
1
 40
1
 40
1
 40
1
 10
83.334446
 20
268.003406
 30
0.0
 10
82.809922
 20
268.003510
 30
0.0
 10
82.384737
 20
268.428696
 30
0.0
 10
82.384634
 20
268.953221
 30
0.0
  0
SPLINE
  5
26f
100
AcDbEntity
  8
Layer_1
 62
7
100
AcDbSpline
 70
8
 71
3
 72
8
 73
4
 74
0
 40
0
 40
0
 40
0
 40
0
 40
1
 40
1
 40
1
 40
1
 10
82.384634
 20
268.953221
 30
0.0
 10
82.384738
 20
269.477744
 30
0.0
 10
82.809923
 20
269.902929
 30
0.0
 10
83.334446
 20
269.903033
 30
0.0
  0
LINE
  5
270
100
AcDbEntity
  8
Layer_1
 62
7
100
AcDbLine
 10
83.334446
 20
269.903033
 30
0.0
 11
83.334446
 21
269.903033
 31
0.0
  0
LINE
  5
271
100
AcDbEntity
  8
Layer_1
 62
7
100
AcDbLine
 10
91.362381
 20
304.953090
 30
0.0
 11
91.362381
 21
264.952948
 31
0.0
  0
LINE
  5
272
100
AcDbEntity
  8
Layer_1
 62
7
100
AcDbLine
 10
91.362381
 20
264.952948
 30
0.0
 11
110.912610
 21
264.952948
 31
0.0
  0
LINE
  5
273
100
AcDbEntity
  8
Layer_1
 62
7
100
AcDbLine
 10
110.912610
 20
264.952948
 30
0.0
 11
110.912610
 21
266.953341
 31
0.0
  0
LINE
  5
274
100
AcDbEntity
  8
Layer_1
 62
7
100
AcDbLine
 10
110.912610
 20
266.953341
 30
0.0
 11
109.863060
 21
266.953341
 31
0.0
  0
SPLINE
  5
275
100
AcDbEntity
  8
Layer_1
 62
7
100
AcDbSpline
 70
8
 71
3
 72
8
 73
4
 74
0
 40
0
 40
0
 40
0
 40
0
 40
1
 40
1
 40
1
 40
1
 10
109.863060
 20
266.953341
 30
0.0
 10
109.863079
 20
268.548384
 30
0.0
 10
109.863235
 20
270.365302
 30
0.0
 10
109.863060
 20
272.103416
 30
0.0
  0
LINE
  5
276
100
AcDbEntity
  8
Layer_1
 62
7
100
AcDbLine
 10
109.863060
 20
272.103416
 30
0.0
 11
108.362376
 21
272.103416
 31
0.0
  0
LINE
  5
277
100
AcDbEntity
  8
Layer_1
 62
7
100
AcDbLine
 10
108.362376
 20
272.103416
 30
0.0
 11
108.362376
 21
273.053228
 31
0.0
  0
LINE
  5
278
100
AcDbEntity
  8
Layer_1
 62
7
100
AcDbLine
 10
108.362376
 20
273.053228
 30
0.0
 11
107.362438
 21
273.053228
 31
0.0
  0
LINE
  5
279
100
AcDbEntity
  8
Layer_1
 62
7
100
AcDbLine
 10
107.362438
 20
273.053228
 30
0.0
 11
107.362438
 21
272.502873
 31
0.0
  0
LINE
  5
27a
100
AcDbEntity
  8
Layer_1
 62
7
100
AcDbLine
 10
107.362438
 20
272.502873
 30
0.0
 11
107.362438
 21
272.052772
 31
0.0
  0
LINE
  5
27b
100
AcDbEntity
  8
Layer_1
 62
7
100
AcDbLine
 10
107.362438
 20
272.052772
 30
0.0
 11
106.361983
 21
272.052772
 31
0.0
  0
LINE
  5
27c
100
AcDbEntity
  8
Layer_1
 62
7
100
AcDbLine
 10
106.361983
 20
272.052772
 30
0.0
 11
106.361983
 21
272.053291
 31
0.0
  0
LINE
  5
27d
100
AcDbEntity
  8
Layer_1
 62
7
100
AcDbLine
 10
106.361983
 20
272.053291
 30
0.0
 11
93.362258
 21
272.053291
 31
0.0
  0
LINE
  5
27e
100
AcDbEntity
  8
Layer_1
 62
7
100
AcDbLine
 10
93.362258
 20
272.053291
 30
0.0
 11
93.362258
 21
273.053228
 31
0.0
  0
SPLINE
  5
27f
100
AcDbEntity
  8
Layer_1
 62
7
100
AcDbSpline
 70
8
 71
3
 72
8
 73
4
 74
0
 40
0
 40
0
 40
0
 40
0
 40
1
 40
1
 40
1
 40
1
 10
93.362258
 20
273.053228
 30
0.0
 10
95.695020
 20
273.053228
 30
0.0
 10
97.028425
 20
273.051995
 30
0.0
 10
99.361894
 20
273.052712
 30
0.0
  0
LINE
  5
280
100
AcDbEntity
  8
Layer_1
 62
7
100
AcDbLine
 10
99.361894
 20
273.052712
 30
0.0
 11
99.361894
 21
274.053168
 31
0.0
  0
LINE
  5
281
100
AcDbEntity
  8
Layer_1
 62
7
100
AcDbLine
 10
99.361894
 20
274.053168
 30
0.0
 11
97.362014
 21
274.053168
 31
0.0
  0
LINE
  5
282
100
AcDbEntity
  8
Layer_1
 62
7
100
AcDbLine
 10
97.362014
 20
274.053168
 30
0.0
 11
97.362014
 21
275.053107
 31
0.0
  0
LINE
  5
283
100
AcDbEntity
  8
Layer_1
 62
7
100
AcDbLine
 10
97.362014
 20
275.053107
 30
0.0
 11
99.361894
 21
275.053107
 31
0.0
  0
LINE
  5
284
100
AcDbEntity
  8
Layer_1
 62
7
100
AcDbLine
 10
99.361894
 20
275.053107
 30
0.0
 11
99.361894
 21
276.053045
 31
0.0
  0
LINE
  5
285
100
AcDbEntity
  8
Layer_1
 62
7
100
AcDbLine
 10
99.361894
 20
276.053045
 30
0.0
 11
93.362258
 21
276.053045
 31
0.0
  0
LINE
  5
286
100
AcDbEntity
  8
Layer_1
 62
7
100
AcDbLine
 10
93.362258
 20
276.053045
 30
0.0
 11
93.362258
 21
277.052984
 31
0.0
  0
LINE
  5
287
100
AcDbEntity
  8
Layer_1
 62
7
100
AcDbLine
 10
93.362258
 20
277.052984
 30
0.0
 11
106.361983
 21
277.052984
 31
0.0
  0
LINE
  5
288
100
AcDbEntity
  8
Layer_1
 62
7
100
AcDbLine
 10
106.361983
 20
277.052984
 30
0.0
 11
107.362438
 21
277.052984
 31
0.0
  0
LINE
  5
289
100
AcDbEntity
  8
Layer_1
 62
7
100
AcDbLine
 10
107.362438
 20
277.052984
 30
0.0
 11
107.362438
 21
276.602883
 31
0.0
  0
LINE
  5
28a
100
AcDbEntity
  8
Layer_1
 62
7
100
AcDbLine
 10
107.362438
 20
276.602883
 30
0.0
 11
107.362438
 21
276.053045
 31
0.0
  0
LINE
  5
28b
100
AcDbEntity
  8
Layer_1
 62
7
100
AcDbLine
 10
107.362438
 20
276.053045
 30
0.0
 11
108.362376
 21
276.053045
 31
0.0
  0
LINE
  5
28c
100
AcDbEntity
  8
Layer_1
 62
7
100
AcDbLine
 10
108.362376
 20
276.053045
 30
0.0
 11
108.362376
 21
277.002859
 31
0.0
  0
LINE
  5
28d
100
AcDbEntity
  8
Layer_1
 62
7
100
AcDbLine
 10
108.362376
 20
277.002859
 30
0.0
 11
109.862545
 21
277.002859
 31
0.0
  0
SPLINE
  5
28e
100
AcDbEntity
  8
Layer_1
 62
7
100
AcDbSpline
 70
8
 71
3
 72
8
 73
4
 74
0
 40
0
 40
0
 40
0
 40
0
 40
1
 40
1
 40
1
 40
1
 10
109.862545
 20
277.002859
 30
0.0
 10
109.862526
 20
278.082923
 30
0.0
 10
109.862394
 20
279.141094
 30
0.0
 10
109.862545
 20
280.184577
 30
0.0
  0
SPLINE
  5
28f
100
AcDbEntity
  8
Layer_1
 62
7
100
AcDbSpline
 70
8
 71
3
 72
8
 73
4
 74
0
 40
0
 40
0
 40
0
 40
0
 40
1
 40
1
 40
1
 40
1
 10
109.862545
 20
280.184577
 30
0.0
 10
107.779864
 20
280.839526
 30
0.0
 10
106.362938
 20
282.770045
 30
0.0
 10
106.362499
 20
284.953276
 30
0.0
  0
SPLINE
  5
290
100
AcDbEntity
  8
Layer_1
 62
7
100
AcDbSpline
 70
8
 71
3
 72
8
 73
4
 74
0
 40
0
 40
0
 40
0
 40
0
 40
1
 40
1
 40
1
 40
1
 10
106.362499
 20
284.953276
 30
0.0
 10
106.365197
 20
287.134601
 30
0.0
 10
107.781684
 20
289.062435
 30
0.0
 10
109.862545
 20
289.716810
 30
0.0
  0
LINE
  5
291
100
AcDbEntity
  8
Layer_1
 62
7
100
AcDbLine
 10
109.862545
 20
289.716810
 30
0.0
 11
109.862545
 21
292.903179
 31
0.0
  0
LINE
  5
292
100
AcDbEntity
  8
Layer_1
 62
7
100
AcDbLine
 10
109.862545
 20
292.903179
 30
0.0
 11
108.362376
 21
292.903179
 31
0.0
  0
LINE
  5
293
100
AcDbEntity
  8
Layer_1
 62
7
100
AcDbLine
 10
108.362376
 20
292.903179
 30
0.0
 11
108.362376
 21
293.852991
 31
0.0
  0
LINE
  5
294
100
AcDbEntity
  8
Layer_1
 62
7
100
AcDbLine
 10
108.362376
 20
293.852991
 30
0.0
 11
107.362438
 21
293.852991
 31
0.0
  0
LINE
  5
295
100
AcDbEntity
  8
Layer_1
 62
7
100
AcDbLine
 10
107.362438
 20
293.852991
 30
0.0
 11
107.362438
 21
293.302639
 31
0.0
  0
LINE
  5
296
100
AcDbEntity
  8
Layer_1
 62
7
100
AcDbLine
 10
107.362438
 20
293.302639
 30
0.0
 11
107.362438
 21
292.852536
 31
0.0
  0
LINE
  5
297
100
AcDbEntity
  8
Layer_1
 62
7
100
AcDbLine
 10
107.362438
 20
292.852536
 30
0.0
 11
106.361983
 21
292.852536
 31
0.0
  0
LINE
  5
298
100
AcDbEntity
  8
Layer_1
 62
7
100
AcDbLine
 10
106.361983
 20
292.852536
 30
0.0
 11
106.361983
 21
292.853054
 31
0.0
  0
LINE
  5
299
100
AcDbEntity
  8
Layer_1
 62
7
100
AcDbLine
 10
106.361983
 20
292.853054
 30
0.0
 11
93.362258
 21
292.853054
 31
0.0
  0
LINE
  5
29a
100
AcDbEntity
  8
Layer_1
 62
7
100
AcDbLine
 10
93.362258
 20
292.853054
 30
0.0
 11
93.362258
 21
293.852991
 31
0.0
  0
SPLINE
  5
29b
100
AcDbEntity
  8
Layer_1
 62
7
100
AcDbSpline
 70
8
 71
3
 72
8
 73
4
 74
0
 40
0
 40
0
 40
0
 40
0
 40
1
 40
1
 40
1
 40
1
 10
93.362258
 20
293.852991
 30
0.0
 10
95.695020
 20
293.852991
 30
0.0
 10
97.028427
 20
293.851758
 30
0.0
 10
99.361894
 20
293.852475
 30
0.0
  0
LINE
  5
29c
100
AcDbEntity
  8
Layer_1
 62
7
100
AcDbLine
 10
99.361894
 20
293.852475
 30
0.0
 11
99.361894
 21
294.852931
 31
0.0
  0
LINE
  5
29d
100
AcDbEntity
  8
Layer_1
 62
7
100
AcDbLine
 10
99.361894
 20
294.852931
 30
0.0
 11
97.362014
 21
294.852931
 31
0.0
  0
LINE
  5
29e
100
AcDbEntity
  8
Layer_1
 62
7
100
AcDbLine
 10
97.362014
 20
294.852931
 30
0.0
 11
97.362014
 21
295.852871
 31
0.0
  0
LINE
  5
29f
100
AcDbEntity
  8
Layer_1
 62
7
100
AcDbLine
 10
97.362014
 20
295.852871
 30
0.0
 11
99.361894
 21
295.852871
 31
0.0
  0
LINE
  5
2a0
100
AcDbEntity
  8
Layer_1
 62
7
100
AcDbLine
 10
99.361894
 20
295.852871
 30
0.0
 11
99.361894
 21
296.852808
 31
0.0
  0
LINE
  5
2a1
100
AcDbEntity
  8
Layer_1
 62
7
100
AcDbLine
 10
99.361894
 20
296.852808
 30
0.0
 11
93.362258
 21
296.852808
 31
0.0
  0
LINE
  5
2a2
100
AcDbEntity
  8
Layer_1
 62
7
100
AcDbLine
 10
93.362258
 20
296.852808
 30
0.0
 11
93.362258
 21
297.852748
 31
0.0
  0
LINE
  5
2a3
100
AcDbEntity
  8
Layer_1
 62
7
100
AcDbLine
 10
93.362258
 20
297.852748
 30
0.0
 11
106.361983
 21
297.852748
 31
0.0
  0
LINE
  5
2a4
100
AcDbEntity
  8
Layer_1
 62
7
100
AcDbLine
 10
106.361983
 20
297.852748
 30
0.0
 11
107.362438
 21
297.852748
 31
0.0
  0
LINE
  5
2a5
100
AcDbEntity
  8
Layer_1
 62
7
100
AcDbLine
 10
107.362438
 20
297.852748
 30
0.0
 11
107.362438
 21
297.402646
 31
0.0
  0
LINE
  5
2a6
100
AcDbEntity
  8
Layer_1
 62
7
100
AcDbLine
 10
107.362438
 20
297.402646
 30
0.0
 11
107.362438
 21
296.852808
 31
0.0
  0
LINE
  5
2a7
100
AcDbEntity
  8
Layer_1
 62
7
100
AcDbLine
 10
107.362438
 20
296.852808
 30
0.0
 11
108.362376
 21
296.852808
 31
0.0
  0
LINE
  5
2a8
100
AcDbEntity
  8
Layer_1
 62
7
100
AcDbLine
 10
108.362376
 20
296.852808
 30
0.0
 11
108.362376
 21
297.802622
 31
0.0
  0
LINE
  5
2a9
100
AcDbEntity
  8
Layer_1
 62
7
100
AcDbLine
 10
108.362376
 20
297.802622
 30
0.0
 11
109.862545
 21
297.802622
 31
0.0
  0
LINE
  5
2aa
100
AcDbEntity
  8
Layer_1
 62
7
100
AcDbLine
 10
109.862545
 20
297.802622
 30
0.0
 11
109.862545
 21
302.953211
 31
0.0
  0
LINE
  5
2ab
100
AcDbEntity
  8
Layer_1
 62
7
100
AcDbLine
 10
109.862545
 20
302.953211
 30
0.0
 11
110.912610
 21
302.953211
 31
0.0
  0
LINE
  5
2ac
100
AcDbEntity
  8
Layer_1
 62
7
100
AcDbLine
 10
110.912610
 20
302.953211
 30
0.0
 11
110.912610
 21
304.953090
 31
0.0
  0
LINE
  5
2ad
100
AcDbEntity
  8
Layer_1
 62
7
100
AcDbLine
 10
110.912610
 20
304.953090
 30
0.0
 11
91.362381
 21
304.953090
 31
0.0
  0
LINE
  5
2ae
100
AcDbEntity
  8
Layer_1
 62
7
100
AcDbLine
 10
91.362381
 20
304.953090
 30
0.0
 11
91.362381
 21
304.953090
 31
0.0
  0
LINE
  5
2af
100
AcDbEntity
  8
Layer_1
 62
7
100
AcDbLine
 10
111.812296
 20
304.953090
 30
0.0
 11
111.812296
 21
302.953211
 31
0.0
  0
LINE
  5
2b0
100
AcDbEntity
  8
Layer_1
 62
7
100
AcDbLine
 10
111.812296
 20
302.953211
 30
0.0
 11
112.862877
 21
302.953211
 31
0.0
  0
LINE
  5
2b1
100
AcDbEntity
  8
Layer_1
 62
7
100
AcDbLine
 10
112.862877
 20
302.953211
 30
0.0
 11
112.862877
 21
297.802622
 31
0.0
  0
LINE
  5
2b2
100
AcDbEntity
  8
Layer_1
 62
7
100
AcDbLine
 10
112.862877
 20
297.802622
 30
0.0
 11
114.362528
 21
297.802622
 31
0.0
  0
LINE
  5
2b3
100
AcDbEntity
  8
Layer_1
 62
7
100
AcDbLine
 10
114.362528
 20
297.802622
 30
0.0
 11
114.362528
 21
296.852808
 31
0.0
  0
LINE
  5
2b4
100
AcDbEntity
  8
Layer_1
 62
7
100
AcDbLine
 10
114.362528
 20
296.852808
 30
0.0
 11
115.361949
 21
296.852808
 31
0.0
  0
LINE
  5
2b5
100
AcDbEntity
  8
Layer_1
 62
7
100
AcDbLine
 10
115.361949
 20
296.852808
 30
0.0
 11
125.362373
 21
296.852808
 31
0.0
  0
LINE
  5
2b6
100
AcDbEntity
  8
Layer_1
 62
7
100
AcDbLine
 10
125.362373
 20
296.852808
 30
0.0
 11
125.362373
 21
293.852991
 31
0.0
  0
LINE
  5
2b7
100
AcDbEntity
  8
Layer_1
 62
7
100
AcDbLine
 10
125.362373
 20
293.852991
 30
0.0
 11
115.361949
 21
293.852991
 31
0.0
  0
LINE
  5
2b8
100
AcDbEntity
  8
Layer_1
 62
7
100
AcDbLine
 10
115.361949
 20
293.852991
 30
0.0
 11
114.362528
 21
293.852991
 31
0.0
  0
LINE
  5
2b9
100
AcDbEntity
  8
Layer_1
 62
7
100
AcDbLine
 10
114.362528
 20
293.852991
 30
0.0
 11
114.362528
 21
292.903179
 31
0.0
  0
LINE
  5
2ba
100
AcDbEntity
  8
Layer_1
 62
7
100
AcDbLine
 10
114.362528
 20
292.903179
 30
0.0
 11
112.862877
 21
292.903179
 31
0.0
  0
LINE
  5
2bb
100
AcDbEntity
  8
Layer_1
 62
7
100
AcDbLine
 10
112.862877
 20
292.903179
 30
0.0
 11
112.862877
 21
289.721462
 31
0.0
  0
SPLINE
  5
2bc
100
AcDbEntity
  8
Layer_1
 62
7
100
AcDbSpline
 70
8
 71
3
 72
8
 73
4
 74
0
 40
0
 40
0
 40
0
 40
0
 40
1
 40
1
 40
1
 40
1
 10
112.862877
 20
289.721462
 30
0.0
 10
114.945166
 20
289.066385
 30
0.0
 10
116.361804
 20
287.136178
 30
0.0
 10
116.362404
 20
284.953276
 30
0.0
  0
SPLINE
  5
2bd
100
AcDbEntity
  8
Layer_1
 62
7
100
AcDbSpline
 70
8
 71
3
 72
8
 73
4
 74
0
 40
0
 40
0
 40
0
 40
0
 40
1
 40
1
 40
1
 40
1
 10
116.362404
 20
284.953276
 30
0.0
 10
116.359785
 20
282.772088
 30
0.0
 10
114.943537
 20
280.844305
 30
0.0
 10
112.862877
 20
280.189744
 30
0.0
  0
LINE
  5
2be
100
AcDbEntity
  8
Layer_1
 62
7
100
AcDbLine
 10
112.862877
 20
280.189744
 30
0.0
 11
112.862877
 21
277.002859
 31
0.0
  0
LINE
  5
2bf
100
AcDbEntity
  8
Layer_1
 62
7
100
AcDbLine
 10
112.862877
 20
277.002859
 30
0.0
 11
114.362528
 21
277.002859
 31
0.0
  0
LINE
  5
2c0
100
AcDbEntity
  8
Layer_1
 62
7
100
AcDbLine
 10
114.362528
 20
277.002859
 30
0.0
 11
114.362528
 21
276.053045
 31
0.0
  0
LINE
  5
2c1
100
AcDbEntity
  8
Layer_1
 62
7
100
AcDbLine
 10
114.362528
 20
276.053045
 30
0.0
 11
115.361949
 21
276.053045
 31
0.0
  0
LINE
  5
2c2
100
AcDbEntity
  8
Layer_1
 62
7
100
AcDbLine
 10
115.361949
 20
276.053045
 30
0.0
 11
125.362373
 21
276.053045
 31
0.0
  0
LINE
  5
2c3
100
AcDbEntity
  8
Layer_1
 62
7
100
AcDbLine
 10
125.362373
 20
276.053045
 30
0.0
 11
125.362373
 21
273.053228
 31
0.0
  0
LINE
  5
2c4
100
AcDbEntity
  8
Layer_1
 62
7
100
AcDbLine
 10
125.362373
 20
273.053228
 30
0.0
 11
115.361949
 21
273.053228
 31
0.0
  0
LINE
  5
2c5
100
AcDbEntity
  8
Layer_1
 62
7
100
AcDbLine
 10
115.361949
 20
273.053228
 30
0.0
 11
114.362528
 21
273.053228
 31
0.0
  0
LINE
  5
2c6
100
AcDbEntity
  8
Layer_1
 62
7
100
AcDbLine
 10
114.362528
 20
273.053228
 30
0.0
 11
114.362528
 21
272.103416
 31
0.0
  0
LINE
  5
2c7
100
AcDbEntity
  8
Layer_1
 62
7
100
AcDbLine
 10
114.362528
 20
272.103416
 30
0.0
 11
112.862877
 21
272.103416
 31
0.0
  0
LINE
  5
2c8
100
AcDbEntity
  8
Layer_1
 62
7
100
AcDbLine
 10
112.862877
 20
272.103416
 30
0.0
 11
112.862877
 21
266.953341
 31
0.0
  0
LINE
  5
2c9
100
AcDbEntity
  8
Layer_1
 62
7
100
AcDbLine
 10
112.862877
 20
266.953341
 30
0.0
 11
111.812296
 21
266.953341
 31
0.0
  0
LINE
  5
2ca
100
AcDbEntity
  8
Layer_1
 62
7
100
AcDbLine
 10
111.812296
 20
266.953341
 30
0.0
 11
111.812296
 21
264.952948
 31
0.0
  0
LINE
  5
2cb
100
AcDbEntity
  8
Layer_1
 62
7
100
AcDbLine
 10
111.812296
 20
264.952948
 30
0.0
 11
131.362522
 21
264.952948
 31
0.0
  0
LINE
  5
2cc
100
AcDbEntity
  8
Layer_1
 62
7
100
AcDbLine
 10
131.362522
 20
264.952948
 30
0.0
 11
131.362522
 21
304.953090
 31
0.0
  0
LINE
  5
2cd
100
AcDbEntity
  8
Layer_1
 62
7
100
AcDbLine
 10
131.362522
 20
304.953090
 30
0.0
 11
111.812296
 21
304.953090
 31
0.0
  0
LINE
  5
2ce
100
AcDbEntity
  8
Layer_1
 62
7
100
AcDbLine
 10
111.812296
 20
304.953090
 30
0.0
 11
111.812296
 21
304.953090
 31
0.0
  0
SPLINE
  5
2cf
100
AcDbEntity
  8
Layer_1
 62
7
100
AcDbSpline
 70
8
 71
3
 72
8
 73
4
 74
0
 40
0
 40
0
 40
0
 40
0
 40
1
 40
1
 40
1
 40
1
 10
95.362137
 20
301.903145
 30
0.0
 10
95.886661
 20
301.903042
 30
0.0
 10
96.311845
 20
301.477857
 30
0.0
 10
96.311949
 20
300.953334
 30
0.0
  0
SPLINE
  5
2d0
100
AcDbEntity
  8
Layer_1
 62
7
100
AcDbSpline
 70
8
 71
3
 72
8
 73
4
 74
0
 40
0
 40
0
 40
0
 40
0
 40
1
 40
1
 40
1
 40
1
 10
96.311949
 20
300.953334
 30
0.0
 10
96.312037
 20
300.701353
 30
0.0
 10
96.212012
 20
300.459661
 30
0.0
 10
96.033884
 20
300.281435
 30
0.0
  0
SPLINE
  5
2d1
100
AcDbEntity
  8
Layer_1
 62
7
100
AcDbSpline
 70
8
 71
3
 72
8
 73
4
 74
0
 40
0
 40
0
 40
0
 40
0
 40
1
 40
1
 40
1
 40
1
 10
96.033884
 20
300.281435
 30
0.0
 10
95.855756
 20
300.103209
 30
0.0
 10
95.614118
 20
300.003053
 30
0.0
 10
95.362137
 20
300.003003
 30
0.0
  0
SPLINE
  5
2d2
100
AcDbEntity
  8
Layer_1
 62
7
100
AcDbSpline
 70
8
 71
3
 72
8
 73
4
 74
0
 40
0
 40
0
 40
0
 40
0
 40
1
 40
1
 40
1
 40
1
 10
95.362137
 20
300.003003
 30
0.0
 10
95.110156
 20
300.003052
 30
0.0
 10
94.868518
 20
300.103208
 30
0.0
 10
94.690389
 20
300.281434
 30
0.0
  0
SPLINE
  5
2d3
100
AcDbEntity
  8
Layer_1
 62
7
100
AcDbSpline
 70
8
 71
3
 72
8
 73
4
 74
0
 40
0
 40
0
 40
0
 40
0
 40
1
 40
1
 40
1
 40
1
 10
94.690389
 20
300.281434
 30
0.0
 10
94.512260
 20
300.459660
 30
0.0
 10
94.412235
 20
300.701353
 30
0.0
 10
94.412323
 20
300.953334
 30
0.0
  0
SPLINE
  5
2d4
100
AcDbEntity
  8
Layer_1
 62
7
100
AcDbSpline
 70
8
 71
3
 72
8
 73
4
 74
0
 40
0
 40
0
 40
0
 40
0
 40
1
 40
1
 40
1
 40
1
 10
94.412323
 20
300.953334
 30
0.0
 10
94.412426
 20
301.477858
 30
0.0
 10
94.837612
 20
301.903043
 30
0.0
 10
95.362137
 20
301.903145
 30
0.0
  0
LINE
  5
2d5
100
AcDbEntity
  8
Layer_1
 62
7
100
AcDbLine
 10
95.362137
 20
301.903145
 30
0.0
 11
95.362137
 21
301.903145
 31
0.0
  0
SPLINE
  5
2d6
100
AcDbEntity
  8
Layer_1
 62
7
100
AcDbSpline
 70
8
 71
3
 72
8
 73
4
 74
0
 40
0
 40
0
 40
0
 40
0
 40
1
 40
1
 40
1
 40
1
 10
127.362250
 20
301.903145
 30
0.0
 10
127.886774
 20
301.903042
 30
0.0
 10
128.311958
 20
301.477857
 30
0.0
 10
128.312062
 20
300.953334
 30
0.0
  0
SPLINE
  5
2d7
100
AcDbEntity
  8
Layer_1
 62
7
100
AcDbSpline
 70
8
 71
3
 72
8
 73
4
 74
0
 40
0
 40
0
 40
0
 40
0
 40
1
 40
1
 40
1
 40
1
 10
128.312062
 20
300.953334
 30
0.0
 10
128.312150
 20
300.701353
 30
0.0
 10
128.212125
 20
300.459661
 30
0.0
 10
128.033997
 20
300.281435
 30
0.0
  0
SPLINE
  5
2d8
100
AcDbEntity
  8
Layer_1
 62
7
100
AcDbSpline
 70
8
 71
3
 72
8
 73
4
 74
0
 40
0
 40
0
 40
0
 40
0
 40
1
 40
1
 40
1
 40
1
 10
128.033997
 20
300.281435
 30
0.0
 10
127.855868
 20
300.103209
 30
0.0
 10
127.614230
 20
300.003053
 30
0.0
 10
127.362250
 20
300.003003
 30
0.0
  0
SPLINE
  5
2d9
100
AcDbEntity
  8
Layer_1
 62
7
100
AcDbSpline
 70
8
 71
3
 72
8
 73
4
 74
0
 40
0
 40
0
 40
0
 40
0
 40
1
 40
1
 40
1
 40
1
 10
127.362250
 20
300.003003
 30
0.0
 10
127.110270
 20
300.003053
 30
0.0
 10
126.868632
 20
300.103209
 30
0.0
 10
126.690503
 20
300.281435
 30
0.0
  0
SPLINE
  5
2da
100
AcDbEntity
  8
Layer_1
 62
7
100
AcDbSpline
 70
8
 71
3
 72
8
 73
4
 74
0
 40
0
 40
0
 40
0
 40
0
 40
1
 40
1
 40
1
 40
1
 10
126.690503
 20
300.281435
 30
0.0
 10
126.512375
 20
300.459661
 30
0.0
 10
126.412350
 20
300.701353
 30
0.0
 10
126.412438
 20
300.953334
 30
0.0
  0
SPLINE
  5
2db
100
AcDbEntity
  8
Layer_1
 62
7
100
AcDbSpline
 70
8
 71
3
 72
8
 73
4
 74
0
 40
0
 40
0
 40
0
 40
0
 40
1
 40
1
 40
1
 40
1
 10
126.412438
 20
300.953334
 30
0.0
 10
126.412542
 20
301.477857
 30
0.0
 10
126.837726
 20
301.903042
 30
0.0
 10
127.362250
 20
301.903145
 30
0.0
  0
LINE
  5
2dc
100
AcDbEntity
  8
Layer_1
 62
7
100
AcDbLine
 10
127.362250
 20
301.903145
 30
0.0
 11
127.362250
 21
301.903145
 31
0.0
  0
LINE
  5
2dd
100
AcDbEntity
  8
Layer_1
 62
7
100
AcDbLine
 10
127.362766
 20
297.303428
 30
0.0
 11
128.962670
 21
297.303428
 31
0.0
  0
LINE
  5
2de
100
AcDbEntity
  8
Layer_1
 62
7
100
AcDbLine
 10
128.962670
 20
297.303428
 30
0.0
 11
128.962670
 21
293.402890
 31
0.0
  0
LINE
  5
2df
100
AcDbEntity
  8
Layer_1
 62
7
100
AcDbLine
 10
128.962670
 20
293.402890
 30
0.0
 11
127.362766
 21
293.402890
 31
0.0
  0
LINE
  5
2e0
100
AcDbEntity
  8
Layer_1
 62
7
100
AcDbLine
 10
127.362766
 20
293.402890
 30
0.0
 11
127.362766
 21
297.303428
 31
0.0
  0
LINE
  5
2e1
100
AcDbEntity
  8
Layer_1
 62
7
100
AcDbLine
 10
127.362766
 20
297.303428
 30
0.0
 11
127.362766
 21
297.303428
 31
0.0
  0
LINE
  5
2e2
100
AcDbEntity
  8
Layer_1
 62
7
100
AcDbLine
 10
127.362766
 20
276.503664
 30
0.0
 11
128.962670
 21
276.503664
 31
0.0
  0
LINE
  5
2e3
100
AcDbEntity
  8
Layer_1
 62
7
100
AcDbLine
 10
128.962670
 20
276.503664
 30
0.0
 11
128.962670
 21
272.603127
 31
0.0
  0
LINE
  5
2e4
100
AcDbEntity
  8
Layer_1
 62
7
100
AcDbLine
 10
128.962670
 20
272.603127
 30
0.0
 11
127.362766
 21
272.603127
 31
0.0
  0
LINE
  5
2e5
100
AcDbEntity
  8
Layer_1
 62
7
100
AcDbLine
 10
127.362766
 20
272.603127
 30
0.0
 11
127.362766
 21
276.503664
 31
0.0
  0
LINE
  5
2e6
100
AcDbEntity
  8
Layer_1
 62
7
100
AcDbLine
 10
127.362766
 20
276.503664
 30
0.0
 11
127.362766
 21
276.503664
 31
0.0
  0
SPLINE
  5
2e7
100
AcDbEntity
  8
Layer_1
 62
7
100
AcDbSpline
 70
8
 71
3
 72
8
 73
4
 74
0
 40
0
 40
0
 40
0
 40
0
 40
1
 40
1
 40
1
 40
1
 10
95.362137
 20
269.903033
 30
0.0
 10
95.886661
 20
269.902929
 30
0.0
 10
96.311845
 20
269.477744
 30
0.0
 10
96.311949
 20
268.953221
 30
0.0
  0
SPLINE
  5
2e8
100
AcDbEntity
  8
Layer_1
 62
7
100
AcDbSpline
 70
8
 71
3
 72
8
 73
4
 74
0
 40
0
 40
0
 40
0
 40
0
 40
1
 40
1
 40
1
 40
1
 10
96.311949
 20
268.953221
 30
0.0
 10
96.311847
 20
268.428696
 30
0.0
 10
95.886662
 20
268.003510
 30
0.0
 10
95.362137
 20
268.003406
 30
0.0
  0
SPLINE
  5
2e9
100
AcDbEntity
  8
Layer_1
 62
7
100
AcDbSpline
 70
8
 71
3
 72
8
 73
4
 74
0
 40
0
 40
0
 40
0
 40
0
 40
1
 40
1
 40
1
 40
1
 10
95.362137
 20
268.003406
 30
0.0
 10
94.837611
 20
268.003508
 30
0.0
 10
94.412425
 20
268.428695
 30
0.0
 10
94.412323
 20
268.953221
 30
0.0
  0
SPLINE
  5
2ea
100
AcDbEntity
  8
Layer_1
 62
7
100
AcDbSpline
 70
8
 71
3
 72
8
 73
4
 74
0
 40
0
 40
0
 40
0
 40
0
 40
1
 40
1
 40
1
 40
1
 10
94.412323
 20
268.953221
 30
0.0
 10
94.412426
 20
269.477745
 30
0.0
 10
94.837612
 20
269.902930
 30
0.0
 10
95.362137
 20
269.903033
 30
0.0
  0
LINE
  5
2eb
100
AcDbEntity
  8
Layer_1
 62
7
100
AcDbLine
 10
95.362137
 20
269.903033
 30
0.0
 11
95.362137
 21
269.903033
 31
0.0
  0
SPLINE
  5
2ec
100
AcDbEntity
  8
Layer_1
 62
7
100
AcDbSpline
 70
8
 71
3
 72
8
 73
4
 74
0
 40
0
 40
0
 40
0
 40
0
 40
1
 40
1
 40
1
 40
1
 10
127.362250
 20
269.903033
 30
0.0
 10
127.886774
 20
269.902929
 30
0.0
 10
128.311958
 20
269.477744
 30
0.0
 10
128.312062
 20
268.953221
 30
0.0
  0
SPLINE
  5
2ed
100
AcDbEntity
  8
Layer_1
 62
7
100
AcDbSpline
 70
8
 71
3
 72
8
 73
4
 74
0
 40
0
 40
0
 40
0
 40
0
 40
1
 40
1
 40
1
 40
1
 10
128.312062
 20
268.953221
 30
0.0
 10
128.311960
 20
268.428696
 30
0.0
 10
127.886775
 20
268.003510
 30
0.0
 10
127.362250
 20
268.003406
 30
0.0
  0
SPLINE
  5
2ee
100
AcDbEntity
  8
Layer_1
 62
7
100
AcDbSpline
 70
8
 71
3
 72
8
 73
4
 74
0
 40
0
 40
0
 40
0
 40
0
 40
1
 40
1
 40
1
 40
1
 10
127.362250
 20
268.003406
 30
0.0
 10
126.837725
 20
268.003510
 30
0.0
 10
126.412540
 20
268.428696
 30
0.0
 10
126.412438
 20
268.953221
 30
0.0
  0
SPLINE
  5
2ef
100
AcDbEntity
  8
Layer_1
 62
7
100
AcDbSpline
 70
8
 71
3
 72
8
 73
4
 74
0
 40
0
 40
0
 40
0
 40
0
 40
1
 40
1
 40
1
 40
1
 10
126.412438
 20
268.953221
 30
0.0
 10
126.412542
 20
269.477744
 30
0.0
 10
126.837726
 20
269.902929
 30
0.0
 10
127.362250
 20
269.903033
 30
0.0
  0
LINE
  5
2f0
100
AcDbEntity
  8
Layer_1
 62
7
100
AcDbLine
 10
127.362250
 20
269.903033
 30
0.0
 11
127.362250
 21
269.903033
 31
0.0
  0
LINE
  5
2f1
100
AcDbEntity
  8
Layer_1
 62
7
100
AcDbLine
 10
142.864720
 20
274.113393
 30
0.0
 11
141.964510
 21
274.113393
 31
0.0
  0
LINE
  5
2f2
100
AcDbEntity
  8
Layer_1
 62
7
100
AcDbLine
 10
141.964510
 20
274.113393
 30
0.0
 11
140.864320
 21
274.113393
 31
0.0
  0
LINE
  5
2f3
100
AcDbEntity
  8
Layer_1
 62
7
100
AcDbLine
 10
140.864320
 20
274.113393
 30
0.0
 11
140.864320
 21
268.113603
 31
0.0
  0
LINE
  5
2f4
100
AcDbEntity
  8
Layer_1
 62
7
100
AcDbLine
 10
140.864320
 20
268.113603
 30
0.0
 11
135.864630
 21
268.113603
 31
0.0
  0
LINE
  5
2f5
100
AcDbEntity
  8
Layer_1
 62
7
100
AcDbLine
 10
135.864630
 20
268.113603
 30
0.0
 11
135.864630
 21
274.113393
 31
0.0
  0
LINE
  5
2f6
100
AcDbEntity
  8
Layer_1
 62
7
100
AcDbLine
 10
135.864630
 20
274.113393
 30
0.0
 11
134.764440
 21
274.113393
 31
0.0
  0
LINE
  5
2f7
100
AcDbEntity
  8
Layer_1
 62
7
100
AcDbLine
 10
134.764440
 20
274.113393
 30
0.0
 11
133.864230
 21
274.113393
 31
0.0
  0
LINE
  5
2f8
100
AcDbEntity
  8
Layer_1
 62
7
100
AcDbLine
 10
133.864230
 20
274.113393
 30
0.0
 11
133.864230
 21
267.113663
 31
0.0
  0
LINE
  5
2f9
100
AcDbEntity
  8
Layer_1
 62
7
100
AcDbLine
 10
133.864230
 20
267.113663
 30
0.0
 11
135.864630
 21
267.113663
 31
0.0
  0
LINE
  5
2fa
100
AcDbEntity
  8
Layer_1
 62
7
100
AcDbLine
 10
135.864630
 20
267.113663
 30
0.0
 11
140.864320
 21
267.113663
 31
0.0
  0
LINE
  5
2fb
100
AcDbEntity
  8
Layer_1
 62
7
100
AcDbLine
 10
140.864320
 20
267.113663
 30
0.0
 11
141.964510
 21
267.113663
 31
0.0
  0
LINE
  5
2fc
100
AcDbEntity
  8
Layer_1
 62
7
100
AcDbLine
 10
141.964510
 20
267.113663
 30
0.0
 11
142.864720
 21
267.113663
 31
0.0
  0
LINE
  5
2fd
100
AcDbEntity
  8
Layer_1
 62
7
100
AcDbLine
 10
142.864720
 20
267.113663
 30
0.0
 11
142.864720
 21
274.113393
 31
0.0
  0
LINE
  5
2fe
100
AcDbEntity
  8
Layer_1
 62
7
100
AcDbLine
 10
133.864230
 20
276.672198
 30
0.0
 11
136.864050
 21
276.672198
 31
0.0
  0
LINE
  5
2ff
100
AcDbEntity
  8
Layer_1
 62
7
100
AcDbLine
 10
136.864050
 20
276.672198
 30
0.0
 11
136.864050
 21
276.671668
 31
0.0
  0
LINE
  5
300
100
AcDbEntity
  8
Layer_1
 62
7
100
AcDbLine
 10
136.864050
 20
276.671668
 30
0.0
 11
136.864050
 21
275.171728
 31
0.0
  0
LINE
  5
301
100
AcDbEntity
  8
Layer_1
 62
7
100
AcDbLine
 10
136.864050
 20
275.171728
 30
0.0
 11
137.863990
 21
275.171728
 31
0.0
  0
LINE
  5
302
100
AcDbEntity
  8
Layer_1
 62
7
100
AcDbLine
 10
137.863990
 20
275.171728
 30
0.0
 11
137.863990
 21
276.671668
 31
0.0
  0
LINE
  5
303
100
AcDbEntity
  8
Layer_1
 62
7
100
AcDbLine
 10
137.863990
 20
276.671668
 30
0.0
 11
143.864140
 21
276.671668
 31
0.0
  0
LINE
  5
304
100
AcDbEntity
  8
Layer_1
 62
7
100
AcDbLine
 10
143.864140
 20
276.671668
 30
0.0
 11
143.864140
 21
277.672128
 31
0.0
  0
LINE
  5
305
100
AcDbEntity
  8
Layer_1
 62
7
100
AcDbLine
 10
143.864140
 20
277.672128
 30
0.0
 11
138.863930
 21
277.672128
 31
0.0
  0
LINE
  5
306
100
AcDbEntity
  8
Layer_1
 62
7
100
AcDbLine
 10
138.863930
 20
277.672128
 30
0.0
 11
138.863930
 21
289.671908
 31
0.0
  0
LINE
  5
307
100
AcDbEntity
  8
Layer_1
 62
7
100
AcDbLine
 10
138.863930
 20
289.671908
 30
0.0
 11
143.864140
 21
289.671908
 31
0.0
  0
LINE
  5
308
100
AcDbEntity
  8
Layer_1
 62
7
100
AcDbLine
 10
143.864140
 20
289.671908
 30
0.0
 11
143.864140
 21
290.671848
 31
0.0
  0
LINE
  5
309
100
AcDbEntity
  8
Layer_1
 62
7
100
AcDbLine
 10
143.864140
 20
290.671848
 30
0.0
 11
137.863990
 21
290.671848
 31
0.0
  0
LINE
  5
30a
100
AcDbEntity
  8
Layer_1
 62
7
100
AcDbLine
 10
137.863990
 20
290.671848
 30
0.0
 11
137.863990
 21
293.671728
 31
0.0
  0
LINE
  5
30b
100
AcDbEntity
  8
Layer_1
 62
7
100
AcDbLine
 10
137.863990
 20
293.671728
 30
0.0
 11
136.864050
 21
293.671728
 31
0.0
  0
LINE
  5
30c
100
AcDbEntity
  8
Layer_1
 62
7
100
AcDbLine
 10
136.864050
 20
293.671728
 30
0.0
 11
136.864050
 21
290.671848
 31
0.0
  0
LINE
  5
30d
100
AcDbEntity
  8
Layer_1
 62
7
100
AcDbLine
 10
136.864050
 20
290.671848
 30
0.0
 11
136.864050
 21
290.671318
 31
0.0
  0
LINE
  5
30e
100
AcDbEntity
  8
Layer_1
 62
7
100
AcDbLine
 10
136.864050
 20
290.671318
 30
0.0
 11
133.864230
 21
290.671318
 31
0.0
  0
LINE
  5
30f
100
AcDbEntity
  8
Layer_1
 62
7
100
AcDbLine
 10
133.864230
 20
290.671318
 30
0.0
 11
133.864230
 21
289.671378
 31
0.0
  0
LINE
  5
310
100
AcDbEntity
  8
Layer_1
 62
7
100
AcDbLine
 10
133.864230
 20
289.671378
 30
0.0
 11
136.864050
 21
289.671378
 31
0.0
  0
LINE
  5
311
100
AcDbEntity
  8
Layer_1
 62
7
100
AcDbLine
 10
136.864050
 20
289.671378
 30
0.0
 11
136.864050
 21
284.121848
 31
0.0
  0
LINE
  5
312
100
AcDbEntity
  8
Layer_1
 62
7
100
AcDbLine
 10
136.864050
 20
284.121848
 30
0.0
 11
137.313630
 21
284.121848
 31
0.0
  0
SPLINE
  5
313
100
AcDbEntity
  8
Layer_1
 62
7
100
AcDbSpline
 70
8
 71
3
 72
8
 73
4
 74
0
 40
0
 40
0
 40
0
 40
0
 40
1
 40
1
 40
1
 40
1
 10
137.313630
 20
284.121848
 30
0.0
 10
137.562240
 20
284.121908
 30
0.0
 10
137.763790
 20
283.920358
 30
0.0
 10
137.763730
 20
283.671748
 30
0.0
  0
SPLINE
  5
314
100
AcDbEntity
  8
Layer_1
 62
7
100
AcDbSpline
 70
8
 71
3
 72
8
 73
4
 74
0
 40
0
 40
0
 40
0
 40
0
 40
1
 40
1
 40
1
 40
1
 10
137.763730
 20
283.671748
 30
0.0
 10
137.763790
 20
283.423138
 30
0.0
 10
137.562240
 20
283.221588
 30
0.0
 10
137.313630
 20
283.221648
 30
0.0
  0
LINE
  5
315
100
AcDbEntity
  8
Layer_1
 62
7
100
AcDbLine
 10
137.313630
 20
283.221648
 30
0.0
 11
136.864050
 21
283.221648
 31
0.0
  0
LINE
  5
316
100
AcDbEntity
  8
Layer_1
 62
7
100
AcDbLine
 10
136.864050
 20
283.221648
 30
0.0
 11
136.864050
 21
277.672118
 31
0.0
  0
LINE
  5
317
100
AcDbEntity
  8
Layer_1
 62
7
100
AcDbLine
 10
136.864050
 20
277.672118
 30
0.0
 11
133.864230
 21
277.672118
 31
0.0
  0
LINE
  5
318
100
AcDbEntity
  8
Layer_1
 62
7
100
AcDbLine
 10
133.864230
 20
277.672118
 30
0.0
 11
133.864230
 21
276.672198
 31
0.0
  0
LINE
  5
319
100
AcDbEntity
  8
Layer_1
 62
7
100
AcDbLine
 10
139.922270
 20
304.953209
 30
0.0
 11
139.922270
 21
294.730060
 31
0.0
  0
LINE
  5
31a
100
AcDbEntity
  8
Layer_1
 62
7
100
AcDbLine
 10
139.922270
 20
294.730060
 30
0.0
 11
140.922200
 21
294.730060
 31
0.0
  0
LINE
  5
31b
100
AcDbEntity
  8
Layer_1
 62
7
100
AcDbLine
 10
140.922200
 20
294.730060
 30
0.0
 11
140.922200
 21
301.730089
 31
0.0
  0
LINE
  5
31c
100
AcDbEntity
  8
Layer_1
 62
7
100
AcDbLine
 10
140.922200
 20
301.730089
 30
0.0
 11
142.421440
 21
302.730089
 31
0.0
  0
LINE
  5
31d
100
AcDbEntity
  8
Layer_1
 62
7
100
AcDbLine
 10
142.421440
 20
302.730089
 30
0.0
 11
143.922020
 21
301.730089
 31
0.0
  0
LINE
  5
31e
100
AcDbEntity
  8
Layer_1
 62
7
100
AcDbLine
 10
143.922020
 20
301.730089
 30
0.0
 11
143.922020
 21
294.730060
 31
0.0
  0
LINE
  5
31f
100
AcDbEntity
  8
Layer_1
 62
7
100
AcDbLine
 10
143.922020
 20
294.730060
 30
0.0
 11
144.921970
 21
294.730060
 31
0.0
  0
LINE
  5
320
100
AcDbEntity
  8
Layer_1
 62
7
100
AcDbLine
 10
144.921970
 20
294.730060
 30
0.0
 11
144.921970
 21
304.953209
 31
0.0
  0
LINE
  5
321
100
AcDbEntity
  8
Layer_1
 62
7
100
AcDbLine
 10
144.921970
 20
304.953209
 30
0.0
 11
143.922020
 21
304.953209
 31
0.0
  0
LINE
  5
322
100
AcDbEntity
  8
Layer_1
 62
7
100
AcDbLine
 10
143.922020
 20
304.953209
 30
0.0
 11
143.922020
 21
303.730029
 31
0.0
  0
LINE
  5
323
100
AcDbEntity
  8
Layer_1
 62
7
100
AcDbLine
 10
143.922020
 20
303.730029
 30
0.0
 11
140.922200
 21
303.730029
 31
0.0
  0
LINE
  5
324
100
AcDbEntity
  8
Layer_1
 62
7
100
AcDbLine
 10
140.922200
 20
303.730029
 30
0.0
 11
140.922200
 21
304.953209
 31
0.0
  0
LINE
  5
325
100
AcDbEntity
  8
Layer_1
 62
7
100
AcDbLine
 10
140.922200
 20
304.953209
 30
0.0
 11
139.922270
 21
304.953209
 31
0.0
  0
LINE
  5
326
100
AcDbEntity
  8
Layer_1
 62
7
100
AcDbLine
 10
140.350640
 20
274.113393
 30
0.0
 11
139.350690
 21
274.113393
 31
0.0
  0
LINE
  5
327
100
AcDbEntity
  8
Layer_1
 62
7
100
AcDbLine
 10
139.350690
 20
274.113393
 30
0.0
 11
137.350830
 21
274.113393
 31
0.0
  0
LINE
  5
328
100
AcDbEntity
  8
Layer_1
 62
7
100
AcDbLine
 10
137.350830
 20
274.113393
 30
0.0
 11
136.350880
 21
274.113393
 31
0.0
  0
LINE
  5
329
100
AcDbEntity
  8
Layer_1
 62
7
100
AcDbLine
 10
136.350880
 20
274.113393
 30
0.0
 11
136.350880
 21
273.113453
 31
0.0
  0
LINE
  5
32a
100
AcDbEntity
  8
Layer_1
 62
7
100
AcDbLine
 10
136.350880
 20
273.113453
 30
0.0
 11
136.350880
 21
269.113183
 31
0.0
  0
LINE
  5
32b
100
AcDbEntity
  8
Layer_1
 62
7
100
AcDbLine
 10
136.350880
 20
269.113183
 30
0.0
 11
137.350830
 21
269.113183
 31
0.0
  0
LINE
  5
32c
100
AcDbEntity
  8
Layer_1
 62
7
100
AcDbLine
 10
137.350830
 20
269.113183
 30
0.0
 11
137.350830
 21
273.113453
 31
0.0
  0
LINE
  5
32d
100
AcDbEntity
  8
Layer_1
 62
7
100
AcDbLine
 10
137.350830
 20
273.113453
 30
0.0
 11
139.350690
 21
273.113453
 31
0.0
  0
LINE
  5
32e
100
AcDbEntity
  8
Layer_1
 62
7
100
AcDbLine
 10
139.350690
 20
273.113453
 30
0.0
 11
139.350690
 21
269.113183
 31
0.0
  0
LINE
  5
32f
100
AcDbEntity
  8
Layer_1
 62
7
100
AcDbLine
 10
139.350690
 20
269.113183
 30
0.0
 11
140.350640
 21
269.113183
 31
0.0
  0
LINE
  5
330
100
AcDbEntity
  8
Layer_1
 62
7
100
AcDbLine
 10
140.350640
 20
269.113183
 30
0.0
 11
140.350640
 21
273.113453
 31
0.0
  0
LINE
  5
331
100
AcDbEntity
  8
Layer_1
 62
7
100
AcDbLine
 10
140.350640
 20
273.113453
 30
0.0
 11
140.350640
 21
274.113393
 31
0.0
  0
LINE
  5
332
100
AcDbEntity
  8
Layer_1
 62
7
100
AcDbLine
 10
144.922480
 20
288.613575
 30
0.0
 11
143.922550
 21
288.613575
 31
0.0
  0
SPLINE
  5
333
100
AcDbEntity
  8
Layer_1
 62
7
100
AcDbSpline
 70
8
 71
3
 72
8
 73
4
 74
0
 40
0
 40
0
 40
0
 40
0
 40
1
 40
1
 40
1
 40
1
 10
143.922550
 20
288.613575
 30
0.0
 10
143.922550
 20
286.280335
 30
0.0
 10
143.922550
 20
283.947084
 30
0.0
 10
143.922550
 20
281.613844
 30
0.0
  0
LINE
  5
334
100
AcDbEntity
  8
Layer_1
 62
7
100
AcDbLine
 10
143.922550
 20
281.613844
 30
0.0
 11
140.922670
 21
281.613844
 31
0.0
  0
SPLINE
  5
335
100
AcDbEntity
  8
Layer_1
 62
7
100
AcDbSpline
 70
8
 71
3
 72
8
 73
4
 74
0
 40
0
 40
0
 40
0
 40
0
 40
1
 40
1
 40
1
 40
1
 10
140.922670
 20
281.613844
 30
0.0
 10
140.922670
 20
283.947084
 30
0.0
 10
140.922670
 20
286.280335
 30
0.0
 10
140.922670
 20
288.613575
 30
0.0
  0
LINE
  5
336
100
AcDbEntity
  8
Layer_1
 62
7
100
AcDbLine
 10
140.922670
 20
288.613575
 30
0.0
 11
139.922730
 21
288.613575
 31
0.0
  0
SPLINE
  5
337
100
AcDbEntity
  8
Layer_1
 62
7
100
AcDbSpline
 70
8
 71
3
 72
8
 73
4
 74
0
 40
0
 40
0
 40
0
 40
0
 40
1
 40
1
 40
1
 40
1
 10
139.922730
 20
288.613575
 30
0.0
 10
139.922730
 20
286.280335
 30
0.0
 10
139.922730
 20
283.947084
 30
0.0
 10
139.922730
 20
281.613844
 30
0.0
  0
LINE
  5
338
100
AcDbEntity
  8
Layer_1
 62
7
100
AcDbLine
 10
139.922730
 20
281.613844
 30
0.0
 11
139.922730
 21
279.613904
 31
0.0
  0
LINE
  5
339
100
AcDbEntity
  8
Layer_1
 62
7
100
AcDbLine
 10
139.922730
 20
279.613904
 30
0.0
 11
140.922670
 21
279.613904
 31
0.0
  0
LINE
  5
33a
100
AcDbEntity
  8
Layer_1
 62
7
100
AcDbLine
 10
140.922670
 20
279.613904
 30
0.0
 11
143.922550
 21
279.613904
 31
0.0
  0
LINE
  5
33b
100
AcDbEntity
  8
Layer_1
 62
7
100
AcDbLine
 10
143.922550
 20
279.613904
 30
0.0
 11
144.922480
 21
279.613904
 31
0.0
  0
LINE
  5
33c
100
AcDbEntity
  8
Layer_1
 62
7
100
AcDbLine
 10
144.922480
 20
279.613904
 30
0.0
 11
144.922480
 21
281.613844
 31
0.0
  0
SPLINE
  5
33d
100
AcDbEntity
  8
Layer_1
 62
7
100
AcDbSpline
 70
8
 71
3
 72
8
 73
4
 74
0
 40
0
 40
0
 40
0
 40
0
 40
1
 40
1
 40
1
 40
1
 10
144.922480
 20
281.613844
 30
0.0
 10
144.922480
 20
283.947084
 30
0.0
 10
144.922480
 20
286.280335
 30
0.0
 10
144.922480
 20
288.613575
 30
0.0
  0
LINE
  5
33e
100
AcDbEntity
  8
Layer_1
 62
7
100
AcDbLine
 10
144.922480
 20
288.613575
 30
0.0
 11
144.922480
 21
288.613575
 31
0.0
  0
LINE
  5
33f
100
AcDbEntity
  8
Layer_1
 62
7
100
AcDbLine
 10
137.014080
 20
297.730062
 30
0.0
 11
136.514090
 21
296.230062
 31
0.0
  0
LINE
  5
340
100
AcDbEntity
  8
Layer_1
 62
7
100
AcDbLine
 10
136.514090
 20
296.230062
 30
0.0
 11
137.014080
 21
294.730062
 31
0.0
  0
LINE
  5
341
100
AcDbEntity
  8
Layer_1
 62
7
100
AcDbLine
 10
137.014080
 20
294.730062
 30
0.0
 11
135.714070
 21
294.730062
 31
0.0
  0
LINE
  5
342
100
AcDbEntity
  8
Layer_1
 62
7
100
AcDbLine
 10
135.714070
 20
294.730062
 30
0.0
 11
135.714070
 21
297.730062
 31
0.0
  0
LINE
  5
343
100
AcDbEntity
  8
Layer_1
 62
7
100
AcDbLine
 10
135.714070
 20
297.730062
 30
0.0
 11
137.014080
 21
297.730062
 31
0.0
  0
LINE
  5
344
100
AcDbEntity
  8
Layer_1
 62
7
100
AcDbLine
 10
133.864230
 20
304.953212
 30
0.0
 11
133.864230
 21
294.730062
 31
0.0
  0
LINE
  5
345
100
AcDbEntity
  8
Layer_1
 62
7
100
AcDbLine
 10
133.864230
 20
294.730062
 30
0.0
 11
134.864160
 21
294.730062
 31
0.0
  0
LINE
  5
346
100
AcDbEntity
  8
Layer_1
 62
7
100
AcDbLine
 10
134.864160
 20
294.730062
 30
0.0
 11
134.864160
 21
301.730092
 31
0.0
  0
LINE
  5
347
100
AcDbEntity
  8
Layer_1
 62
7
100
AcDbLine
 10
134.864160
 20
301.730092
 30
0.0
 11
136.363400
 21
302.730092
 31
0.0
  0
LINE
  5
348
100
AcDbEntity
  8
Layer_1
 62
7
100
AcDbLine
 10
136.363400
 20
302.730092
 30
0.0
 11
137.863980
 21
301.730092
 31
0.0
  0
LINE
  5
349
100
AcDbEntity
  8
Layer_1
 62
7
100
AcDbLine
 10
137.863980
 20
301.730092
 30
0.0
 11
137.863980
 21
294.730062
 31
0.0
  0
LINE
  5
34a
100
AcDbEntity
  8
Layer_1
 62
7
100
AcDbLine
 10
137.863980
 20
294.730062
 30
0.0
 11
138.863930
 21
294.730062
 31
0.0
  0
LINE
  5
34b
100
AcDbEntity
  8
Layer_1
 62
7
100
AcDbLine
 10
138.863930
 20
294.730062
 30
0.0
 11
138.863930
 21
304.953212
 31
0.0
  0
LINE
  5
34c
100
AcDbEntity
  8
Layer_1
 62
7
100
AcDbLine
 10
138.863930
 20
304.953212
 30
0.0
 11
137.863980
 21
304.953212
 31
0.0
  0
LINE
  5
34d
100
AcDbEntity
  8
Layer_1
 62
7
100
AcDbLine
 10
137.863980
 20
304.953212
 30
0.0
 11
137.863980
 21
303.730032
 31
0.0
  0
LINE
  5
34e
100
AcDbEntity
  8
Layer_1
 62
7
100
AcDbLine
 10
137.863980
 20
303.730032
 30
0.0
 11
134.864160
 21
303.730032
 31
0.0
  0
LINE
  5
34f
100
AcDbEntity
  8
Layer_1
 62
7
100
AcDbLine
 10
134.864160
 20
303.730032
 30
0.0
 11
134.864160
 21
304.953212
 31
0.0
  0
LINE
  5
350
100
AcDbEntity
  8
Layer_1
 62
7
100
AcDbLine
 10
134.864160
 20
304.953212
 30
0.0
 11
133.864230
 21
304.953212
 31
0.0
  0
LINE
  5
351
100
AcDbEntity
  8
Layer_1
 62
7
100
AcDbLine
 10
143.072120
 20
297.730059
 30
0.0
 11
142.572130
 21
296.230059
 31
0.0
  0
LINE
  5
352
100
AcDbEntity
  8
Layer_1
 62
7
100
AcDbLine
 10
142.572130
 20
296.230059
 30
0.0
 11
143.072120
 21
294.730060
 31
0.0
  0
LINE
  5
353
100
AcDbEntity
  8
Layer_1
 62
7
100
AcDbLine
 10
143.072120
 20
294.730060
 30
0.0
 11
141.772110
 21
294.730060
 31
0.0
  0
LINE
  5
354
100
AcDbEntity
  8
Layer_1
 62
7
100
AcDbLine
 10
141.772110
 20
294.730060
 30
0.0
 11
141.772110
 21
297.730059
 31
0.0
  0
LINE
  5
355
100
AcDbEntity
  8
Layer_1
 62
7
100
AcDbLine
 10
141.772110
 20
297.730059
 30
0.0
 11
143.072120
 21
297.730059
 31
0.0
  0
LINE
  5
356
100
AcDbEntity
  8
Layer_1
 62
7
100
AcDbLine
 10
142.864720
 20
230.932662
 30
0.0
 11
141.964510
 21
230.932662
 31
0.0
  0
LINE
  5
357
100
AcDbEntity
  8
Layer_1
 62
7
100
AcDbLine
 10
141.964510
 20
230.932662
 30
0.0
 11
140.864320
 21
230.932662
 31
0.0
  0
LINE
  5
358
100
AcDbEntity
  8
Layer_1
 62
7
100
AcDbLine
 10
140.864320
 20
230.932662
 30
0.0
 11
140.864320
 21
224.932872
 31
0.0
  0
LINE
  5
359
100
AcDbEntity
  8
Layer_1
 62
7
100
AcDbLine
 10
140.864320
 20
224.932872
 30
0.0
 11
135.864630
 21
224.932872
 31
0.0
  0
LINE
  5
35a
100
AcDbEntity
  8
Layer_1
 62
7
100
AcDbLine
 10
135.864630
 20
224.932872
 30
0.0
 11
135.864630
 21
230.932662
 31
0.0
  0
LINE
  5
35b
100
AcDbEntity
  8
Layer_1
 62
7
100
AcDbLine
 10
135.864630
 20
230.932662
 30
0.0
 11
134.764440
 21
230.932662
 31
0.0
  0
LINE
  5
35c
100
AcDbEntity
  8
Layer_1
 62
7
100
AcDbLine
 10
134.764440
 20
230.932662
 30
0.0
 11
133.864230
 21
230.932662
 31
0.0
  0
LINE
  5
35d
100
AcDbEntity
  8
Layer_1
 62
7
100
AcDbLine
 10
133.864230
 20
230.932662
 30
0.0
 11
133.864230
 21
223.932932
 31
0.0
  0
LINE
  5
35e
100
AcDbEntity
  8
Layer_1
 62
7
100
AcDbLine
 10
133.864230
 20
223.932932
 30
0.0
 11
135.864630
 21
223.932932
 31
0.0
  0
LINE
  5
35f
100
AcDbEntity
  8
Layer_1
 62
7
100
AcDbLine
 10
135.864630
 20
223.932932
 30
0.0
 11
140.864320
 21
223.932932
 31
0.0
  0
LINE
  5
360
100
AcDbEntity
  8
Layer_1
 62
7
100
AcDbLine
 10
140.864320
 20
223.932932
 30
0.0
 11
141.964510
 21
223.932932
 31
0.0
  0
LINE
  5
361
100
AcDbEntity
  8
Layer_1
 62
7
100
AcDbLine
 10
141.964510
 20
223.932932
 30
0.0
 11
142.864720
 21
223.932932
 31
0.0
  0
LINE
  5
362
100
AcDbEntity
  8
Layer_1
 62
7
100
AcDbLine
 10
142.864720
 20
223.932932
 30
0.0
 11
142.864720
 21
230.932662
 31
0.0
  0
LINE
  5
363
100
AcDbEntity
  8
Layer_1
 62
7
100
AcDbLine
 10
133.864230
 20
233.491467
 30
0.0
 11
136.864050
 21
233.491467
 31
0.0
  0
LINE
  5
364
100
AcDbEntity
  8
Layer_1
 62
7
100
AcDbLine
 10
136.864050
 20
233.491467
 30
0.0
 11
136.864050
 21
233.490937
 31
0.0
  0
LINE
  5
365
100
AcDbEntity
  8
Layer_1
 62
7
100
AcDbLine
 10
136.864050
 20
233.490937
 30
0.0
 11
136.864050
 21
231.990997
 31
0.0
  0
LINE
  5
366
100
AcDbEntity
  8
Layer_1
 62
7
100
AcDbLine
 10
136.864050
 20
231.990997
 30
0.0
 11
137.863990
 21
231.990997
 31
0.0
  0
LINE
  5
367
100
AcDbEntity
  8
Layer_1
 62
7
100
AcDbLine
 10
137.863990
 20
231.990997
 30
0.0
 11
137.863990
 21
233.490937
 31
0.0
  0
LINE
  5
368
100
AcDbEntity
  8
Layer_1
 62
7
100
AcDbLine
 10
137.863990
 20
233.490937
 30
0.0
 11
143.864140
 21
233.490937
 31
0.0
  0
LINE
  5
369
100
AcDbEntity
  8
Layer_1
 62
7
100
AcDbLine
 10
143.864140
 20
233.490937
 30
0.0
 11
143.864140
 21
234.491397
 31
0.0
  0
LINE
  5
36a
100
AcDbEntity
  8
Layer_1
 62
7
100
AcDbLine
 10
143.864140
 20
234.491397
 30
0.0
 11
138.863930
 21
234.491397
 31
0.0
  0
LINE
  5
36b
100
AcDbEntity
  8
Layer_1
 62
7
100
AcDbLine
 10
138.863930
 20
234.491397
 30
0.0
 11
138.863930
 21
246.491178
 31
0.0
  0
LINE
  5
36c
100
AcDbEntity
  8
Layer_1
 62
7
100
AcDbLine
 10
138.863930
 20
246.491178
 30
0.0
 11
143.864140
 21
246.491178
 31
0.0
  0
LINE
  5
36d
100
AcDbEntity
  8
Layer_1
 62
7
100
AcDbLine
 10
143.864140
 20
246.491178
 30
0.0
 11
143.864140
 21
247.491118
 31
0.0
  0
LINE
  5
36e
100
AcDbEntity
  8
Layer_1
 62
7
100
AcDbLine
 10
143.864140
 20
247.491118
 30
0.0
 11
137.863990
 21
247.491118
 31
0.0
  0
LINE
  5
36f
100
AcDbEntity
  8
Layer_1
 62
7
100
AcDbLine
 10
137.863990
 20
247.491118
 30
0.0
 11
137.863990
 21
250.490998
 31
0.0
  0
LINE
  5
370
100
AcDbEntity
  8
Layer_1
 62
7
100
AcDbLine
 10
137.863990
 20
250.490998
 30
0.0
 11
136.864050
 21
250.490998
 31
0.0
  0
LINE
  5
371
100
AcDbEntity
  8
Layer_1
 62
7
100
AcDbLine
 10
136.864050
 20
250.490998
 30
0.0
 11
136.864050
 21
247.491118
 31
0.0
  0
LINE
  5
372
100
AcDbEntity
  8
Layer_1
 62
7
100
AcDbLine
 10
136.864050
 20
247.491118
 30
0.0
 11
136.864050
 21
247.490588
 31
0.0
  0
LINE
  5
373
100
AcDbEntity
  8
Layer_1
 62
7
100
AcDbLine
 10
136.864050
 20
247.490588
 30
0.0
 11
133.864230
 21
247.490588
 31
0.0
  0
LINE
  5
374
100
AcDbEntity
  8
Layer_1
 62
7
100
AcDbLine
 10
133.864230
 20
247.490588
 30
0.0
 11
133.864230
 21
246.490648
 31
0.0
  0
LINE
  5
375
100
AcDbEntity
  8
Layer_1
 62
7
100
AcDbLine
 10
133.864230
 20
246.490648
 30
0.0
 11
136.864050
 21
246.490648
 31
0.0
  0
LINE
  5
376
100
AcDbEntity
  8
Layer_1
 62
7
100
AcDbLine
 10
136.864050
 20
246.490648
 30
0.0
 11
136.864050
 21
240.941117
 31
0.0
  0
LINE
  5
377
100
AcDbEntity
  8
Layer_1
 62
7
100
AcDbLine
 10
136.864050
 20
240.941117
 30
0.0
 11
137.313630
 21
240.941117
 31
0.0
  0
SPLINE
  5
378
100
AcDbEntity
  8
Layer_1
 62
7
100
AcDbSpline
 70
8
 71
3
 72
8
 73
4
 74
0
 40
0
 40
0
 40
0
 40
0
 40
1
 40
1
 40
1
 40
1
 10
137.313630
 20
240.941117
 30
0.0
 10
137.562240
 20
240.941177
 30
0.0
 10
137.763790
 20
240.739627
 30
0.0
 10
137.763730
 20
240.491017
 30
0.0
  0
SPLINE
  5
379
100
AcDbEntity
  8
Layer_1
 62
7
100
AcDbSpline
 70
8
 71
3
 72
8
 73
4
 74
0
 40
0
 40
0
 40
0
 40
0
 40
1
 40
1
 40
1
 40
1
 10
137.763730
 20
240.491017
 30
0.0
 10
137.763790
 20
240.242407
 30
0.0
 10
137.562240
 20
240.040857
 30
0.0
 10
137.313630
 20
240.040917
 30
0.0
  0
LINE
  5
37a
100
AcDbEntity
  8
Layer_1
 62
7
100
AcDbLine
 10
137.313630
 20
240.040917
 30
0.0
 11
136.864050
 21
240.040917
 31
0.0
  0
LINE
  5
37b
100
AcDbEntity
  8
Layer_1
 62
7
100
AcDbLine
 10
136.864050
 20
240.040917
 30
0.0
 11
136.864050
 21
234.491387
 31
0.0
  0
LINE
  5
37c
100
AcDbEntity
  8
Layer_1
 62
7
100
AcDbLine
 10
136.864050
 20
234.491387
 30
0.0
 11
133.864230
 21
234.491387
 31
0.0
  0
LINE
  5
37d
100
AcDbEntity
  8
Layer_1
 62
7
100
AcDbLine
 10
133.864230
 20
234.491387
 30
0.0
 11
133.864230
 21
233.491467
 31
0.0
  0
LINE
  5
37e
100
AcDbEntity
  8
Layer_1
 62
7
100
AcDbLine
 10
139.922270
 20
261.772479
 30
0.0
 11
139.922270
 21
251.549329
 31
0.0
  0
LINE
  5
37f
100
AcDbEntity
  8
Layer_1
 62
7
100
AcDbLine
 10
139.922270
 20
251.549329
 30
0.0
 11
140.922200
 21
251.549329
 31
0.0
  0
LINE
  5
380
100
AcDbEntity
  8
Layer_1
 62
7
100
AcDbLine
 10
140.922200
 20
251.549329
 30
0.0
 11
140.922200
 21
258.549359
 31
0.0
  0
LINE
  5
381
100
AcDbEntity
  8
Layer_1
 62
7
100
AcDbLine
 10
140.922200
 20
258.549359
 30
0.0
 11
142.421440
 21
259.549359
 31
0.0
  0
LINE
  5
382
100
AcDbEntity
  8
Layer_1
 62
7
100
AcDbLine
 10
142.421440
 20
259.549359
 30
0.0
 11
143.922020
 21
258.549359
 31
0.0
  0
LINE
  5
383
100
AcDbEntity
  8
Layer_1
 62
7
100
AcDbLine
 10
143.922020
 20
258.549359
 30
0.0
 11
143.922020
 21
251.549329
 31
0.0
  0
LINE
  5
384
100
AcDbEntity
  8
Layer_1
 62
7
100
AcDbLine
 10
143.922020
 20
251.549329
 30
0.0
 11
144.921970
 21
251.549329
 31
0.0
  0
LINE
  5
385
100
AcDbEntity
  8
Layer_1
 62
7
100
AcDbLine
 10
144.921970
 20
251.549329
 30
0.0
 11
144.921970
 21
261.772479
 31
0.0
  0
LINE
  5
386
100
AcDbEntity
  8
Layer_1
 62
7
100
AcDbLine
 10
144.921970
 20
261.772479
 30
0.0
 11
143.922020
 21
261.772479
 31
0.0
  0
LINE
  5
387
100
AcDbEntity
  8
Layer_1
 62
7
100
AcDbLine
 10
143.922020
 20
261.772479
 30
0.0
 11
143.922020
 21
260.549299
 31
0.0
  0
LINE
  5
388
100
AcDbEntity
  8
Layer_1
 62
7
100
AcDbLine
 10
143.922020
 20
260.549299
 30
0.0
 11
140.922200
 21
260.549299
 31
0.0
  0
LINE
  5
389
100
AcDbEntity
  8
Layer_1
 62
7
100
AcDbLine
 10
140.922200
 20
260.549299
 30
0.0
 11
140.922200
 21
261.772479
 31
0.0
  0
LINE
  5
38a
100
AcDbEntity
  8
Layer_1
 62
7
100
AcDbLine
 10
140.922200
 20
261.772479
 30
0.0
 11
139.922270
 21
261.772479
 31
0.0
  0
LINE
  5
38b
100
AcDbEntity
  8
Layer_1
 62
7
100
AcDbLine
 10
140.350640
 20
230.932662
 30
0.0
 11
139.350690
 21
230.932662
 31
0.0
  0
LINE
  5
38c
100
AcDbEntity
  8
Layer_1
 62
7
100
AcDbLine
 10
139.350690
 20
230.932662
 30
0.0
 11
137.350830
 21
230.932662
 31
0.0
  0
LINE
  5
38d
100
AcDbEntity
  8
Layer_1
 62
7
100
AcDbLine
 10
137.350830
 20
230.932662
 30
0.0
 11
136.350880
 21
230.932662
 31
0.0
  0
LINE
  5
38e
100
AcDbEntity
  8
Layer_1
 62
7
100
AcDbLine
 10
136.350880
 20
230.932662
 30
0.0
 11
136.350880
 21
229.932722
 31
0.0
  0
LINE
  5
38f
100
AcDbEntity
  8
Layer_1
 62
7
100
AcDbLine
 10
136.350880
 20
229.932722
 30
0.0
 11
136.350880
 21
225.932452
 31
0.0
  0
LINE
  5
390
100
AcDbEntity
  8
Layer_1
 62
7
100
AcDbLine
 10
136.350880
 20
225.932452
 30
0.0
 11
137.350830
 21
225.932452
 31
0.0
  0
LINE
  5
391
100
AcDbEntity
  8
Layer_1
 62
7
100
AcDbLine
 10
137.350830
 20
225.932452
 30
0.0
 11
137.350830
 21
229.932722
 31
0.0
  0
LINE
  5
392
100
AcDbEntity
  8
Layer_1
 62
7
100
AcDbLine
 10
137.350830
 20
229.932722
 30
0.0
 11
139.350690
 21
229.932722
 31
0.0
  0
LINE
  5
393
100
AcDbEntity
  8
Layer_1
 62
7
100
AcDbLine
 10
139.350690
 20
229.932722
 30
0.0
 11
139.350690
 21
225.932452
 31
0.0
  0
LINE
  5
394
100
AcDbEntity
  8
Layer_1
 62
7
100
AcDbLine
 10
139.350690
 20
225.932452
 30
0.0
 11
140.350640
 21
225.932452
 31
0.0
  0
LINE
  5
395
100
AcDbEntity
  8
Layer_1
 62
7
100
AcDbLine
 10
140.350640
 20
225.932452
 30
0.0
 11
140.350640
 21
229.932722
 31
0.0
  0
LINE
  5
396
100
AcDbEntity
  8
Layer_1
 62
7
100
AcDbLine
 10
140.350640
 20
229.932722
 30
0.0
 11
140.350640
 21
230.932662
 31
0.0
  0
LINE
  5
397
100
AcDbEntity
  8
Layer_1
 62
7
100
AcDbLine
 10
144.922480
 20
245.432844
 30
0.0
 11
143.922550
 21
245.432844
 31
0.0
  0
SPLINE
  5
398
100
AcDbEntity
  8
Layer_1
 62
7
100
AcDbSpline
 70
8
 71
3
 72
8
 73
4
 74
0
 40
0
 40
0
 40
0
 40
0
 40
1
 40
1
 40
1
 40
1
 10
143.922550
 20
245.432844
 30
0.0
 10
143.922550
 20
243.099604
 30
0.0
 10
143.922550
 20
240.766353
 30
0.0
 10
143.922550
 20
238.433113
 30
0.0
  0
LINE
  5
399
100
AcDbEntity
  8
Layer_1
 62
7
100
AcDbLine
 10
143.922550
 20
238.433113
 30
0.0
 11
140.922670
 21
238.433113
 31
0.0
  0
SPLINE
  5
39a
100
AcDbEntity
  8
Layer_1
 62
7
100
AcDbSpline
 70
8
 71
3
 72
8
 73
4
 74
0
 40
0
 40
0
 40
0
 40
0
 40
1
 40
1
 40
1
 40
1
 10
140.922670
 20
238.433113
 30
0.0
 10
140.922670
 20
240.766353
 30
0.0
 10
140.922670
 20
243.099604
 30
0.0
 10
140.922670
 20
245.432844
 30
0.0
  0
LINE
  5
39b
100
AcDbEntity
  8
Layer_1
 62
7
100
AcDbLine
 10
140.922670
 20
245.432844
 30
0.0
 11
139.922730
 21
245.432844
 31
0.0
  0
SPLINE
  5
39c
100
AcDbEntity
  8
Layer_1
 62
7
100
AcDbSpline
 70
8
 71
3
 72
8
 73
4
 74
0
 40
0
 40
0
 40
0
 40
0
 40
1
 40
1
 40
1
 40
1
 10
139.922730
 20
245.432844
 30
0.0
 10
139.922730
 20
243.099604
 30
0.0
 10
139.922730
 20
240.766353
 30
0.0
 10
139.922730
 20
238.433113
 30
0.0
  0
LINE
  5
39d
100
AcDbEntity
  8
Layer_1
 62
7
100
AcDbLine
 10
139.922730
 20
238.433113
 30
0.0
 11
139.922730
 21
236.433173
 31
0.0
  0
LINE
  5
39e
100
AcDbEntity
  8
Layer_1
 62
7
100
AcDbLine
 10
139.922730
 20
236.433173
 30
0.0
 11
140.922670
 21
236.433173
 31
0.0
  0
LINE
  5
39f
100
AcDbEntity
  8
Layer_1
 62
7
100
AcDbLine
 10
140.922670
 20
236.433173
 30
0.0
 11
143.922550
 21
236.433173
 31
0.0
  0
LINE
  5
3a0
100
AcDbEntity
  8
Layer_1
 62
7
100
AcDbLine
 10
143.922550
 20
236.433173
 30
0.0
 11
144.922480
 21
236.433173
 31
0.0
  0
LINE
  5
3a1
100
AcDbEntity
  8
Layer_1
 62
7
100
AcDbLine
 10
144.922480
 20
236.433173
 30
0.0
 11
144.922480
 21
238.433113
 31
0.0
  0
SPLINE
  5
3a2
100
AcDbEntity
  8
Layer_1
 62
7
100
AcDbSpline
 70
8
 71
3
 72
8
 73
4
 74
0
 40
0
 40
0
 40
0
 40
0
 40
1
 40
1
 40
1
 40
1
 10
144.922480
 20
238.433113
 30
0.0
 10
144.922480
 20
240.766353
 30
0.0
 10
144.922480
 20
243.099604
 30
0.0
 10
144.922480
 20
245.432844
 30
0.0
  0
LINE
  5
3a3
100
AcDbEntity
  8
Layer_1
 62
7
100
AcDbLine
 10
144.922480
 20
245.432844
 30
0.0
 11
144.922480
 21
245.432844
 31
0.0
  0
LINE
  5
3a4
100
AcDbEntity
  8
Layer_1
 62
7
100
AcDbLine
 10
137.014080
 20
254.549331
 30
0.0
 11
136.514090
 21
253.049331
 31
0.0
  0
LINE
  5
3a5
100
AcDbEntity
  8
Layer_1
 62
7
100
AcDbLine
 10
136.514090
 20
253.049331
 30
0.0
 11
137.014080
 21
251.549331
 31
0.0
  0
LINE
  5
3a6
100
AcDbEntity
  8
Layer_1
 62
7
100
AcDbLine
 10
137.014080
 20
251.549331
 30
0.0
 11
135.714070
 21
251.549331
 31
0.0
  0
LINE
  5
3a7
100
AcDbEntity
  8
Layer_1
 62
7
100
AcDbLine
 10
135.714070
 20
251.549331
 30
0.0
 11
135.714070
 21
254.549331
 31
0.0
  0
LINE
  5
3a8
100
AcDbEntity
  8
Layer_1
 62
7
100
AcDbLine
 10
135.714070
 20
254.549331
 30
0.0
 11
137.014080
 21
254.549331
 31
0.0
  0
LINE
  5
3a9
100
AcDbEntity
  8
Layer_1
 62
7
100
AcDbLine
 10
133.864230
 20
261.772481
 30
0.0
 11
133.864230
 21
251.549331
 31
0.0
  0
LINE
  5
3aa
100
AcDbEntity
  8
Layer_1
 62
7
100
AcDbLine
 10
133.864230
 20
251.549331
 30
0.0
 11
134.864160
 21
251.549331
 31
0.0
  0
LINE
  5
3ab
100
AcDbEntity
  8
Layer_1
 62
7
100
AcDbLine
 10
134.864160
 20
251.549331
 30
0.0
 11
134.864160
 21
258.549361
 31
0.0
  0
LINE
  5
3ac
100
AcDbEntity
  8
Layer_1
 62
7
100
AcDbLine
 10
134.864160
 20
258.549361
 30
0.0
 11
136.363400
 21
259.549361
 31
0.0
  0
LINE
  5
3ad
100
AcDbEntity
  8
Layer_1
 62
7
100
AcDbLine
 10
136.363400
 20
259.549361
 30
0.0
 11
137.863980
 21
258.549361
 31
0.0
  0
LINE
  5
3ae
100
AcDbEntity
  8
Layer_1
 62
7
100
AcDbLine
 10
137.863980
 20
258.549361
 30
0.0
 11
137.863980
 21
251.549331
 31
0.0
  0
LINE
  5
3af
100
AcDbEntity
  8
Layer_1
 62
7
100
AcDbLine
 10
137.863980
 20
251.549331
 30
0.0
 11
138.863930
 21
251.549331
 31
0.0
  0
LINE
  5
3b0
100
AcDbEntity
  8
Layer_1
 62
7
100
AcDbLine
 10
138.863930
 20
251.549331
 30
0.0
 11
138.863930
 21
261.772481
 31
0.0
  0
LINE
  5
3b1
100
AcDbEntity
  8
Layer_1
 62
7
100
AcDbLine
 10
138.863930
 20
261.772481
 30
0.0
 11
137.863980
 21
261.772481
 31
0.0
  0
LINE
  5
3b2
100
AcDbEntity
  8
Layer_1
 62
7
100
AcDbLine
 10
137.863980
 20
261.772481
 30
0.0
 11
137.863980
 21
260.549301
 31
0.0
  0
LINE
  5
3b3
100
AcDbEntity
  8
Layer_1
 62
7
100
AcDbLine
 10
137.863980
 20
260.549301
 30
0.0
 11
134.864160
 21
260.549301
 31
0.0
  0
LINE
  5
3b4
100
AcDbEntity
  8
Layer_1
 62
7
100
AcDbLine
 10
134.864160
 20
260.549301
 30
0.0
 11
134.864160
 21
261.772481
 31
0.0
  0
LINE
  5
3b5
100
AcDbEntity
  8
Layer_1
 62
7
100
AcDbLine
 10
134.864160
 20
261.772481
 30
0.0
 11
133.864230
 21
261.772481
 31
0.0
  0
LINE
  5
3b6
100
AcDbEntity
  8
Layer_1
 62
7
100
AcDbLine
 10
143.072120
 20
254.549329
 30
0.0
 11
142.572130
 21
253.049329
 31
0.0
  0
LINE
  5
3b7
100
AcDbEntity
  8
Layer_1
 62
7
100
AcDbLine
 10
142.572130
 20
253.049329
 30
0.0
 11
143.072120
 21
251.549329
 31
0.0
  0
LINE
  5
3b8
100
AcDbEntity
  8
Layer_1
 62
7
100
AcDbLine
 10
143.072120
 20
251.549329
 30
0.0
 11
141.772110
 21
251.549329
 31
0.0
  0
LINE
  5
3b9
100
AcDbEntity
  8
Layer_1
 62
7
100
AcDbLine
 10
141.772110
 20
251.549329
 30
0.0
 11
141.772110
 21
254.549329
 31
0.0
  0
LINE
  5
3ba
100
AcDbEntity
  8
Layer_1
 62
7
100
AcDbLine
 10
141.772110
 20
254.549329
 30
0.0
 11
143.072120
 21
254.549329
 31
0.0
  0
ENDSEC
  0
SECTION
  2
OBJECTS
  0
DICTIONARY
  5
C
330
0
100
AcDbDictionary
  3
ACAD_GROUP
350
D
  3
ACAD_MLINESTYLE
350
17
  0
DICTIONARY
  5
D
330
C
100
AcDbDictionary
  0
DICTIONARY
  5
1A
330
C
100
AcDbDictionary
  0
DICTIONARY
  5
17
330
C
100
AcDbDictionary
  3
STANDARD
350
18
  0
DICTIONARY
  5
19
330
C
100
AcDbDictionary
  0
ENDSEC
  0
EOF
